STARTFONT 2.1
FONT -FontForge-Indie Flower-Book-R-Normal--75-720-75-75-P-346-ISO10646-1
SIZE 72 75 75
FONTBOUNDINGBOX 92 110 -10 -37
COMMENT "Generated by fontforge, http://fontforge.sourceforge.net"
COMMENT "Copyright (c) 2010, Kimberly Geswein (kimberlygeswein.com)"
STARTPROPERTIES 39
FOUNDRY "FontForge"
FAMILY_NAME "Indie Flower"
WEIGHT_NAME "Book"
SLANT "R"
SETWIDTH_NAME "Normal"
ADD_STYLE_NAME ""
PIXEL_SIZE 75
POINT_SIZE 720
RESOLUTION_X 75
RESOLUTION_Y 75
SPACING "P"
AVERAGE_WIDTH 346
CHARSET_REGISTRY "ISO10646"
CHARSET_ENCODING "1"
FONTNAME_REGISTRY ""
CHARSET_COLLECTIONS "ISO8859-2 ISO8859-9 ISO8859-4 ISO10646-1"
FONT_NAME "IndieFlower"
FACE_NAME "Indie Flower"
COPYRIGHT "Copyright (c) 2010, Kimberly Geswein (kimberlygeswein.com)"
FONT_VERSION "1.001 2010"
FONT_ASCENT 60
FONT_DESCENT 15
UNDERLINE_POSITION -7
UNDERLINE_THICKNESS 4
X_HEIGHT 28
CAP_HEIGHT 38
RAW_ASCENT 799
RAW_DESCENT 200
NORM_SPACE 28
RELATIVE_WEIGHT 40
RELATIVE_SETWIDTH 50
SUPERSCRIPT_X 0
SUPERSCRIPT_Y 35
SUPERSCRIPT_SIZE 48
SUBSCRIPT_X 0
SUBSCRIPT_Y 10
SUBSCRIPT_SIZE 48
AVG_LOWERCASE_WIDTH 339
AVG_UPPERCASE_WIDTH 404
ENDPROPERTIES
CHARS 356
STARTCHAR space
ENCODING 32
SWIDTH 375 0
DWIDTH 28 0
BBX 1 1 0 0
BITMAP
00
ENDCHAR
STARTCHAR exclam
ENCODING 33
SWIDTH 149 0
DWIDTH 11 0
BBX 9 62 1 0
BITMAP
1800
3800
3800
3800
3800
3800
3800
3C00
3C00
3C00
3C00
3C00
3C00
3C00
3C00
3C00
3C00
3C00
3C00
3C00
3C00
3C00
3C00
3C00
3C00
3C00
3C00
3C00
3C00
3C00
3C00
3C00
3C00
3C00
3C00
3C00
3C00
3C00
3C00
3C00
3C00
3C00
1800
0000
0000
0000
0000
0000
0000
0000
0000
0000
0000
0000
0E00
7F00
7F00
FF80
FF80
FF80
7F00
7C00
ENDCHAR
STARTCHAR quotedbl
ENCODING 34
SWIDTH 234 0
DWIDTH 18 0
BBX 15 23 1 37
BITMAP
0030
0030
C038
E038
E038
E038
F03C
F03C
F03C
F03C
F83C
783C
783C
783C
7C3C
7C3C
3C3C
3C3E
3E3E
1E3E
1E3E
0F1E
000C
ENDCHAR
STARTCHAR numbersign
ENCODING 35
SWIDTH 768 0
DWIDTH 58 0
BBX 55 37 1 0
BITMAP
00000100400000
00000300C00000
00000301E00000
00000301E00000
00000380E00000
00000380E00000
00000380F00000
00000380700000
00000380700000
000003C0780000
000003C0FFFFC0
000003FFFFFFE0
00001FFFFFFFF0
0007FFFFFF81E0
00FFFFFFFC0000
07FFFFF07C0000
3FFFE7E07C0000
7FFC03C03C0000
FFC003E03C0000
FF0003E03FFFF8
F80003E0FFFFFC
000003FFFFFFFE
000007FFFFFFFE
0000FFFFFFE01C
001FFFFF7C0000
03FFFFF83C0000
07FFF9F03C0000
03FC01F03C0000
010000F03C0000
000000F03E0000
000000F03E0000
000000F03E0000
000000E01E0000
000000001E0000
000000001E0000
000000001C0000
00000000180000
ENDCHAR
STARTCHAR dollar
ENCODING 36
SWIDTH 581 0
DWIDTH 44 0
BBX 41 70 1 0
BITMAP
000001000000
000001000000
000003800000
000007830000
000007870000
000007870000
000007070000
00000F070000
00000F070000
00000F070000
00000F070000
00000FC70000
00000FFF0000
00001FFF0000
00007FFF8000
0001FFFFE000
0003FF8FF000
000FFF0FE000
001FFE0F8000
001F1E0E0000
003E1E0E0000
003E1E0E0000
003C1E0E0000
003C1E0E0000
001E1E0C0000
001E1E0C0000
000F9E1C0000
0007FE1C0000
0003FE1C0000
0001FE1C0000
00007E3C0000
00003E3C0000
00003F7C0000
00003FFE0000
00003FFF0000
00003E7F8000
00003E7FC000
00003CFFE000
00003CF9F000
00003CF0F800
00003CF07C00
000038F03E00
000038E01E00
000039E00F00
000039E00F00
000071E00780
000071E00780
F00071E00780
F80071E00780
FC0071C00780
7E0071C00780
3F00E3C00780
1F80E3C00780
0FC0E3C00780
03E1E3C00F80
01FFE3C00F00
007FF3C01F00
001FFFC01E00
000FFFC03E00
0003FFC07C00
0001FFE1F800
0001FFFFF000
0001F7FFE000
0001F7FF8000
0001F7FC0000
0001F3C00000
0001F3C00000
0000E3C00000
0000E3C00000
000003800000
ENDCHAR
STARTCHAR percent
ENCODING 37
SWIDTH 636 0
DWIDTH 48 0
BBX 45 46 1 0
BITMAP
000000000200
000000000600
000000000E00
000000001C00
000000003C00
01E000007800
07FC0000F000
1FFE0000F000
3FFF0001E000
3F3F8003C000
7C0FC0078000
7803C0070000
F803E00E0000
F001E01E0000
F001E03C0000
F001E0380000
F001E0700000
F003C0F00000
F007C0E00000
780F81C00000
7C3F03C00000
3FFF07800000
0FFC07800000
07F80F000800
00001F003F00
00001E00FFC0
00003E01FFC0
00003C03FFE0
00007C07E1F0
0000F80780F0
0000F80F00F8
0001F00F00F8
0003F01E0078
0003E01E0078
0007E03C00F8
0007C03C00F0
000FC03800F0
000F803801F0
001F003803E0
001F003807C0
003E00381FC0
003E003FFF80
003C001FFF00
0038000FFE00
00380007F800
003000000000
ENDCHAR
STARTCHAR ampersand
ENCODING 38
SWIDTH 457 0
DWIDTH 34 0
BBX 32 52 1 0
BITMAP
000E0000
001F8000
003F8000
003FC000
003FC000
003FE000
003FE000
003FE000
003FE000
003FE000
003FE000
003FE000
003FC000
003FC000
003FC000
003FC000
003F8000
003F8000
003F0000
003F0000
003E0000
003E000E
007C03FF
007C03FF
007C03FF
00FC07F8
00FC07C0
01FC0780
01FE0780
03FE0780
03CF0780
07870F00
07878F00
0F039F00
1F03FF00
1E01FE00
3E01FE00
3C00FC00
7C00FC00
7800F800
7800FC00
F801FC00
F001FE00
F003FE00
F0078F00
F00F0700
F03F0380
F87E01C0
FFFC00E0
7FF80060
3FF00070
1FC00000
ENDCHAR
STARTCHAR quotesingle
ENCODING 39
SWIDTH 102 0
DWIDTH 8 0
BBX 5 18 1 37
BITMAP
40
60
F0
F0
F0
F8
F8
78
78
78
78
78
78
78
78
38
38
18
ENDCHAR
STARTCHAR parenleft
ENCODING 40
SWIDTH 421 0
DWIDTH 32 0
BBX 29 47 1 -3
BITMAP
000000C0
00000FF0
00003FF8
00007FF8
0000FFF8
0003F818
0007E000
000F8000
001F0000
001E0000
003C0000
00780000
00F00000
01F00000
01E00000
03C00000
07C00000
07800000
0F000000
0F000000
1E000000
1E000000
3E000000
3C000000
7C000000
7C000000
78000000
78000000
78000000
F8000000
F8000000
78000000
78000000
78000000
78000000
78000000
7C000000
3C000000
3E000000
1F000000
1F800000
0FE00000
07FE0000
03FFF000
01FFF000
00FFF000
001FE000
ENDCHAR
STARTCHAR parenright
ENCODING 41
SWIDTH 290 0
DWIDTH 22 0
BBX 20 48 1 -4
BITMAP
3F0000
3FC000
1FE000
03F000
01F800
00FC00
007E00
007E00
003F00
001F00
000F80
000F80
0007C0
0007C0
0003C0
0003E0
0001E0
0001E0
0001E0
0001E0
0001F0
0001E0
0001E0
0001E0
0001E0
0001E0
0003C0
0003C0
0007C0
000780
000F80
000F00
001F00
003E00
003E00
007C00
00FC00
01F800
03F800
07F000
0FE000
1FC000
3FC000
7F8000
FF0000
FE0000
FC0000
F00000
ENDCHAR
STARTCHAR asterisk
ENCODING 42
SWIDTH 412 0
DWIDTH 31 0
BBX 28 29 1 17
BITMAP
00000020
000000F0
000003F0
180007E0
1E0C1FC0
1F8E3F80
1FDE7F00
07FFFC00
03FFF000
01FFFF00
00FFFFC0
00FFFFC0
0E7FFF80
3EFFFC00
7FFFFC00
FFFFFC00
03F7FC00
07E3FC00
07E3FE00
07C1FE00
0F81FF00
0F01FF80
0F00FF80
0E00FFC0
0C00F780
0000F100
0000F000
00006000
00004000
ENDCHAR
STARTCHAR plus
ENCODING 43
SWIDTH 459 0
DWIDTH 35 0
BBX 32 32 1 0
BITMAP
00080000
001C0000
001E0000
001E0000
001E0000
001F0000
000F0000
000F0000
000F0000
000F8000
000F8000
000F8000
000FE000
000FFFE0
00FFFFFF
1FFFFFFF
FFFFFFFE
FFFFFFFE
FF07E000
0007E000
0003E000
0003E000
0003E000
0003E000
0003E000
0003E000
0001E000
0001E000
0001E000
0001E000
0001E000
00018000
ENDCHAR
STARTCHAR comma
ENCODING 44
SWIDTH 130 0
DWIDTH 10 0
BBX 6 25 1 -14
BITMAP
30
78
7C
FC
FC
3C
3C
3C
3C
3C
3C
3C
7C
7C
7C
78
78
F8
F8
F0
F0
F0
E0
E0
C0
ENDCHAR
STARTCHAR hyphen
ENCODING 45
SWIDTH 375 0
DWIDTH 28 0
BBX 24 6 1 18
BITMAP
00FFFC
1FFFFF
7FFFFF
7FFFFF
FFFC3F
F80000
ENDCHAR
STARTCHAR period
ENCODING 46
SWIDTH 204 0
DWIDTH 15 0
BBX 10 14 3 0
BITMAP
1E00
1F00
3F80
3F80
7FC0
7FC0
FFC0
FFC0
FFC0
7FC0
7F80
3F80
3F00
1C00
ENDCHAR
STARTCHAR slash
ENCODING 47
SWIDTH 309 0
DWIDTH 23 0
BBX 21 56 1 0
BITMAP
000038
000038
000078
000078
000078
000078
0000F0
0000F0
0000F0
0000F0
0000E0
0001E0
0001E0
0003E0
0003C0
0003C0
0007C0
000780
000780
000F80
000F00
000F00
001F00
001E00
001E00
003E00
003C00
007C00
007C00
007800
00F800
00F800
00F000
01F000
01F000
01E000
03E000
03E000
07C000
07C000
078000
0F8000
0F8000
1F0000
1F0000
3F0000
3E0000
3E0000
7C0000
7C0000
F80000
F80000
F00000
F00000
E00000
600000
ENDCHAR
STARTCHAR zero
ENCODING 48
SWIDTH 430 0
DWIDTH 32 0
BBX 29 32 1 0
BITMAP
000FC000
003FF000
007FFC00
01FFFE00
03FFFF00
07E07F80
0F801FC0
0F0007C0
1E0003E0
3C0001E0
3C0001F0
780000F0
780000F8
70000078
F0000078
F0000078
F0000078
F0000078
70000078
70000078
780000F8
780000F8
3C0001F0
3C0003F0
1E0003E0
1F0003E0
0FC00FC0
07F87F80
03FFFF80
00FFFE00
003FFC00
000FF000
ENDCHAR
STARTCHAR one
ENCODING 49
SWIDTH 318 0
DWIDTH 24 0
BBX 21 44 1 0
BITMAP
000038
000038
000078
000078
000078
000078
000078
0000F8
0000F8
0000F8
0001F0
0003F0
0007F0
0007F0
000FF0
001FF0
003FF0
007FF0
00FFF0
01FFE0
03E7E0
07C7E0
0FC7E0
1F87E0
3F07E0
7E07E0
FC07C0
F807C0
F007C0
0007C0
0007C0
0007C0
0007C0
000780
000780
000780
000F80
000F80
000F00
000F00
000F00
000F00
000E00
000600
ENDCHAR
STARTCHAR two
ENCODING 50
SWIDTH 497 0
DWIDTH 37 0
BBX 34 41 1 0
BITMAP
00000E0000
00003FC000
0000FFE000
0000FFF000
0001F0F800
0001E07800
0003C07C00
0003C03C00
0001C03C00
0001803E00
0001801E00
0000001E00
0000001E00
0000001E00
0000001F00
0000001F00
0000001E00
0000001E00
0000001E00
0000001E00
0000003E00
0000003E00
0000003E00
0000003C00
0000007C00
0000007800
0000007800
000000F800
000000F000
000001E000
7F8003C000
FFE0078000
FFFC0F8000
FFFFFF0000
FFFFFF0000
FFFFFFC000
7FFFFFFF00
3FFFFFFFC0
0FFFFFFFC0
00E000FFC0
0000000F80
ENDCHAR
STARTCHAR three
ENCODING 51
SWIDTH 430 0
DWIDTH 32 0
BBX 29 39 1 0
BITMAP
1FFFF000
3FFFF800
3FFFFC00
3F007E00
38001F00
18000F00
00000700
00000700
00000F00
00001F00
00003F00
0000FE00
0003F800
003FF000
07FFE000
0FFFC000
0FFFC000
07FFF000
00FFFC00
000FFE00
0000FF80
00001FC0
00000FC0
000003E0
000001F0
000000F0
200000F8
70000078
F8000078
FC000078
7E000078
3F800078
1FC000F8
07F001F8
03FE07F0
01FFFFF0
007FFFE0
001FFF80
0003FC00
ENDCHAR
STARTCHAR four
ENCODING 52
SWIDTH 412 0
DWIDTH 31 0
BBX 29 45 1 0
BITMAP
0F000000
0F000000
0F000000
1F000000
1F000000
1E000000
3E000000
3E000000
3C000000
7C000000
78000000
78000020
78000070
70000078
F00000F0
F00000F0
F00001F0
F00001F0
F00003F0
F00003F0
700007E0
70000FE0
78000FE0
78001FE0
7C003FE0
3E007FE0
3F01FFC0
1FDFFFC0
1FFFFFC0
0FFFF3C0
07FFC3E0
03FF83E0
00FE03E0
000003E0
000003E0
000003E0
000003E0
000001F0
000001F0
000001F0
000001F0
000001F0
000001F0
000001E0
000000E0
ENDCHAR
STARTCHAR five
ENCODING 53
SWIDTH 571 0
DWIDTH 43 0
BBX 40 49 1 0
BITMAP
00007FFFF8
0003FFFFFE
0007FFFFFF
0007FFFFFF
0007E0000C
0003C00000
0003C00000
0003C00000
0007800000
0007800000
000F000000
000F000000
001E000000
001E000000
003E000000
003C000000
007E000000
00FFE00000
00FFFC0000
00FFFF0000
007FFFC000
0007FFF000
00001FF800
000001FC00
0000007E00
0000001F00
0000000F80
00000007C0
00000003C0
00000001E0
00000001E0
00000001E0
00000001E0
00000001E0
60000000F0
60000001F0
F0000001F0
F0000001F0
F0000001F0
F0000003E0
70000007E0
7800000FC0
7F00003FC0
3FF000FF80
1FFFFFFF00
0FFFFFFE00
03FFFFF800
00FFFFE000
0007FF0000
ENDCHAR
STARTCHAR six
ENCODING 54
SWIDTH 440 0
DWIDTH 33 0
BBX 30 45 1 0
BITMAP
000003E0
00001FF8
00007FFC
0001FFFC
0003FC7C
0007F038
000FC000
001F8000
003E0000
007C0000
00F80000
01F00000
03E00000
03C00000
07800000
07800000
0F000000
0F000000
1E000000
1E000000
3E7FFC00
3FFFFF00
3FFFFF80
7FF81FC0
7F8007E0
7E0003F0
7C0001F8
F80000F8
F0000078
F000007C
F000003C
F000003C
7000003C
7800003C
7800007C
7C00007C
7C0000F8
3E0001F8
3F8003F0
1FE01FF0
0FFFFFE0
0FFFFFC0
07FFFF00
01FFFC00
007FE000
ENDCHAR
STARTCHAR seven
ENCODING 55
SWIDTH 412 0
DWIDTH 31 0
BBX 28 40 2 0
BITMAP
FF800000
FFFFF800
FFFFF800
7FFFF800
0000F800
0000F800
0000F800
0000F800
0000F000
0000F000
0000F000
0000F000
0000F000
0000F000
0000F000
0000F000
0001F000
0001F000
01FFFF00
0FFFFFE0
0FFFFFE0
0FFFFFF0
001FE3F0
0003E0E0
0003E000
0003C000
0003C000
0003C000
0003C000
0007C000
00078000
00078000
00078000
000F8000
000F8000
000F0000
000F0000
001F0000
000F0000
000E0000
ENDCHAR
STARTCHAR eight
ENCODING 56
SWIDTH 375 0
DWIDTH 28 0
BBX 25 43 1 0
BITMAP
007C0000
01FF8000
07FFC000
0FFFE000
1FFFF000
3F01F800
3E00F800
7C00F800
7800F800
F800F000
F000F000
F001E000
F001E000
7803C000
7C078000
3F0F0000
1F9E0000
0FFE0000
03FE0000
01FE0000
01FE0000
01FF0000
03FF8000
0787C000
0F81E000
1F00F000
1F007800
3E003C00
3E001E00
3E000F00
3E000F00
3E000780
3E000780
1E000780
1F000780
0F000380
0F800780
07C00780
03F00F00
01FE7F00
007FFE00
003FFC00
0007F000
ENDCHAR
STARTCHAR nine
ENCODING 57
SWIDTH 300 0
DWIDTH 23 0
BBX 21 44 1 1
BITMAP
01FC00
07FF00
0FFF80
1FDFC0
3E03E0
7C01F0
7800F0
F800F8
F000F8
F001F8
F001F8
F001F0
F001F0
F003F0
F003F0
F803F0
F807F0
7C07F0
3F07F0
1FFFE0
0FFFE0
03FFE0
001FE0
0003E0
0003E0
0001E0
0001E0
0001E0
0001E0
0001E0
0001E0
0001E0
0001E0
0001C0
0001C0
0003C0
0003C0
0003C0
0003E0
0001E0
0001E0
0001E0
0001E0
0001E0
ENDCHAR
STARTCHAR colon
ENCODING 58
SWIDTH 84 0
DWIDTH 6 0
BBX 5 19 1 6
BITMAP
E0
F0
78
78
70
00
00
00
00
00
00
00
00
00
00
00
70
F0
70
ENDCHAR
STARTCHAR semicolon
ENCODING 59
SWIDTH 128 0
DWIDTH 10 0
BBX 9 43 -1 -14
BITMAP
3C00
3E00
3E00
3E00
1E00
1E00
0000
0000
0000
0000
0000
0000
0000
0000
0000
0000
0000
0000
0200
0300
0700
0780
0780
0780
0780
0780
0780
0F00
0F00
0F00
1F00
1F00
3F00
3E00
7E00
7E00
7C00
FC00
F800
F800
F000
F000
C000
ENDCHAR
STARTCHAR less
ENCODING 60
SWIDTH 487 0
DWIDTH 37 0
BBX 35 31 0 0
BITMAP
0000000180
00000007C0
0000000FE0
0000003F80
000000FE00
000001FC00
000007F000
00000FE000
00001F8000
00007F0000
0000FC0000
0003F80000
0007E00000
001FC00000
003F000000
007E000000
01F8000000
03F0000000
07E0000000
0F80000000
1F00000000
3F00000000
7FE0000000
FFFF800000
7FFFFF0000
1FFFFFF000
03FFFFFC00
0007FFFE00
000007FF00
0000003F00
0000000E00
ENDCHAR
STARTCHAR equal
ENCODING 61
SWIDTH 524 0
DWIDTH 39 0
BBX 36 19 1 10
BITMAP
03FFFFFF80
3FFFFFFFE0
FFFFFFFFF0
7FFFFFFFF0
1FFFC001F0
0000000060
0000000000
0000000000
0000000000
0000000000
0000000000
0000000000
0000000000
0000000000
0000000000
1FFFFFFF00
FFFFFFFF80
7FFFFFFFC0
7FFFFFFF80
ENDCHAR
STARTCHAR greater
ENCODING 62
SWIDTH 403 0
DWIDTH 30 0
BBX 28 35 2 0
BITMAP
20000000
F8000000
FC000000
7E000000
7F800000
1FE00000
0FFC0000
03FF8000
00FFF000
003FFF80
000FFFE0
0001FFF0
000007F0
000003F0
000003F0
000007E0
00000FC0
00001FC0
00003F00
00007E00
0000FC00
0003F800
0007F000
001FC000
003F8000
00FF0000
01FC0000
03F80000
0FE00000
1FC00000
3F800000
7E000000
FC000000
F0000000
E0000000
ENDCHAR
STARTCHAR question
ENCODING 63
SWIDTH 272 0
DWIDTH 20 0
BBX 18 65 1 0
BITMAP
078000
3FF000
7FF800
FFFC00
FFFE00
C03F00
800F00
000780
000780
0003C0
0003C0
0003C0
0003C0
0003C0
0003C0
0007C0
0007C0
0007C0
000F80
000F80
000F80
001F00
003F00
003E00
007E00
007E00
00FC00
00F800
01F800
01F000
03F000
03E000
07E000
07C000
078000
078000
07C000
07F800
07FF80
03FF80
01FF80
003F80
000000
000000
000000
000000
000000
000000
000000
000000
000000
000000
000000
000000
000000
000000
000000
000000
000000
000300
000780
000F80
000F80
000780
000780
ENDCHAR
STARTCHAR at
ENCODING 64
SWIDTH 815 0
DWIDTH 61 0
BBX 58 67 1 0
BITMAP
000001FF00000000
00000FFFE0000000
00007FFFFC000000
0000FFFFFF000000
0003FE01FFC00000
0007F0003FE00000
001FC00007F80000
003F000001FC0000
007E0000007F0000
00F80000001F8000
00F000000007C000
01E000000003F000
03C000000001F800
078000000000FC00
0780000000007C00
0F00000000003E00
0E00000000001F00
1C00000000000F80
1C00000000000F80
3800000000000780
3800000FF80007C0
3800003FFF0003C0
700000FFFFC003C0
700001FE3FE003C0
700007E003F803C0
60000F8001F803C0
60000F0000FC01C0
E0001E00007C01C0
E0003C00003C01C0
E0003800001C01C0
E0007800078803C0
E0007000078003C0
6000F0000FC003C0
7000F0000FC003C0
7000E0000FC00380
7001E0000FC00780
7001E0000FC00780
7801E0000FC00F80
7801E0000FC00F00
3801E0000FC01F00
3C01E0000FC01F00
3C01E0000FE03E00
1C01E0001FF07E00
1E00E0003FF8FC00
1E00F0007EFFF800
0F007801FC7FF000
0F807C03F83FE000
07803FFFE00F8000
07C01FFFC0000000
03E00FFF80000000
01E003FE00000000
01F0000000000000
00F8000000000000
007C000000000000
003E000000000000
003F000000000000
001F800000000000
000FC00000000000
0007E00000000000
0001F80000000000
0000FE0000003E00
00007F800003FE00
00001FE0003FFE00
00000FFF87FFF800
000003FFFFFFE000
000000FFFFFF0000
0000003FFFE00000
ENDCHAR
STARTCHAR A
ENCODING 65
SWIDTH 562 0
DWIDTH 42 0
BBX 39 57 1 0
BITMAP
0001FE0000
000FFF8000
001FFFC000
007FFFF000
00FC03F800
00F000F800
01E0007C00
03C0003E00
03C0001F00
0380000F00
0780000F80
0700000780
0700000780
0F000003C0
0E000003C0
0E000001E0
0E000001E0
0E000001E0
1E000000F0
1C000000F0
1C000000F0
1C00000070
1C00000078
1C00000078
1C00000078
1C00000078
1C00000078
1C0000007C
1C0000003C
1C0000003C
1C0000007C
1C0000007C
3FFFF8007C
7FFFFFFFFC
FFFFFFFFFE
7F8007FFFE
3E0000003E
1E0000003E
1E0000003E
1E0000001E
1E0000001E
1E0000001E
1E0000001E
1E0000001E
1E0000001E
1E0000001E
1E0000001E
1F0000001E
1F0000003E
0F0000003E
0F0000003E
0F0000003E
0F8000003E
0F8000003E
078000007C
078000007C
0380000038
ENDCHAR
STARTCHAR B
ENCODING 66
SWIDTH 741 0
DWIDTH 56 0
BBX 53 52 1 0
BITMAP
0000FF80000000
001FFFF8000000
03FFFFFE000000
1FFFFFFF800000
7FFFFFFFE00000
FE1FF007F00000
F80FC001F80000
C0078000FC0000
0007C0007C0000
0003C0003C0000
0003C0003C0000
0003C0003C0000
0001E0003C0000
0001E0003C0000
0001E000380000
0001E000780000
0000F000F00000
0000F003E00000
0000F03FE00000
0000F0FFC00000
0000F9FF800000
0000F9FFC00000
000078FFF00000
0000787FFC0000
0000781FFE0000
00007C03FF8000
00007C00FFE000
00007C001FF000
00003C0003F800
00003C0000FC00
00003E00003E00
00003E00001F00
00003E00000F80
00003E000007C0
00001E000003E0
00001E000001F0
00001E000001F0
00001F000000F0
00001F000000F8
00001F000000F8
00001F000000F8
00001E000000F8
00001E000000F8
00007E000000F8
0000FE000001F8
0000FF800003F0
0000FFC00007F0
00003FFC003FE0
00001FFFFFFFC0
000007FFFFFF80
000000FFFFFE00
00000003FFF000
ENDCHAR
STARTCHAR C
ENCODING 67
SWIDTH 515 0
DWIDTH 39 0
BBX 36 49 1 0
BITMAP
0000008000
00001FE000
00007FF000
0001FFF000
0003FFF800
0007F8F800
000FE07000
003F807000
007E007000
007C00E000
00F800C000
01F0008000
03C0010000
03C0000000
0780000000
0F00000000
0E00000000
1E00000000
1C00000000
3C00000000
3800000000
3800000000
7000000000
7000000000
7000000000
7000000000
F000000000
F000000000
F000000000
F000000000
F000000000
7000000000
7000000000
7000000000
7800000000
7800000000
7800000000
3C00000000
3C00000000
3E00000000
1E00000000
1F000001E0
0F80007FF0
0FE00FFFE0
07FFFFFFC0
03FFFFFF00
01FFFFE000
00FFFC0000
003FC00000
ENDCHAR
STARTCHAR D
ENCODING 68
SWIDTH 741 0
DWIDTH 56 0
BBX 52 48 1 -1
BITMAP
007FFC00000000
0FFFFFE0000000
3FFFFFFC000000
7FFFFFFF000000
FFC00FFFE00000
78000FBFF80000
60000787FC0000
00000780FF0000
000007803F8000
000007C00FE000
000003C007F000
000003C003F800
000003C000FC00
000003C0007E00
000003C0003F00
000001C0001F00
000001C0000F80
000001E00007C0
000001E00007C0
000001E00003E0
000001E00003E0
000001E00001F0
000001F00001F0
000001F00000F0
000000F00000F0
000000F00000F0
000000F00000F0
000000F00000F0
000000F00000F0
000000F80000F0
000000F80000F0
000000F80000F0
000000F80001F0
000000F80001F0
000000F80003E0
000000F80007E0
000000F80007E0
000000F8000FC0
00000078003F80
00000070007F80
0000000000FF00
00007C0003FE00
00007F801FFC00
00007FFFFFF000
00003FFFFFE000
00001FFFFF8000
000003FFFC0000
0000007FC00000
ENDCHAR
STARTCHAR E
ENCODING 69
SWIDTH 524 0
DWIDTH 39 0
BBX 35 46 1 0
BITMAP
3FFFFFFC00
3FFFFFFF00
7FFFFFFF80
7FFFFFFFC0
78000000C0
7C00000000
7C00000000
7C00000000
7C00000000
7C00000000
7C00000000
7C00000000
7C00000000
7C00000000
7C00000000
7C00000000
7C00001F00
7C0007FF00
7C01FFFE00
7FFFFFF800
FFFFFFC000
7FFFF00000
7F80000000
7800000000
7800000000
7800000000
7800000000
7800000000
7800000000
7800000000
7800000000
7800000000
F800000000
F800000000
F800000000
F800000000
F800000000
F800000000
7800000000
7800000000
780007FFC0
7FFFFFFFE0
3FFFFFFFC0
1FFFFFFF80
0FFFFFFE00
01FFFF8000
ENDCHAR
STARTCHAR F
ENCODING 70
SWIDTH 514 0
DWIDTH 39 0
BBX 49 44 -3 1
BITMAP
0000FFFF800000
00FFFFFFFE0000
0FFFFFFFFFC000
3FFFFFFFFFF800
FFFFFFFFFFFC00
781FF0000FFF00
0007C00001FF00
0007C000003F80
00078000000180
00078000000000
00078000000000
00078000000000
00078000000000
00078000000000
00078000000000
00078000000000
00038000000000
0003C000000000
0003C000000000
0003C000000000
0003E000000000
0007FFFFE00000
000FFFFFF80000
03FFFFFFF80000
03FFFFFFE00000
01FFFFFF000000
0001F000000000
0001F000000000
0001F000000000
0000F000000000
0000F000000000
0000F000000000
0000F000000000
0000F000000000
0000F000000000
0000F800000000
0000F800000000
0000F800000000
0000F800000000
0000F800000000
00007800000000
00007C00000000
00007C00000000
00007C00000000
ENDCHAR
STARTCHAR G
ENCODING 71
SWIDTH 571 0
DWIDTH 43 0
BBX 40 44 2 -5
BITMAP
0000003FC0
000003FFF0
00000FFFF0
00003FFFF8
0000FF8078
0003F80008
000FE00000
001F800000
003E000000
007C000000
01F8000000
03E0000000
07C0000000
0780000000
0F80000000
1F00000000
1E00000000
3C007800C0
3C007FFFF0
78007FFFF8
78007FFFF8
78001FFFF8
7000000078
F000000038
F000000038
F000000038
7000000078
7000000078
7800000078
78000000F8
3C000000F8
3E000003F8
1F000007F8
1FC0003FF8
0FFFFFFFF8
07FFFFFFF8
03FFFF8078
00FFF80078
0004000078
000000007C
000000007E
000000003F
000000003F
000000001E
ENDCHAR
STARTCHAR H
ENCODING 72
SWIDTH 524 0
DWIDTH 39 0
BBX 36 51 1 0
BITMAP
00000000C0
00000001C0
30000003C0
38000003C0
3800000380
3800000380
3800000380
3800000380
3800000380
3800000380
3800000380
3C00000380
3C00000380
3C00000380
3C00000380
3C00000380
3C00000380
3C00000380
1C00000380
1E000003C0
1E00000FC0
1E00003FC0
1E0000FFC0
1E0003FFC0
1E000FFFC0
1E003FE3C0
1E00FF83C0
1E03FE03C0
1F1FF803C0
1FFFE003C0
1FFF8003C0
1FFE0003C0
7FF00003C0
FFC00003C0
FF800003C0
1F800003C0
0F800003C0
0F800003E0
07800001E0
07800001E0
07800001E0
07800001E0
07800001E0
07800001E0
07800001E0
07800001E0
07800001F0
07800001F0
03800000F0
03800000F0
0000000060
ENDCHAR
STARTCHAR I
ENCODING 73
SWIDTH 167 0
DWIDTH 13 0
BBX 10 42 1 0
BITMAP
4000
E000
E000
F000
F000
7000
7800
7800
7800
3C00
3C00
3C00
3C00
1E00
1E00
1E00
1E00
1E00
0F00
0F00
0F00
0F00
0F00
0F00
0F80
0F80
0780
0780
0780
0780
0780
07C0
07C0
07C0
07C0
03C0
03C0
03C0
03C0
03C0
01C0
00C0
ENDCHAR
STARTCHAR J
ENCODING 74
SWIDTH 439 0
DWIDTH 33 0
BBX 30 53 2 0
BITMAP
00000100
00000300
00000380
00000380
000003C0
000003C0
000003C0
000003C0
000003C0
000001E0
000001E0
000001E0
000001E0
000001E0
000001F0
000001F0
000000F0
000000F0
000000F0
000000F0
000000F0
000000F8
000000F8
000000F8
00000078
00000078
20000078
70000078
E0000078
E0000078
E0000078
F000007C
F000007C
F000007C
7800007C
7800007C
3C00007C
1E00007C
0E00007C
07000078
07800078
03C00078
01E00078
00F00078
00780078
003E0078
001F00F0
000FC0F0
0007F1F0
0003FFE0
0000FFC0
00007FC0
00000F00
ENDCHAR
STARTCHAR K
ENCODING 75
SWIDTH 468 0
DWIDTH 35 0
BBX 32 44 1 0
BITMAP
60000380
60000F80
F0001F00
F0007E00
F000FC00
7001F800
7003F000
7003E000
7807E000
780FC000
781F8000
783F0000
783E0000
387C0000
38F80000
39F00000
3BE00000
3BC00000
3FC00000
3F800000
3F000000
1E000000
1F000000
1F800000
1FC00000
1FE00000
1FF00000
1FF80000
1CFC0000
1C7E0000
1C3F0000
1E1FC000
1E0FE000
1E03F000
1E01FC00
1E00FE00
1E003F80
1E001FE0
1E0007F0
1F0003FC
1F0000FE
0F00007F
0F00001F
0600000F
ENDCHAR
STARTCHAR L
ENCODING 76
SWIDTH 346 0
DWIDTH 26 0
BBX 24 40 1 0
BITMAP
0C0000
1E0000
1E0000
1E0000
1E0000
3E0000
3E0000
3E0000
3E0000
3C0000
3C0000
3C0000
7C0000
7C0000
7C0000
7C0000
780000
780000
780000
780000
780000
780000
780000
780000
780000
780000
F80000
F80000
F80000
F80000
780000
780000
780000
7C0000
3F8000
3FFFF0
1FFFFF
0FFFFF
03FFFF
007FFC
ENDCHAR
STARTCHAR M
ENCODING 77
SWIDTH 534 0
DWIDTH 40 0
BBX 37 46 1 0
BITMAP
7000000180
F8000003C0
FC000003C0
7E000007C0
7E000007C0
3F00000FC0
3F80000FC0
1F80000FC0
1FC0001FC0
0FC0001FC0
0FE0003FC0
0FF0007FC0
0FF800FFC0
0FFC01FF80
0F7FDFFF80
0F3FFFFF80
0F1FFFFF80
0F0FFFC780
0F03FE07C0
0F000003C0
0F000003C0
0F000003C0
1F000003C0
1F000003C0
1F000003C0
1F000003C0
1F000003E0
1F000003E0
1F000003E0
1F000003E0
1F000001E0
1F000001E0
1F000001F0
1F000001F0
1F000001F0
1F000001F0
1F000001F0
1F000001F0
1F000001F8
1F000000F8
1F000000F8
1F000000F8
0F000000F8
0E000000F8
00000000F8
0000000078
ENDCHAR
STARTCHAR N
ENCODING 78
SWIDTH 609 0
DWIDTH 46 0
BBX 42 40 2 0
BITMAP
780000000000
780000000000
780000000000
78000003C000
78000003E000
7C000003E000
3C000003F000
3C000001F800
3E000001F800
3E000001F800
3E000000FC00
3F000000FC00
3F0000007E00
7F0000007E00
7F8000003E00
7F8000001F00
7F8000001F00
7FC000000F00
7FC000000F80
7FE000000780
7FE000000780
79F000000780
78F000000780
7078000007C0
7078000007C0
703C000007C0
F03E000007C0
F01F000007C0
F00F00000780
F00F80000F80
F807C0000F80
F803F0001F00
F801F8003F00
F801FE007E00
F800FFFFFC00
F8003FFFFC00
F8001FFFF000
F8000FFFE000
780001FF0000
700000000000
ENDCHAR
STARTCHAR O
ENCODING 79
SWIDTH 609 0
DWIDTH 46 0
BBX 43 36 1 0
BITMAP
003FE0000000
00FFFC000000
03FFFF800000
07FFFFE00000
0FE07FF80000
1F8007FE0000
1E0000FF0000
3C00003FC000
3C00000FE000
78000007F000
78000001F800
70000000FC00
700000007C00
F00000003E00
F00000001F00
F00000001F00
F00000000F80
F00000000780
7000000007C0
7000000007C0
7800000003C0
7800000003C0
7C00000003E0
3C00000003E0
3E00000003E0
1F00000003C0
1F80000007C0
0FC000000F80
07E000001F80
07F800007F00
03FE0003FE00
01FFC01FFC00
007FFFFFF000
003FFFFFC000
0007FFFE0000
0000FF800000
ENDCHAR
STARTCHAR P
ENCODING 80
SWIDTH 627 0
DWIDTH 47 0
BBX 45 45 1 0
BITMAP
007FF0000000
07FFFFC00000
1FFFFFFC0000
7FFFFFFF8000
FE001FFFE000
F80000FFF800
F800000FFC00
F0000001FF00
700000007F80
600030001FC0
4000700007E0
0000700003E0
0000700001F0
0000780000F0
0000780000F0
0000780000F8
000078000078
000078000078
0000780000F8
0000780000F8
0000780001F0
0000780001F0
0000780003E0
00007C000FE0
00007C003FC0
00003E01FF00
00003FFFFE00
00003FFFF800
00003FFFE000
00003FFF8000
00003FF80000
00003E000000
00003E000000
00001E000000
00001E000000
00001E000000
00001E000000
00001E000000
00001F000000
00000F000000
00000F000000
00000F000000
00000F000000
000006000000
000006000000
ENDCHAR
STARTCHAR Q
ENCODING 81
SWIDTH 642 0
DWIDTH 48 0
BBX 47 48 2 -8
BITMAP
000FF8000000
003FFF000000
00FFFFC00000
01FFFFE00000
03F83FF80000
07C003FC0000
0F8001FF0000
1E0000FF8000
1E00007FC000
3C00007FE000
3C00007BF000
78000071F800
78000070FC00
780000F07E00
F00000E03F00
F00000601F00
F00000000F80
F000000007C0
F000000003C0
F000000003E0
F000000001E0
F000000001F0
F000000000F0
F000060000F0
7000070000F0
780007800070
780007C00070
3C0003E000F0
3C0001E000F0
1E0001F001E0
1F0000F807E0
0F8000FC0FC0
07E0007C3F80
03F800FFFF00
01FE00FFFE00
00FFFFFFFC00
007FFFFFF000
001FFFFFF000
0007FFFFF800
0000FFC0F800
000000003C00
000000001E00
000000000F80
0000000007E0
0000000003F8
0000000001FC
0000000000FE
00000000007C
ENDCHAR
STARTCHAR R
ENCODING 82
SWIDTH 579 0
DWIDTH 43 0
BBX 43 50 -1 -3
BITMAP
000FFF000000
03FFFFF80000
0FFFFFFE0000
3FFFFFFFC000
7FF03FFFE000
7E00001FF000
F8000003FC00
F0000000FC00
F00000007E00
600000003F00
601000001F00
203800000F00
003C00000F00
003C00000F00
003C00001F00
003C00003F00
003C0000FF00
003C0003FE00
003C001FFC00
003E03FFF800
003EFFFFE000
001FFFFF8000
001FFFF80000
001FFFC00000
001FF8000000
001F80000000
001F80000000
001FC0000000
000FE0000000
000FE0000000
000FF0000000
000FF8000000
000F7C000000
00073E000000
00071F000000
00070F800000
000787C00000
000783E00000
000381F00000
000380FC0000
0003C07E0000
0003C01F0000
0001C00FC000
0001C007E000
0001C003F800
0000C001FE00
000100007F00
000000003FC0
000000000FE0
0000000003C0
ENDCHAR
STARTCHAR S
ENCODING 83
SWIDTH 627 0
DWIDTH 47 0
BBX 44 46 1 -1
BITMAP
00003FF80000
0001FFFF8000
0007FFFFE000
000FFE1FF800
003F8003FC00
003C0000FE00
007800003F00
007800001F00
007000000400
007000000000
007800000000
007800000000
007C00000000
003C00000000
003F00000000
001F80000000
000FC0000000
0007F0000000
0001FC000000
00007F000000
00003FE00000
00000FF80000
000003FE0000
000000FF8000
0000003FE000
0000000FF800
00000007FC00
10000001FE00
300000007F80
700000001F80
7800000007C0
F800000003E0
7800000001F0
7800000001F0
7C00000001F0
3E00000001F0
1F00000001F0
0F80000001F0
07C0000001F0
03F8000007E0
01FF00001FC0
007FFFFFFF80
001FFFFFFF00
0003FFFFFC00
00007FFFE000
000000380000
ENDCHAR
STARTCHAR T
ENCODING 84
SWIDTH 581 0
DWIDTH 44 0
BBX 50 46 0 0
BITMAP
FFFFFE00000000
FFFFFFFFF80000
7FFFFFFFFFE000
03FFFFFFFFFE00
0007FFFFFFFF80
000001E007FFC0
000001E0007FC0
000001E00007C0
000001E0000000
000001E0000000
000001E0000000
000000E0000000
000000E0000000
000000E0000000
000000F0000000
000000F0000000
000000F0000000
000000F0000000
000000F0000000
000000F0000000
000000F0000000
000000F0000000
000000F8000000
00000078000000
00000078000000
00000078000000
00000078000000
00000078000000
00000078000000
0000007C000000
0000007C000000
0000007C000000
0000003C000000
0000003C000000
0000003C000000
0000003E000000
0000003E000000
0000003E000000
0000003E000000
0000003F000000
0000001F000000
0000001F800000
0000001F800000
0000001FC00000
0000000FC00000
00000007800000
ENDCHAR
STARTCHAR U
ENCODING 85
SWIDTH 571 0
DWIDTH 43 0
BBX 40 41 2 0
BITMAP
0C00000000
3E00000600
3E00000700
7C00000700
7800000F00
7000000F80
F000000F80
F000000F80
F000000F80
F000000F80
F000000F80
F000000F80
F000000780
F000000780
F000000780
F000000780
F000000780
F0000003C0
F0000003C0
70000003C0
70000003C0
70000001E0
78000001E0
78000001E0
78000001F0
38000001F0
3C000001F0
3C000003F8
1E000003F8
1E000007FC
1F00000FFC
0F00001FFC
0F80003FFE
07C000FE7E
07E003F83E
03F80FF03F
01FFFFC01F
01FFFF800F
00FFFE0006
003FF80000
000FE00000
ENDCHAR
STARTCHAR V
ENCODING 86
SWIDTH 421 0
DWIDTH 32 0
BBX 29 39 1 0
BITMAP
60000030
F0000070
78000078
7C000078
7C0000F8
7E0000F8
3E0000F8
3F0000F8
3F0001F0
1F0001F0
1F8001F0
0F8001F0
0FC001F0
0FC003F0
07E003E0
07E003E0
03E003E0
03F003E0
01F007E0
01F807C0
00F807C0
00FC07C0
00FC07C0
007E0F80
007E0F80
003E0F80
003F0F00
001F0F00
001F9F00
000F9E00
000FDE00
0007FE00
0007FC00
0003FC00
0003F800
0001F800
0001F000
0000E000
0000C000
ENDCHAR
STARTCHAR W
ENCODING 87
SWIDTH 703 0
DWIDTH 53 0
BBX 50 37 1 0
BITMAP
60000000000000
60000000007000
F000000000F000
F000000000F800
F0000000007C00
F0000000007C00
F0000000007E00
F0000000007E00
F0000000003E00
F0000000003F00
F0000000003F00
F0000000001F00
F0000000001F00
F0000400001F80
F8000E00000F80
F8000F00000F80
F8000F000007C0
F8000F000007C0
F8000F000007C0
78000F000003C0
78000F800003C0
78000F800003C0
7C000F800003C0
7C000FC00003C0
3C000FC00003C0
3C001FE00003C0
3E003FF00003C0
1E007FF0000780
1E00FFF8000F80
1F01FC7C001F00
0F83F83E003F00
0FFFF01F80FE00
07FFC00FFFFC00
03FF8007FFF800
01FF0003FFF000
00FC0001FFC000
000000007E0000
ENDCHAR
STARTCHAR X
ENCODING 88
SWIDTH 534 0
DWIDTH 40 0
BBX 38 44 1 -5
BITMAP
0700000000
0780000000
078000003C
03C00000FC
03C00003F8
01E00007F0
01F0000FC0
00F0001F80
00F8003F00
0078007C00
003C00F800
003E01F000
001E03E000
000F0F8000
000FBF0000
0007FE0000
0007FC0000
0003F80000
0003F00000
0007F00000
000FF00000
000FF00000
001FF80000
003FFC0000
007C7C0000
00F83E0000
00F81F0000
01F01F0000
03E00F8000
07C007C000
07C003E000
0F8003F000
1F0001F000
1F0000F800
3E00007C00
3C00003C00
7C00001E00
7800000F00
7800000700
7800000000
F000000000
F000000000
6000000000
4000000000
ENDCHAR
STARTCHAR Y
ENCODING 89
SWIDTH 403 0
DWIDTH 30 0
BBX 28 49 1 -1
BITMAP
E0000000
E0000000
F0000020
F00000F0
780000F0
780000F0
7C0000F0
3E0000F0
3E0001E0
1F0001E0
1F8001E0
0FC003E0
07E003E0
03F007C0
01F807C0
00FE0FC0
007F8F80
003FFF80
000FFF80
0003FF00
0001FF00
00007E00
00003E00
00003E00
00003C00
00007C00
00007800
00007800
0000F800
0000F000
0000F000
0001F000
0001E000
0001E000
0001E000
0001E000
0003C000
0003C000
0003C000
0003C000
0003C000
0003C000
0003C000
0003C000
0003C000
0003C000
0003C000
0003C000
0003C000
ENDCHAR
STARTCHAR Z
ENCODING 90
SWIDTH 571 0
DWIDTH 43 0
BBX 41 46 1 0
BITMAP
0FFFE0000000
3FFFFC000000
7FFFFF000000
FF80FF800000
FC000FC00000
E00003E00000
000001F00000
000000F00000
000000700000
000000780000
000000780000
000000380000
000000380000
000000780000
000000780000
000000780000
000000780000
000000F00000
000000F00000
000001F00000
000003F80000
00001FFFF000
0007FFFFFC00
007FFFFFFC00
00FFFFFFF000
01FFFFE08000
01FC3FC00000
00001F000000
00001E000000
00003C000000
00003C000000
000078000000
0000F0000000
0000F0000000
0001E0000000
0003E0000000
0007C0000000
0007C0000000
000F80000F00
000F8001FF80
000F001FFF80
000F83FFFF00
000FFFFFFE00
000FFFFFF000
0007FFFF0000
0003FFE00000
ENDCHAR
STARTCHAR bracketleft
ENCODING 91
SWIDTH 477 0
DWIDTH 36 0
BBX 40 60 1 -7
BITMAP
0000000F80
000003FF80
00003FFFC0
0001FFFE00
001FFFC000
007FFC0000
03FFE00000
1FFE000000
7FF0000000
7F80000000
FE00000000
7800000000
7C00000000
7C00000000
7C00000000
3C00000000
3E00000000
3E00000000
1E00000000
1F00000000
1F00000000
1F00000000
0F00000000
0F80000000
0F80000000
0780000000
0780000000
0780000000
0780000000
0380000000
03C0000000
03C0000000
03C0000000
03C0000000
03C0000000
01C0000000
01C0000000
01C0000000
01E0000000
01E0000000
01E0000000
00E0000000
00E0000000
00E0000000
00E0000000
00E0000000
00F0000000
00F0000000
00F0000000
00F0000000
00F0000000
00F0000000
0078000000
0078000000
007FFFFFFE
007FFFFFFE
007FFFFFFF
007FFFFFFE
007F000000
0030000000
ENDCHAR
STARTCHAR backslash
ENCODING 92
SWIDTH 430 0
DWIDTH 32 0
BBX 30 41 1 0
BITMAP
80000000
C0000000
E0000000
F0000000
78000000
7C000000
3E000000
3F000000
1F800000
0FC00000
07E00000
07F00000
03F00000
01F80000
00FC0000
007E0000
007F0000
003F8000
001F8000
000FC000
000FE000
0007F000
0003F800
0001FC00
0000FC00
0000FE00
00007F00
00003F80
00001F80
00001FC0
00000FE0
000007E0
000003F0
000001F0
000000F8
000000FC
000000FC
0000007C
0000007C
00000078
00000038
ENDCHAR
STARTCHAR bracketright
ENCODING 93
SWIDTH 430 0
DWIDTH 32 0
BBX 30 69 1 -7
BITMAP
FFF00000
FFFFE000
7FFFFC00
1FFFFE00
00FFFF00
0003FF80
00003F80
00000FC0
000007C0
000007C0
000003C0
000003E0
000003E0
000003E0
000001E0
000001E0
000001E0
000001E0
000001E0
000000E0
000000E0
000000E0
000000F0
000000F0
000000F0
000000F0
000000F0
00000070
00000070
00000070
00000070
00000070
00000070
00000070
00000070
00000070
00000070
00000070
00000070
00000070
00000078
00000078
00000078
00000078
00000078
00000078
00000078
00000078
00000078
00000078
00000078
00000078
00000078
00000078
00000078
00000078
00000078
00000078
0000007C
0000007C
0000007C
0000007C
0000007C
07FFFFFC
0FFFFFFC
0FFFFFFC
0FFFFFFC
0FFFFFFC
07FFFFF8
ENDCHAR
STARTCHAR asciicircum
ENCODING 94
SWIDTH 375 0
DWIDTH 28 0
BBX 20 16 4 39
BITMAP
006000
00F000
00F800
00FC00
01FE00
01FF00
03FF00
03FF80
07FFC0
0F9FE0
1F0FE0
7F07F0
FE03F0
FC01F0
F000F0
000020
ENDCHAR
STARTCHAR underscore
ENCODING 95
SWIDTH 656 0
DWIDTH 49 0
BBX 46 8 2 0
BITMAP
7C0000000000
FFF800000000
7FFFFFFFFFC0
1FFFFFFFFFF8
01FFFFFFFFFC
0007FFFFFFFC
000007FFFFFC
000000007FF8
ENDCHAR
STARTCHAR grave
ENCODING 96
SWIDTH 172 0
DWIDTH 13 0
BBX 11 9 1 33
BITMAP
4000
F800
7C00
3E00
3F00
1FC0
07C0
03E0
01C0
ENDCHAR
STARTCHAR a
ENCODING 97
SWIDTH 505 0
DWIDTH 38 0
BBX 35 37 1 0
BITMAP
000FE00000
001FF80000
003FFE0000
003FFF0000
00383F8000
00200FC000
000007E000
000001F000
000000F800
000000F800
0000007C00
0000003E00
0000003E00
0000003F00
003FF83F00
01FFFF1F00
03FFFFFF80
0FFFFFFF80
1FF003FF80
3F8000FFC0
3E00007FC0
7C00001FC0
7800000FC0
70000007C0
F0000007C0
F0000003E0
70000001E0
70000001E0
78000000C0
7C00000000
3F00000000
1FF001FFE0
0FFFFFFFE0
07FFFFFF80
01FFFFFE00
007FFFE000
0007FE0000
ENDCHAR
STARTCHAR b
ENCODING 98
SWIDTH 497 0
DWIDTH 37 0
BBX 35 48 1 0
BITMAP
1000000000
7000000000
F000000000
F000000000
F000000000
F800000000
F800000000
F800000000
F800000000
7800000000
7800000000
7800000000
7800000000
7800000000
7C00000000
3C00000000
3C00000000
3C00000000
3C00000000
3C00000000
3C00000000
1E00000000
1E00000000
1EFFF00000
1FFFFE0000
1FFFFF8000
1FFFFFE000
1FC03FF800
1F8003FC00
0F8000FE00
0F00003F00
0F00001F80
0F00000F80
0F000007C0
0F000003C0
0F000003E0
0F000001E0
0F800001E0
07800001E0
07C00003E0
07E00007E0
03F0000FC0
03FC003FC0
01FF80FF80
00FFFFFF00
007FFFFE00
003FFFF800
0007FF8000
ENDCHAR
STARTCHAR c
ENCODING 99
SWIDTH 449 0
DWIDTH 34 0
BBX 31 33 1 0
BITMAP
0007F000
003FFE00
00FFFF00
01FFFF80
03F00F80
07C007C0
0F8003C0
1F0001C0
1E000180
3C000180
3C000080
7C000100
78000000
78000000
78000000
F8000000
F8000000
F8000000
F8000000
78000000
78000000
78000000
7C000000
7C000000
3E000000
3F000000
1FC00000
0FF00000
07FF0000
03FFFFFE
01FFFFFE
007FFFF8
0007FFC0
ENDCHAR
STARTCHAR d
ENCODING 100
SWIDTH 524 0
DWIDTH 39 0
BBX 37 55 1 0
BITMAP
000000C000
000000E000
000001F000
000001F000
000000F800
000000F800
000000FC00
000000FC00
000000FE00
0000007E00
0000007E00
0000007F00
0000003F00
0000003F00
0000003F00
0000003F00
0000001F80
0000001F80
0000001F80
0000001F80
0000000F80
007F000F80
01FFE00FC0
03FFF80FC0
07FFFE0FC0
0FFFFF0FC0
0FFFFFCFC0
1FE01FEFC0
3F8007FFC0
3F0001FFC0
3E0000FFC0
7E00007FC0
7C00001FE0
7C00000FE0
7C00000FE0
7800000FE0
F800000FE0
F800000FE0
F800001FE0
F800001FE0
7800003FE0
7800003FE0
7C00007FE0
7C0000FFE0
7C0001FFF0
3E0003F3F0
3E0007F1F0
1F000FE1F0
1F003FC1F0
0FC0FF80F0
0FFFFE00F8
07FFFC0070
03FFF00000
01FFC00000
007E000000
ENDCHAR
STARTCHAR e
ENCODING 101
SWIDTH 515 0
DWIDTH 39 0
BBX 36 39 1 0
BITMAP
0003E00000
001FFC0000
007FFE0000
01FFFF0000
03F81F8000
07E00F8000
0F8007C000
0F0003C000
1E0003C000
1E0001C000
3C0001E000
3C0001E000
780001C000
780003C000
780007C000
78000FC000
78001F8000
F8007F0000
F803FE0000
FBFFFC0000
FBFFF00000
FBFFC00000
79FE000000
7800000000
7800000000
7800000000
3C00000000
3C00000000
3E00000000
1F00000000
0F80000000
0FC0000000
07F0000000
03FF000010
01FFFFFFE0
007FFFFFC0
001FFFFF00
0007FFFC00
0000FFC000
ENDCHAR
STARTCHAR f
ENCODING 102
SWIDTH 376 0
DWIDTH 28 0
BBX 35 53 -1 0
BITMAP
00001F0000
0000FFE000
0001FFF800
0003FFFC00
0007FCFE00
000FC03F00
001F801F80
001E000FC0
003E0007C0
003C0003E0
00380001E0
0078000000
0070000000
0070000000
0070000000
0070000000
00F0000000
00F0000000
00F0000000
00F0000000
00F0000000
00F0000000
00F0000000
00F0000000
00F8000000
00F8000000
00F8000000
00F8000000
00FC000000
07FFFE0000
7FFFFFE000
7FFFFFE000
FFFFFFE000
703EFF8000
003E000000
001F000000
001F000000
001F000000
000F800000
000F800000
0007C00000
0007C00000
0003E00000
0003F00000
0001F00000
0001F80000
0000FC0000
0000FC0000
00007E0000
00007E0000
00003F0000
00001F0000
00000E0000
ENDCHAR
STARTCHAR g
ENCODING 103
SWIDTH 366 0
DWIDTH 27 0
BBX 37 68 -10 -37
BITMAP
0000007800
000003FE00
00000FFE00
00001FFF00
00003FCF80
00007C0780
0000F803C0
0001F003C0
0001E003C0
0003C003E0
0003C003E0
00078003E0
00078001E0
000F0001E0
000F0001F0
000F0001F0
000F0001F0
001F0003F0
001F0003F0
001F0003F0
001F0007F0
000F0007F0
000F800FF0
000FC01FF0
0007F1FFF0
0003FFFFF8
0001FFFFF8
0000FFF1F8
00003FC1F8
00000401F8
00000000F8
00000000F8
00000000F8
00000000F8
00000000F8
00000000F8
00000000F8
0000000078
0000000078
0000000078
0000000078
0000000078
0000000078
0000000078
0000000078
0000000078
0000000078
0000000078
7000000078
F000000078
F000000078
F000000078
F000000078
F000000078
78000000F8
7C000000F0
3E000000F0
3F800001F0
1FE00001F0
0FF80003E0
03FF0003E0
01FFE007E0
007FFE1FC0
003FFFFF80
0007FFFF80
0001FFFF00
00003FFC00
0000006000
ENDCHAR
STARTCHAR h
ENCODING 104
SWIDTH 427 0
DWIDTH 32 0
BBX 30 53 -1 0
BITMAP
20000000
E0000000
F0000000
F0000000
F0000000
78000000
78000000
78000000
7C000000
3C000000
3C000000
3E000000
3E000000
1E000000
1E000000
1E000000
1F000000
1F000000
0F000000
0F07E000
0F3FF800
0FFFFE00
0FFFFF00
0FFFFF80
0FFEFF80
07F00FC0
07C003E0
078001E0
078000F0
078000F0
07800070
07800078
07800078
07800038
07800038
0780003C
0780003C
03C0003C
03C0003C
03C0003C
03C0003C
03C0003C
03C0003C
03C0003C
03E0003C
03E0007C
03E0007C
03E0007C
03E0007C
03E0007C
01E00078
01E00078
01C00030
ENDCHAR
STARTCHAR i
ENCODING 105
SWIDTH 174 0
DWIDTH 13 0
BBX 11 45 1 0
BITMAP
E000
F000
F800
F800
3800
0000
0000
0000
0000
0000
0000
0000
0E00
0E00
0E00
0E00
0E00
0E00
0E00
0E00
0F00
0F00
0F00
0F00
0F00
0F00
0F80
0F80
0F80
0F80
0F80
0F80
0FC0
0FC0
07C0
07C0
07C0
07C0
07E0
07E0
03E0
03E0
03E0
01C0
01C0
ENDCHAR
STARTCHAR j
ENCODING 106
SWIDTH 200 0
DWIDTH 15 0
BBX 25 78 -8 -34
BITMAP
00180000
003C0000
003E0000
003E0000
001E0000
000E0000
00000000
00000000
00000000
00000000
00000000
00000000
00000000
00000000
00010000
00038000
00038000
0003C000
0003C000
0003C000
0003E000
0003E000
0001E000
0001F000
0001F000
0001F000
0001F000
0001F800
0000F800
0000F800
0000F800
0000F800
0000FC00
00007C00
00007C00
00007C00
00007C00
00007C00
00007E00
00003E00
00003E00
00003E00
00003E00
00003E00
00001F00
00001F00
00001F00
00001F00
00001F00
00001F00
00000F00
00000F00
C0000F00
E0000F00
E0000F00
F0000F80
F0000F80
F8000F80
F8000F80
7C000780
7C000780
7E000780
3E000780
3F000780
1F000780
1F800780
0F800780
07C00780
03E00F00
03F00F00
01FC0F00
00FFBF00
007FFF00
001FFE00
000FFE00
0003FE00
0000FC00
00003800
ENDCHAR
STARTCHAR k
ENCODING 107
SWIDTH 403 0
DWIDTH 30 0
BBX 30 46 0 0
BITMAP
C0000000
C0000000
E0000000
E0000000
E0000000
F0000000
70000000
70000000
78000000
78000000
78000000
78000000
3C000600
3C001F00
3C003F00
3C007E00
3C007C00
3E00F800
1E01F000
1E01E000
1E03C000
1E078000
1E0F0000
0F1E0000
0FFC0000
0FF80000
0FF80000
0FF00000
0FE00000
0FE00000
0FE00000
0FC00000
0FE00000
0FE00000
0FF00000
0FF80000
0FFC0000
0FFF0000
0FFFC000
0F8FF800
0F87FF80
0F01FFF8
0F00FFFC
0F003FFC
0F000FF8
0E000000
ENDCHAR
STARTCHAR l
ENCODING 108
SWIDTH 120 0
DWIDTH 9 0
BBX 5 42 2 1
BITMAP
E0
F0
F0
F0
F0
F0
F0
F0
F8
F8
F8
F8
F8
F8
F8
F8
F8
F8
F8
F8
F8
F8
F8
F8
F8
F8
F8
F8
F8
F8
F8
F8
F8
F8
F8
F8
F8
F8
78
70
70
70
ENDCHAR
STARTCHAR m
ENCODING 109
SWIDTH 750 0
DWIDTH 56 0
BBX 52 32 2 0
BITMAP
00000000070000
000000003FE000
00700000FFF800
E3FF8001FFFC00
E7FFE007FFFE00
FFFFF00FF87E00
FFFFF81FC01F00
FFC0FC3F800F80
FF003E7E000F80
FE003FFC0007C0
FE001FF80007C0
FC000FF80003C0
FC000FF00003E0
F80007E00001E0
F80007E00001E0
780007E00001F0
780003E00001F0
780003E00000F0
780003E00000F0
780001E00000F0
780001F00000F0
780001F00000F0
780001F80000F0
7C0000F80000F0
7C0000F80000F0
7C0000780001F0
7C0000780001F0
7C0000300001F0
7C0000000001F0
3C0000000001E0
080000000001E0
000000000001C0
ENDCHAR
STARTCHAR n
ENCODING 110
SWIDTH 459 0
DWIDTH 35 0
BBX 31 33 2 0
BITMAP
0007E000
001FF800
007FFE00
01FFFF00
E7FC7F80
FFE01F80
FF800FC0
FF0007E0
FE0003E0
FC0001F0
FC0001F0
FC0000F0
F80000F8
F8000078
F800007C
F800007C
F800007C
7800003C
7800003E
7C00003E
7C00003E
7C00003E
7C00003E
7C00003E
3E00003E
3E00001E
3E00003E
3E00003E
1F00003E
1F00003C
0F00003C
07000038
03000000
ENDCHAR
STARTCHAR o
ENCODING 111
SWIDTH 487 0
DWIDTH 37 0
BBX 33 31 1 0
BITMAP
0001FE0000
000FFF8000
007FFFE000
00FFFFF000
03FF1FF800
07F007FC00
0FC001FC00
1F00007E00
3E00003F00
3C00001F00
7800000F80
7800000780
7000000780
7000000780
F000000780
F000000780
F000000780
F000000780
7000000F80
7800000F80
7800001F80
7C00003F00
3C00007F00
3E0000FE00
1F0003FC00
1FC00FFC00
0FF87FF000
07FFFFE000
01FFFFC000
007FFF0000
000FF00000
ENDCHAR
STARTCHAR p
ENCODING 112
SWIDTH 520 0
DWIDTH 39 0
BBX 37 53 1 -27
BITMAP
0003FF0000
003FFFE000
00FFFFF800
03FFFFFE00
07FFC1FF00
0FF8003F80
1FC0000FC0
1F800007E0
3F000003E0
3E000001F0
7E000000F0
7E000000F0
7E000000F0
7E000000F0
FE000000F8
FE000000F0
FE780001F0
FE3E0003F0
7E3F800FF0
7E3FF1FFE0
7F1FFFFFC0
7F0FFFFF80
7F03FFFE00
7F007FF000
3F00000000
3F00000000
3F00000000
3F80000000
3F80000000
1F80000000
1F80000000
1F80000000
1F80000000
1FC0000000
0FC0000000
0FC0000000
0FC0000000
0FC0000000
07C0000000
07E0000000
07E0000000
07E0000000
03E0000000
03E0000000
03E0000000
01F0000000
01F0000000
01F0000000
00F0000000
00F0000000
0070000000
0070000000
0020000000
ENDCHAR
STARTCHAR q
ENCODING 113
SWIDTH 412 0
DWIDTH 31 0
BBX 27 61 1 -24
BITMAP
000FF800
003FFE00
00FFFF80
01FE7FC0
03F00FC0
07C003E0
0F8003E0
0F0001E0
1F0001E0
1E0001E0
3C0003E0
3C0003E0
780003E0
780003E0
780007E0
700007C0
700007C0
F00007C0
F00007C0
F00007C0
F00007C0
F00007C0
700007C0
700007C0
780007C0
78000FC0
7C000F80
3E000F80
3F000F80
1F800F80
1FF0FF80
0FFFFF80
07FFFF80
03FFFF80
00FFFF80
00040F80
00000F80
00000780
00000780
00000780
00000780
00000780
00000780
000007C0
000007C0
000007C0
000007C0
000007C0
000007C0
000003C0
000003C0
000003C0
000003C0
000003C0
000003C0
000003C0
000003C0
000003E0
000001E0
000001C0
000000C0
ENDCHAR
STARTCHAR r
ENCODING 114
SWIDTH 346 0
DWIDTH 26 0
BBX 24 34 1 0
BITMAP
000F80
007FF8
03FFFE
6FFFFF
FFC3FF
FF003F
FC0001
FC0000
F80000
F80000
780000
780000
780000
780000
780000
780000
7C0000
3C0000
3C0000
3C0000
3E0000
3E0000
1E0000
1F0000
1F0000
0F0000
0F8000
0F8000
078000
078000
07C000
03C000
038000
010000
ENDCHAR
STARTCHAR s
ENCODING 115
SWIDTH 514 0
DWIDTH 39 0
BBX 35 34 1 0
BITMAP
007FE00000
03FFF80000
07FFFE0000
0FFFFF0000
1FC01F0000
3F00078000
3C00038000
3C00038000
3C00038000
3C00078000
3C00070000
1E00020000
1F00000000
0FC0000000
07FE000000
03FFFF0000
00FFFFF800
000FFFFE00
00000FFF80
0000003FC0
0000000FC0
00000007E0
00000003E0
00000003E0
40000003E0
F8000003E0
7C000003E0
7F000003E0
3FC0000FE0
1FF8003FC0
0FFFFFFF80
03FFFFFF00
00FFFFFC00
0007FFE000
ENDCHAR
STARTCHAR t
ENCODING 116
SWIDTH 328 0
DWIDTH 25 0
BBX 23 47 1 0
BITMAP
007000
00F000
00F800
00F800
00F800
00F800
00F800
00F800
007800
007800
007800
007800
00F800
00F800
00F800
00F800
00F800
3FFFFC
FFFFFE
FFFFFE
7FFFFE
0FFE00
007C00
007C00
007C00
007C00
007C00
007C00
007C00
007C00
007C00
007C00
007C00
007C00
007C00
007C00
007C00
007C00
007C00
007C00
007C00
007C00
003C00
003C00
003C00
001C00
001C00
ENDCHAR
STARTCHAR u
ENCODING 117
SWIDTH 501 0
DWIDTH 38 0
BBX 35 35 1 1
BITMAP
1000000000
7800000000
7800000000
F800000000
F000003800
F000003800
F000003C00
F000003C00
F000003C00
F000003C00
F000003E00
F000003E00
F000003E00
7800003E00
7800003E00
7800003E00
7800003E00
7C00003E00
3C00007E00
3C00007E00
3E00007E00
1E0000FE00
1F0001FF00
1F0001FF00
0F8003FF00
0FC007EF80
07E00F8780
03F01F0780
03FC7E03C0
01FFFC03C0
00FFF803C0
003FF003E0
000FC001E0
00000001E0
00000001E0
ENDCHAR
STARTCHAR v
ENCODING 118
SWIDTH 389 0
DWIDTH 29 0
BBX 27 28 1 0
BITMAP
E0000000
F0000000
F8000000
7C0001E0
7C0003E0
3E0007C0
3E000780
3E000F80
1F000F00
1F001F00
0F001F00
0F803E00
07803E00
07C03C00
03C07C00
03E07C00
01E07800
01F0F800
00F0F800
00F8F000
007DF000
007FE000
003FE000
001FE000
001FC000
000FC000
00078000
00030000
ENDCHAR
STARTCHAR w
ENCODING 119
SWIDTH 656 0
DWIDTH 49 0
BBX 46 32 1 0
BITMAP
100000000000
180000000000
380000000000
380000000000
780000000000
780000000300
780000000380
F800000003C0
F000018001E0
F00003C001E0
F00003C000F0
F00003C000F0
F00003C00078
F00003C00078
F00003C00078
F00003E0007C
F00003E0003C
F00003E0003C
780003E0003C
780003E0003C
780007E0003C
3C0007F0007C
3C000FF0007C
3E001FF8007C
1E003FFC00FC
0F007F7E03F8
0F81FE3FFFF8
07FFFC1FFFF0
03FFF80FFFE0
01FFF007FFC0
007FC001FF80
001F00000000
ENDCHAR
STARTCHAR x
ENCODING 120
SWIDTH 448 0
DWIDTH 34 0
BBX 33 33 0 -4
BITMAP
4000000780
F000000F80
F800003F80
7C00007F00
3E0000FC00
3F0001F800
1F8003F000
0FC00FC000
07E01F8000
03F03F0000
01FCFC0000
00FFF80000
007FF00000
003FE00000
001FC00000
001FC00000
001FF00000
003FF80000
007FFC0000
0071FE0000
00E07F0000
01C03F8000
03C01FC000
03800FE000
078007E000
070003F000
0F0001F800
0E0000FC00
0C0000FC00
0000007E00
0000003E00
0000001F00
0000000E00
ENDCHAR
STARTCHAR y
ENCODING 121
SWIDTH 487 0
DWIDTH 37 0
BBX 34 70 1 -37
BITMAP
0000000C00
6000000C00
6000000C00
E000000E00
E000000E00
F000000E00
F000000E00
F000000F00
F000000F00
F000000F00
7000000F00
7800000F00
7800000F80
7800000F80
7800000F80
7C00000F80
3C00000F80
3C00000F80
3E00000780
1E00000780
1E00000FC0
0F00001FC0
0F80003FC0
0780007FC0
03C000FFC0
03E001FFC0
01F807FFC0
00FFFFE3C0
007FFF83C0
001FFE01C0
000FF801C0
0000C001C0
00000001C0
00000001C0
00000001C0
00000001C0
00000001C0
00000001C0
00000001C0
00000001C0
00000001C0
00000003C0
00000003C0
00000003C0
00000003C0
00000003C0
00000003C0
00000003C0
00000003C0
00000003C0
0000000780
0000000780
0000000780
1000000780
3800000780
3C00000780
3E00000F00
1F00000F00
1F80000F00
0FC0001E00
0FE0001E00
07F0003E00
03FC007C00
01FE00FC00
00FF83F800
003FFFF000
001FFFF000
0007FFE000
0000FF8000
00000C0000
ENDCHAR
STARTCHAR z
ENCODING 122
SWIDTH 459 0
DWIDTH 35 0
BBX 31 39 1 0
BITMAP
001F8000
07FFF000
1FFFFC00
7FFFFE00
7F007E00
FC001F00
78000F00
70000F00
00000F00
00000F00
00000F00
00000F00
00000F00
00001E00
00001E00
00003E00
00003E00
00007C00
000FFFF0
1FFFFFF0
3FFFFFE0
3FFFFC00
3FFFC000
000F8000
001F8000
003F0000
007E0000
00FC0000
00F80000
01F00000
03F00004
03F0000E
03F0007E
07F807FE
07FFFFFE
03FFFFFC
03FFFFF0
00FFFF80
001FF000
ENDCHAR
STARTCHAR braceleft
ENCODING 123
SWIDTH 393 0
DWIDTH 30 0
BBX 29 74 1 -7
BITMAP
0000FC00
0007FF80
001FFFC0
007FFFC0
01FF03C0
03F801E0
07E000C0
0FC00000
1F800000
1F000000
3E000000
7E000000
7C000000
78000000
F8000000
F8000000
F0000000
F0000000
70000000
70000000
70000000
78000000
78000000
3C000000
3E000000
1F000000
0FC00000
0FF00000
07FC0000
03FF0000
01FFE000
007FF800
000FFC00
000FF800
001FFC00
003FFC00
007FFE00
01FFBE00
03F81F00
0FE01F00
3F801F00
3E001F00
38001F00
00001F00
00003F00
00003E00
00007C00
0000FC00
0003F800
0007E000
000FC000
003F8000
007E0000
00FC0000
01F00000
03E00000
07C00000
07800000
0F800000
0F000000
0F000000
0F000000
0F000000
0F000000
0F000000
0F800000
07800000
07C00000
07E00000
03F801F8
01FFFFF0
01FFFFF0
00FFFFC0
003FFC00
ENDCHAR
STARTCHAR bar
ENCODING 124
SWIDTH 149 0
DWIDTH 11 0
BBX 9 49 1 0
BITMAP
8000
E000
E000
E000
F000
7000
7000
7800
7800
7800
3800
3C00
3C00
3C00
1C00
1C00
1E00
1E00
1E00
1E00
1E00
0E00
0E00
0F00
0F00
0F00
0F00
0F00
0F00
0F00
0F00
0F00
0F00
0F00
0F00
0F00
0F00
0F00
0F00
0F00
0F00
0F00
0F00
0F00
0F00
0F80
0F80
0780
0700
ENDCHAR
STARTCHAR braceright
ENCODING 125
SWIDTH 440 0
DWIDTH 33 0
BBX 31 88 0 -17
BITMAP
03C00000
3FFFF800
7FFFFC00
7FFFFF00
7F007F80
78000FC0
7F0007C0
3F0003E0
1F8003E0
000003E0
000001E0
000001E0
000001E0
000003E0
000003E0
000007E0
00000FC0
00001F80
00003F00
00007E00
0000FC00
0001F800
0003F000
0007E000
000F8000
001F0000
003E0000
007C0000
00780000
00F80000
00F80000
00F80000
00780000
007E0000
007FFFC0
003FFFE0
003FFFE0
003FFFE0
003FC000
007C0000
00780000
00780000
00780000
007C0000
003E0000
003F0000
001F8000
000FC000
0007C000
0003E000
0001F000
00007800
00003C00
00003E00
00001E00
00000F00
00000780
00000780
000003C0
000003E0
000001E0
000000F0
000000F0
00000078
00000078
0000007C
0000003C
0000003C
0000001C
0000001E
0000001E
0000001E
0000001E
0000001E
0000001E
0000001E
0000001E
4000003E
E000003C
F000007C
F80000F8
7C0001F8
7F0003F0
3FC00FE0
1FF8FFC0
0FFFFF80
03FFFE00
007FF000
ENDCHAR
STARTCHAR asciitilde
ENCODING 126
SWIDTH 402 0
DWIDTH 30 0
BBX 26 11 2 30
BITMAP
06000100
1FC003C0
7FF007C0
7EF80F80
F07E3E00
E01FFC00
E00FF800
E007F000
E000C000
E0000000
60000000
ENDCHAR
STARTCHAR nonbreakingspace
ENCODING 160
SWIDTH 375 0
DWIDTH 28 0
BBX 1 1 0 0
BITMAP
00
ENDCHAR
STARTCHAR exclamdown
ENCODING 161
SWIDTH 149 0
DWIDTH 11 0
BBX 8 50 2 0
BITMAP
78
FE
FF
FF
FE
7E
00
00
00
00
00
00
00
00
00
00
38
38
78
78
78
78
78
78
78
78
78
78
78
78
78
78
78
78
78
78
78
78
78
78
78
78
78
78
78
78
78
78
78
78
ENDCHAR
STARTCHAR cent
ENCODING 162
SWIDTH 449 0
DWIDTH 34 0
BBX 31 44 1 -4
BITMAP
00030000
00030000
00038000
00038000
00038000
0003C000
0003C000
000FF000
003FFE00
00FFFF00
01FFFF80
03E1EF80
07C1E3C0
0F81E3C0
1F01E1C0
1E01E180
3C01E180
3C01E080
7801E000
7801E000
7801F000
7801F000
F801F000
F801F000
F801F000
F801F000
7801F000
7801F000
7801F000
7C01F000
7C01F000
3E01F000
3F01E000
3F81E000
1FF1E000
0FFFF000
07FFFFFE
03FFFFFE
00FFFFF8
003FFF00
0001E000
0000E000
0000E000
0001C000
ENDCHAR
STARTCHAR sterling
ENCODING 163
SWIDTH 758 0
DWIDTH 57 0
BBX 54 54 1 0
BITMAP
0000000003FE00
000000001FFF80
000000003FFFC0
000000007FFFE0
00000000FE07F0
00000001F801F8
00000003E000F8
00000003C0007C
0000000780003C
0000000780003C
0000000700001C
0000000F00001C
0000000E000008
0000001E000000
0000001C000000
0000001C000000
0000003C000000
0000003C000000
00000078000000
00000078000000
000000FFFFE000
000003FFFFF000
00001FFFFFF000
0003FFFFFFF000
003FFFFFE0F000
007FFFFE000000
007FF3F8000000
007C00F0000000
000000F0000000
000000E0000000
000001E0000000
000001C0000000
000001C0000000
000001C0000000
00000380000000
00000380000000
00000380000000
00000780000000
00000700000000
00000F00000000
00000F00000000
00001E00000000
00001E00000000
00003E00000000
3FFC7E00000000
7FFFFFFFC00000
FFFFFFFFF80000
FFFFFFFFFC0000
FFFFFFFFFE0000
FFFFFFFFFC0000
FFFFC003C00000
7FFF0000000000
3FFC0000000000
0FF00000000000
ENDCHAR
STARTCHAR currency
ENCODING 164
SWIDTH 618 0
DWIDTH 46 0
BBX 41 38 2 2
BITMAP
600000000000
F00000000000
7C0000000780
7E001FF80F80
3F00FFFE3F00
1FC3FFFF7E00
0FEFFFFFFC00
07FFFFFFF800
03FFC01FF000
01FF0003F000
00FC0001F000
01F800007800
01F000003800
03E000003C00
03C000001C00
03C000001C00
038000001C00
078000001E00
078000001E00
078000001E00
038000001C00
038000003C00
03C000003C00
03C000007C00
03C00000F800
01E00000F800
01F00003F000
00F80007E000
00FC000FC000
01FF003F8000
03FFFFFF0000
03EFFFFF8000
07E3FFF7C000
07C03E03E000
0F800001F000
0F000000F800
0F0000007800
0E0000003000
ENDCHAR
STARTCHAR yen
ENCODING 165
SWIDTH 389 0
DWIDTH 29 0
BBX 29 56 1 0
BITMAP
18000000
3C000000
3E000000
3E000078
1F0000F8
1F0000F0
0F0001F0
0F8003E0
078003E0
078007C0
038007C0
03C00F80
03C00F80
01C01F00
01E03F00
00E03E00
00E03E00
00707C00
00707C00
0078F800
003CF800
003EF000
001FF000
001FE000
000FE000
000FC000
0007C000
00078000
00078000
00078000
00078000
FFFFE000
FFFFFF00
3FFFFF80
001FFF00
000F8000
000F8000
000F8000
000F8000
000F8000
3FFFFC00
3FFFFF00
3FFFFF00
0FFFFC00
001F0000
001F0000
001F0000
001F0000
001F0000
001F0000
001F0000
001F0000
001F0000
001F0000
003F0000
003E0000
ENDCHAR
STARTCHAR brokenbar
ENCODING 166
SWIDTH 117 0
DWIDTH 9 0
BBX 4 44 2 -1
BITMAP
E0
E0
F0
F0
F0
F0
F0
F0
F0
F0
F0
F0
F0
F0
F0
F0
F0
F0
F0
00
00
F0
F0
F0
F0
F0
F0
F0
F0
F0
F0
F0
F0
F0
F0
F0
F0
F0
F0
70
70
70
70
10
ENDCHAR
STARTCHAR section
ENCODING 167
SWIDTH 514 0
DWIDTH 39 0
BBX 35 50 3 0
BITMAP
001E000000
01FFF00000
07FFFE0000
0FFFFF8000
1FFFFFE000
3F801FF000
7E0003F800
7C0001FC00
780000FC00
7800007E00
7C00001E00
3C00000600
3E00000000
1F00000000
1FE0000000
07FF800000
03FFFF8000
0FFFFFF800
1FFFFFFE00
7FFFFFFF00
7F80003F80
FC00000FC0
F8000007C0
F8000003E0
F0000003E0
F0000003E0
F0000003E0
F8000003E0
7C000007E0
7F00001FC0
3FFC00FF80
1FFFFFFF00
07FFFFFE00
01FFFFF800
0007FFFC00
000000FE00
0000003F00
0000001F80
0000000F80
0000000F80
E000000F80
F000000F80
7C00000F80
7F00000F80
3F80003F80
1FF800FF00
0FFFFFFE00
03FFFFFC00
00FFFFF000
000FFF8000
ENDCHAR
STARTCHAR dieresis
ENCODING 168
SWIDTH 397 0
DWIDTH 30 0
BBX 19 7 5 32
BITMAP
3C03C0
7E07E0
FE0FE0
FF0FE0
FE0FE0
7E07C0
380380
ENDCHAR
STARTCHAR copyright
ENCODING 169
SWIDTH 667 0
DWIDTH 50 0
BBX 46 42 3 0
BITMAP
0001FE000000
000FFFF00000
003FFFFC0000
007FFFFF0000
00FC0FFFC000
01F0007FE000
03C0001FF800
07800007FC00
0F000E01FE00
1F003FE07F00
1E00FFF03F00
3C01FFFC1F80
3C03F0FC0FC0
7807C03E07C0
780F001E03E0
700F001E01E0
F01E000C00F0
F01C000C00F0
F03C000C0078
E03C00080078
E03C00000078
E03C00000038
E03C0000003C
E03C0000003C
E03C0000003C
F03C0000003C
F03C0000003C
F03E0000003C
F83E0000003C
7C1F0000003C
7C1F8000007C
3E0FFFFFE078
3F07FFFFE1F8
1F81FFFFC3F0
0FC03FFF0FE0
0FF000003FC0
07FC0003FF80
03FF003FFE00
00FFFFFFF800
007FFFFFC000
001FFFFE0000
0003FFC00000
ENDCHAR
STARTCHAR ordfeminine
ENCODING 170
SWIDTH 266 0
DWIDTH 20 0
BBX 17 20 1 17
BITMAP
03C000
07F000
047800
001800
000C00
000E00
000600
010700
1FF700
3FFF00
780F80
600780
C00380
C00180
C00180
600080
700100
3FFF80
1FFE00
03F000
ENDCHAR
STARTCHAR guillemotleft
ENCODING 171
SWIDTH 755 0
DWIDTH 57 0
BBX 52 36 0 0
BITMAP
00000000000020
000000000000F0
000000000003F0
00000000000FE0
00000000003F80
00000001807F00
00000007C0FE00
0000000FE3F800
0000003F87F000
000000FE1FC000
000001FC3F8000
000007F0FE0000
00000FE1FC0000
00001F83F00000
00007F0FC00000
0000FC1F800000
0003F87E000000
0007E0FC000000
001FC1F8000000
003F03F0000000
007E07C0000000
01F80FC0000000
03F01FF0000000
07E03FFF800000
0F801FFFFF0000
1F000FFFFFF800
3F0001FFFFFE00
7FE00007FFFF80
FFFF800007FFC0
7FFFFF00001FC0
1FFFFFF0000780
03FFFFFC000000
0007FFFE000000
000007FF000000
0000003F000000
0000000E000000
ENDCHAR
STARTCHAR logicalnot
ENCODING 172
SWIDTH 369 0
DWIDTH 28 0
BBX 24 11 2 19
BITMAP
7FFFFF
7FFFFF
7FFFFF
7FFFFF
80000F
00000F
00000F
00000F
00000F
00000E
00000E
ENDCHAR
STARTCHAR hyphen_
ENCODING 173
SWIDTH 375 0
DWIDTH 28 0
BBX 24 6 1 18
BITMAP
00FFFC
1FFFFF
7FFFFF
7FFFFF
FFFC3F
F80000
ENDCHAR
STARTCHAR registered
ENCODING 174
SWIDTH 708 0
DWIDTH 53 0
BBX 46 42 3 1
BITMAP
0003FF800000
001FFFF80000
003FFFFE0000
00FFFFFF8000
01F803FFE000
03E0003FF000
07C0000FF800
07800003FC00
0F000000FE00
1E03FF807F00
1E3FFFF81F80
3C7FFFFE0F80
3CFF003F87C0
78F00007C3E0
78E00007C1E0
7041C003E1F0
F041C003E0F0
F003C007E0F0
F003E007E078
E003E00FC078
E003EFFF8038
E001FFFF003C
E001FFF8003C
E001FF80003C
F001F000003C
F001FC00003C
F001FE00003C
F801FF00003C
7801E7C0003C
7C00E3E0003C
3E00E1F0007C
3E00F0F800F8
1F80F03E01F8
1FC0F01F07F0
0FE06007DFE0
07F80003FFC0
03FE0007FF00
01FFC07FFE00
00FFFFFFF000
003FFFFF8000
000FFFFC0000
0000FF000000
ENDCHAR
STARTCHAR macron
ENCODING 175
SWIDTH 287 0
DWIDTH 22 0
BBX 20 6 2 35
BITMAP
000800
1FFFE0
3FFFF0
7FFFF0
7FFFF0
FC0020
ENDCHAR
STARTCHAR degree
ENCODING 176
SWIDTH 254 0
DWIDTH 19 0
BBX 15 21 1 21
BITMAP
00C0
07F0
1FF8
3E78
703C
601C
C00E
C006
C006
8006
8006
8006
8006
C00E
C00E
C01C
603C
7078
3FF0
1FE0
0F80
ENDCHAR
STARTCHAR plusminus
ENCODING 177
SWIDTH 459 0
DWIDTH 35 0
BBX 33 34 1 2
BITMAP
000C000000
000E000000
000E000000
000F000000
000F000000
000F000000
000F800000
0007800000
0007800000
0007800000
0007C00000
0007C00000
0007FC0000
000FFFFE00
01FFFFFF80
3FFFFFFF00
FFFFFFFF00
FFFFFFFE00
FC03E00000
0003E00000
0003E00000
0003E00000
0001E00000
0001E00000
0001E00000
0001E00000
0001E00000
0001E00000
0003FFF800
00FFFFFE00
07FFFFFF00
1FFFFFFF00
1FFE000000
1E00000000
ENDCHAR
STARTCHAR twosuperior
ENCODING 178
SWIDTH 296 0
DWIDTH 22 0
BBX 18 25 1 16
BITMAP
001000
007C00
00FE00
00C600
018700
018300
008300
000300
000380
000380
000380
000380
000300
000300
000700
000700
000600
000E00
700C00
FC1800
FFF800
FFF800
FFFF80
3FFFC0
0003C0
ENDCHAR
STARTCHAR threesuperior
ENCODING 179
SWIDTH 204 0
DWIDTH 15 0
BBX 15 24 0 20
BITMAP
7FC0
FFE0
6070
4030
0030
0030
0070
01E0
0FC0
3F80
3FC0
0FE0
00F0
0038
001C
000C
C00E
C006
E006
7006
3C0E
1FFC
0FF8
03F0
ENDCHAR
STARTCHAR acute
ENCODING 180
SWIDTH 180 0
DWIDTH 14 0
BBX 11 11 1 30
BITMAP
0060
00E0
03E0
07C0
1F80
3F00
7E00
FC00
F800
F000
C000
ENDCHAR
STARTCHAR mu
ENCODING 181
SWIDTH 501 0
DWIDTH 38 0
BBX 35 40 1 -5
BITMAP
3800000000
7800000000
7800000000
F000001800
F000003800
F000003C00
F000003C00
F000003C00
F000003C00
F000003E00
F000003E00
F000003E00
F000003E00
F800003E00
F800003E00
F800003E00
F800003E00
FC00003E00
FC00007E00
FE00007E00
FE0000FE00
FE0000FF00
FF0001FF00
FF8003FF00
FF8007FF80
FFC00FCF80
F7E01FCF80
F7F83F87C0
F3FFFF07C0
F1FFFE07C0
F07FFC03E0
F01FF003E0
F0018003E0
F0000001E0
F0000000C0
F000000000
F000000000
F000000000
F000000000
C000000000
ENDCHAR
STARTCHAR paragraph
ENCODING 182
SWIDTH 413 0
DWIDTH 31 0
BBX 27 40 1 -2
BITMAP
00FFFF00
03FFFF80
0FFFFF80
1FFFFFC0
1FFFFFC0
3FFFFFC0
7FFFFFC0
7FFFFBC0
7FFFF3E0
7FFFF1E0
FFFFF1E0
FFFFF1E0
FFFFF1E0
7FFFF1E0
7FFFF1E0
7FFFF1E0
7FFFE1E0
3FFFE1E0
0001E1E0
0001E1E0
0001E1E0
0001E1E0
0001E1E0
0001E1E0
0001E1E0
0001E1E0
0001E1E0
0001E1E0
0001E1E0
0001E1E0
0001E1E0
0001E1E0
0001E1E0
0001E1E0
0001E1E0
0001E1E0
0000F1C0
0000F1C0
0000E1C0
00000180
ENDCHAR
STARTCHAR periodcentered
ENCODING 183
SWIDTH 212 0
DWIDTH 16 0
BBX 9 9 4 13
BITMAP
1800
7E00
7F00
FF80
FF80
FF80
FF00
7E00
3800
ENDCHAR
STARTCHAR cedilla
ENCODING 184
SWIDTH 445 0
DWIDTH 33 0
BBX 20 25 11 -23
BITMAP
200000
300000
780000
780000
780000
380000
380000
380000
3E0000
1FC000
0FFE00
03FF80
003FC0
0003E0
0001E0
0000F0
0000F0
6000F0
F800F0
3C00F0
3F01E0
1FC3E0
0FFFC0
07FF00
01FC00
ENDCHAR
STARTCHAR onesuperior
ENCODING 185
SWIDTH 197 0
DWIDTH 15 0
BBX 14 29 -1 16
BITMAP
000C
000C
000C
001C
001C
001C
001C
003C
007C
00FC
01F8
03F8
07F8
0E78
1E78
3C78
7878
F070
E070
0070
0070
0070
0070
00F0
00E0
00E0
00E0
00E0
0040
ENDCHAR
STARTCHAR ordmasculine
ENCODING 186
SWIDTH 254 0
DWIDTH 19 0
BBX 15 21 1 21
BITMAP
00C0
07F0
1FF8
3E78
703C
601C
C00E
C006
C006
8006
8006
8006
8006
C00E
C00E
C01C
603C
7078
3FF0
1FE0
0F80
ENDCHAR
STARTCHAR guillemotright
ENCODING 187
SWIDTH 659 0
DWIDTH 49 0
BBX 44 36 2 0
BITMAP
000078000000
20007E000000
F8007F000000
FC003F800000
7E001FE00000
7F800FFC0000
1FE003FF8000
0FFC00FFF000
03FF803FFF00
00FFF00FFFF0
003FFF81FFF0
000FFFE00FF0
0001FFF003F0
000007F003F0
000003F003F0
000003F007E0
000007E00FC0
00000FC01F80
00001FC03F00
00003F007E00
00007E01FC00
0000FC03F800
0003F80FE000
0007F01FC000
001FC03F8000
003F80FE0000
00FF01FC0000
01FC07F00000
03F80FE00000
0FE01FC00000
1FC03F000000
3F807E000000
7E0078000000
FC0070000000
F00000000000
E00000000000
ENDCHAR
STARTCHAR onequarter
ENCODING 188
SWIDTH 626 0
DWIDTH 47 0
BBX 42 57 1 -2
BITMAP
000001000000
000003800000
000003800000
000003000000
000403000000
000C07000000
000C07000000
001C07000000
001C07000000
001C07000000
001C06000000
003C0E000000
007C0E000000
00F80E000000
01F80E000000
03F81C000000
07F81C000000
0F781C000000
1E781C000000
3C783C000000
787838000000
707038000000
E07038000000
407078000000
007070000000
007070000000
007070000000
0060F0000000
00E0E0600000
00E0E0E00000
00E1E0E00000
00E1E1E00000
0041C1C00000
0001C1C00000
0003C3C00000
0003C3800080
0003838001C0
0003830001C0
0007830003C0
0007830003C0
000703000780
000703800F80
000F03801F80
000F01C03F80
000E01E07F80
001E00FFFF80
001E00FFF780
001C007FC380
003C000E0380
003C00000380
003800000380
007800000380
0078000003C0
0070000003C0
0070000003C0
007000000380
002000000000
ENDCHAR
STARTCHAR onehalf
ENCODING 189
SWIDTH 566 0
DWIDTH 42 0
BBX 40 57 0 -4
BITMAP
000000C000
000000C000
000300C000
000701C000
000701C000
000701C000
000701C000
000701C000
000F01C000
000F018000
001E038000
001E038000
003E038000
007E078000
00FE070000
01FE070000
03FE070000
07FE0F0000
0F3E0E0000
0F3C0E0000
1E3C0E0000
3C3C1E0000
783C1C0000
F03C1C03C0
603C3C07E0
003C3C0FF0
003C380C38
0038381C38
0038781C18
003878181C
003870081C
0038F0001C
0038F0001C
0030F0001C
0030E0001C
0031E0001C
0031E0001C
0001E0001C
0001C0001C
0003C0001C
0003C00038
0003800038
0007800038
0007800070
0007000060
000F1F00E0
000F3FE1C0
000F3FFFC0
001E3FFFC0
001E1FFFF8
001E0FFFFF
003C03F8FF
003C00000E
003C000000
0038000000
0038000000
0010000000
ENDCHAR
STARTCHAR threequarters
ENCODING 190
SWIDTH 566 0
DWIDTH 42 0
BBX 40 58 1 -6
BITMAP
0000008000
0000018000
0000018000
0000018000
0000018000
0000038000
0000038000
7FE0038000
7FE0038000
6030038000
6010030000
0010070000
0038070000
0070070000
00E0070000
07C00E0000
3F800E0000
3F800E0000
1FE00E0000
03F01E0000
00781C0000
001C1C6000
000C1C6000
000E3CE000
C00638E000
E00638E000
F00639C000
780679C000
3C0E71C000
1FFC718002
07FC718007
03F0F18006
0000F1800E
0000E1800E
0000E1801E
0001E1801E
0001E1803E
0001C1C07C
0001C0E0FC
0003C0FFFC
0003807FEC
0003807F8C
0003801F0C
000780000E
000700000E
000700000E
000F00000E
000F00000E
000E00000E
001E00000E
001E000006
001C000000
003C000000
003C000000
0038000000
0038000000
0038000000
0010000000
ENDCHAR
STARTCHAR questiondown
ENCODING 191
SWIDTH 272 0
DWIDTH 20 0
BBX 19 56 2 0
BITMAP
780000
7C0000
7C0000
7C0000
380000
000000
000000
000000
000000
000000
000000
000000
000000
000000
000000
000000
000000
000000
000000
000000
7FC000
7FF000
7FFC00
1FFC00
00FC00
003C00
007C00
00FC00
01F800
01F800
03F000
07E000
07E000
0FC000
1F8000
1F8000
3F0000
3E0000
7E0000
7C0000
FC0000
F80000
F80000
F80000
F00000
F00000
F00000
F80000
780000
780000
3C0020
3F00E0
1FFFE0
0FFFE0
03FFC0
007E00
ENDCHAR
STARTCHAR Agrave
ENCODING 192
SWIDTH 562 0
DWIDTH 42 0
BBX 39 70 1 0
BITMAP
0001000000
0001E00000
0001F00000
0000FC0000
00007E0000
00003F0000
00001F8000
00000F8000
0000078000
0000000000
0000000000
0000000000
0000000000
0001FE0000
000FFF8000
001FFFC000
007FFFF000
00FC03F800
00F000F800
01E0007C00
03C0003E00
03C0001F00
0380000F00
0780000F80
0700000780
0700000780
0F000003C0
0E000003C0
0E000001E0
0E000001E0
0E000001E0
1E000000F0
1C000000F0
1C000000F0
1C00000070
1C00000078
1C00000078
1C00000078
1C00000078
1C00000078
1C0000007C
1C0000003C
1C0000003C
1C0000007C
1C0000007C
3FFFF8007C
7FFFFFFFFC
FFFFFFFFFE
7F8007FFFE
3E0000003E
1E0000003E
1E0000003E
1E0000001E
1E0000001E
1E0000001E
1E0000001E
1E0000001E
1E0000001E
1E0000001E
1E0000001E
1F0000001E
1F0000003E
0F0000003E
0F0000003E
0F0000003E
0F8000003E
0F8000003E
078000007C
078000007C
0380000038
ENDCHAR
STARTCHAR Aacute
ENCODING 193
SWIDTH 562 0
DWIDTH 42 0
BBX 39 70 1 0
BITMAP
0000180000
0000780000
0000F80000
0003F00000
0007E00000
000FC00000
001F800000
003F000000
003C000000
0078000000
0030000000
0000000000
0000000000
0001FE0000
000FFF8000
001FFFC000
007FFFF000
00FC03F800
00F000F800
01E0007C00
03C0003E00
03C0001F00
0380000F00
0780000F80
0700000780
0700000780
0F000003C0
0E000003C0
0E000001E0
0E000001E0
0E000001E0
1E000000F0
1C000000F0
1C000000F0
1C00000070
1C00000078
1C00000078
1C00000078
1C00000078
1C00000078
1C0000007C
1C0000003C
1C0000003C
1C0000007C
1C0000007C
3FFFF8007C
7FFFFFFFFC
FFFFFFFFFE
7F8007FFFE
3E0000003E
1E0000003E
1E0000003E
1E0000001E
1E0000001E
1E0000001E
1E0000001E
1E0000001E
1E0000001E
1E0000001E
1E0000001E
1F0000001E
1F0000003E
0F0000003E
0F0000003E
0F0000003E
0F8000003E
0F8000003E
078000007C
078000007C
0380000038
ENDCHAR
STARTCHAR Acircumflex
ENCODING 194
SWIDTH 562 0
DWIDTH 42 0
BBX 39 73 1 0
BITMAP
0000E00000
0000F00000
0000F80000
0001F80000
0001FC0000
0001FE0000
0003FF0000
0007FF8000
000FFFC000
001F9FC000
003F0FE000
007E07E000
00FC03F000
01F801F000
00F000E000
0000002000
0001FE0000
000FFF8000
001FFFC000
007FFFF000
00FC03F800
00F000F800
01E0007C00
03C0003E00
03C0001F00
0380000F00
0780000F80
0700000780
0700000780
0F000003C0
0E000003C0
0E000001E0
0E000001E0
0E000001E0
1E000000F0
1C000000F0
1C000000F0
1C00000070
1C00000078
1C00000078
1C00000078
1C00000078
1C00000078
1C0000007C
1C0000003C
1C0000003C
1C0000007C
1C0000007C
3FFFF8007C
7FFFFFFFFC
FFFFFFFFFE
7F8007FFFE
3E0000003E
1E0000003E
1E0000003E
1E0000001E
1E0000001E
1E0000001E
1E0000001E
1E0000001E
1E0000001E
1E0000001E
1E0000001E
1F0000001E
1F0000003E
0F0000003E
0F0000003E
0F0000003E
0F8000003E
0F8000003E
078000007C
078000007C
0380000038
ENDCHAR
STARTCHAR Atilde
ENCODING 195
SWIDTH 562 0
DWIDTH 42 0
BBX 39 68 1 0
BITMAP
0010000400
00FE000E00
01FF803E00
03F7E07C00
07C1F1F800
0780FFF000
07007FE000
07001FC000
0700060000
0300000000
0100000000
0001FE0000
000FFF8000
001FFFC000
007FFFF000
00FC03F800
00F000F800
01E0007C00
03C0003E00
03C0001F00
0380000F00
0780000F80
0700000780
0700000780
0F000003C0
0E000003C0
0E000001E0
0E000001E0
0E000001E0
1E000000F0
1C000000F0
1C000000F0
1C00000070
1C00000078
1C00000078
1C00000078
1C00000078
1C00000078
1C0000007C
1C0000003C
1C0000003C
1C0000007C
1C0000007C
3FFFF8007C
7FFFFFFFFC
FFFFFFFFFE
7F8007FFFE
3E0000003E
1E0000003E
1E0000003E
1E0000001E
1E0000001E
1E0000001E
1E0000001E
1E0000001E
1E0000001E
1E0000001E
1E0000001E
1F0000001E
1F0000003E
0F0000003E
0F0000003E
0F0000003E
0F8000003E
0F8000003E
078000007C
078000007C
0380000038
ENDCHAR
STARTCHAR Adieresis
ENCODING 196
SWIDTH 562 0
DWIDTH 42 0
BBX 39 67 1 0
BITMAP
001E01E000
003F03F000
003F87F000
007F87F000
003F87F800
003F03E000
001C01C000
0000000000
0000000000
0000000000
0001FE0000
000FFF8000
001FFFC000
007FFFF000
00FC03F800
00F000F800
01E0007C00
03C0003E00
03C0001F00
0380000F00
0780000F80
0700000780
0700000780
0F000003C0
0E000003C0
0E000001E0
0E000001E0
0E000001E0
1E000000F0
1C000000F0
1C000000F0
1C00000070
1C00000078
1C00000078
1C00000078
1C00000078
1C00000078
1C0000007C
1C0000003C
1C0000003C
1C0000007C
1C0000007C
3FFFF8007C
7FFFFFFFFC
FFFFFFFFFE
7F8007FFFE
3E0000003E
1E0000003E
1E0000003E
1E0000001E
1E0000001E
1E0000001E
1E0000001E
1E0000001E
1E0000001E
1E0000001E
1E0000001E
1F0000001E
1F0000003E
0F0000003E
0F0000003E
0F0000003E
0F8000003E
0F8000003E
078000007C
078000007C
0380000038
ENDCHAR
STARTCHAR Aring
ENCODING 197
SWIDTH 562 0
DWIDTH 42 0
BBX 39 68 1 0
BITMAP
0001FC0000
0007FE0000
000F1F0000
000C070000
001C038000
0018038000
0018038000
001C078000
001C070000
000F1E0000
0007FC0000
0001FE0000
000FFF8000
001FFFE000
007FFFF000
00FC03F800
00F000FC00
01E0007C00
03C0003E00
03C0001F00
0380000F00
0780000F80
0700000780
0700000780
0F000003C0
0E000003C0
0E000001E0
0E000001E0
0E000001E0
1E000000F0
1C000000F0
1C000000F0
1C00000070
1C00000078
1C00000078
1C00000078
1C00000078
1C00000078
1C0000007C
1C0000003C
1C0000003C
1C0000007C
1C0000007C
3FFFF8007C
7FFFFFFFFC
FFFFFFFFFE
7F8007FFFE
3E0000003E
1E0000003E
1E0000003E
1E0000001E
1E0000001E
1E0000001E
1E0000001E
1E0000001E
1E0000001E
1E0000001E
1E0000001E
1F0000001E
1F0000003E
0F0000003E
0F0000003E
0F0000003E
0F8000003E
0F8000003E
078000007C
078000007C
0380000038
ENDCHAR
STARTCHAR AE
ENCODING 198
SWIDTH 960 0
DWIDTH 72 0
BBX 69 57 1 0
BITMAP
0001FE000000000000
000FFF800000000000
001FFFC00000000000
007FFFF00000000000
00FC03F80000000000
00F000F80000000000
01E0007C0000000000
03C0003E0000000000
03C0001F0000000000
0380000F0000000000
0780000F83E0000000
070000078FFFFFFF80
070000078FFFFFFFE0
0F000003CFFFFFFFF0
0E000003CFFFFFFCF0
0E000001EF00000010
0E000001EF00000000
0E000001EF00000000
1E000000FF00000000
1C000000FF00000000
1C000000FF00000000
1C0000007F00000000
1C0000007F00000000
1C0000007F00000000
1C0000007F00000000
1C0000007F00000000
1C0000007F00000000
1C0000007F00000FE0
1C0000003F0003FFC0
1C0000003F80FFFF80
1C0000007FFFFFFE00
1C0000007FFFFFF000
3FFFF8007FFFF00000
7FFFFFFFFFC0000000
FFFFFFFFFF00000000
7F8007FFFF00000000
3E0000003E00000000
1E0000003E00000000
1E0000003E00000000
1E0000001E00000000
1E0000001E00000000
1E0000001E00000000
1E0000001E00000000
1E0000001E00000000
1E0000001E00000000
1E0000001E00000000
1E0000001E00000000
1F0000001E00000000
1F0000003E00000000
0F0000003E00000000
0F0000003E000000E0
0F0000003F0007FFF8
0F8000003FFFFFFFF8
0F8000003FFFFFFFF8
078000007FFFFFFFE0
078000007DFFFFFF00
03800000381FFFC000
ENDCHAR
STARTCHAR Ccedilla
ENCODING 199
SWIDTH 515 0
DWIDTH 39 0
BBX 36 72 1 -23
BITMAP
0000008000
00001FE000
00007FF000
0001FFF000
0003FFF800
0007F8F800
000FE07000
003F807000
007E007000
007C00E000
00F800C000
01F0008000
03C0010000
03C0000000
0780000000
0F00000000
0E00000000
1E00000000
1C00000000
3C00000000
3800000000
3800000000
7000000000
7000000000
7000000000
7000000000
F000000000
F000000000
F000000000
F000000000
F000000000
7000000000
7000000000
7000000000
7800000000
7800000000
7800000000
3C00000000
3C00000000
3E00000000
1E00000000
1F000001E0
0F80007FF0
0FE00FFFE0
07FFFFFFC0
03FFFFFF00
01FFFFE000
00FFFC0000
003FC00000
0038000000
0038000000
0038000000
0038000000
0038000000
003C000000
001E000000
001FC00000
000FFE0000
0003FF8000
00003FC000
000003E000
000001F000
000000F000
000000F000
007000F000
007C00F000
003E00F000
001F00F000
001FC3E000
000FFFC000
0003FF8000
0000FC0000
ENDCHAR
STARTCHAR Egrave
ENCODING 200
SWIDTH 524 0
DWIDTH 39 0
BBX 35 60 1 0
BITMAP
0004000000
0007800000
0007E00000
0003F00000
0001F80000
0000FC0000
00007E0000
00003E0000
00001E0000
0000000000
0000000000
0000000000
0000000000
0000000000
3FFFFFFC00
3FFFFFFF00
7FFFFFFF80
7FFFFFFFC0
78000000C0
7C00000000
7C00000000
7C00000000
7C00000000
7C00000000
7C00000000
7C00000000
7C00000000
7C00000000
7C00000000
7C00000000
7C00001F00
7C0007FF00
7C01FFFE00
7FFFFFF800
FFFFFFC000
7FFFF00000
7F80000000
7800000000
7800000000
7800000000
7800000000
7800000000
7800000000
7800000000
7800000000
7800000000
F800000000
F800000000
F800000000
F800000000
F800000000
F800000000
7800000000
7800000000
780007FFC0
7FFFFFFFE0
3FFFFFFFC0
1FFFFFFF80
0FFFFFFE00
01FFFF8000
ENDCHAR
STARTCHAR Eacute
ENCODING 201
SWIDTH 524 0
DWIDTH 39 0
BBX 35 59 1 0
BITMAP
00000C0000
00001E0000
00007C0000
0000FC0000
0001F80000
0007F00000
000FC00000
000F800000
001F000000
001E000000
001C000000
0000000000
0000000000
3FFFFFFC00
3FFFFFFF00
7FFFFFFF80
7FFFFFFFC0
78000000C0
7C00000000
7C00000000
7C00000000
7C00000000
7C00000000
7C00000000
7C00000000
7C00000000
7C00000000
7C00000000
7C00000000
7C00001F00
7C0007FF00
7C01FFFE00
7FFFFFF800
FFFFFFC000
7FFFF00000
7F80000000
7800000000
7800000000
7800000000
7800000000
7800000000
7800000000
7800000000
7800000000
7800000000
F800000000
F800000000
F800000000
F800000000
F800000000
F800000000
7800000000
7800000000
780007FFC0
7FFFFFFFE0
3FFFFFFFC0
1FFFFFFF80
0FFFFFFE00
01FFFF8000
ENDCHAR
STARTCHAR Ecircumflex
ENCODING 202
SWIDTH 524 0
DWIDTH 39 0
BBX 35 66 1 0
BITMAP
0000300000
0000780000
00007C0000
00007E0000
0000FF0000
0000FF0000
0001FF8000
0001FFC000
0003FFE000
0007CFF000
001F87F000
003F03F800
007F01F800
007E00F800
0078007800
0000001000
0000000000
0000000000
0000000000
0000000000
3FFFFFFC00
3FFFFFFF00
7FFFFFFF80
7FFFFFFFC0
78000000C0
7C00000000
7C00000000
7C00000000
7C00000000
7C00000000
7C00000000
7C00000000
7C00000000
7C00000000
7C00000000
7C00000000
7C00001F00
7C0007FF00
7C01FFFE00
7FFFFFF800
FFFFFFC000
7FFFF00000
7F80000000
7800000000
7800000000
7800000000
7800000000
7800000000
7800000000
7800000000
7800000000
7800000000
F800000000
F800000000
F800000000
F800000000
F800000000
F800000000
7800000000
7800000000
780007FFC0
7FFFFFFFE0
3FFFFFFFC0
1FFFFFFF80
0FFFFFFE00
01FFFF8000
ENDCHAR
STARTCHAR Edieresis
ENCODING 203
SWIDTH 524 0
DWIDTH 39 0
BBX 35 57 1 0
BITMAP
003E03C000
003F07E000
007F07F000
007F0FF000
007F07F000
003E07E000
001C018000
0000000000
0000000000
0000000000
0000000000
3FFFFFFC00
3FFFFFFF00
7FFFFFFF80
7FFFFFFFC0
78000000C0
7C00000000
7C00000000
7C00000000
7C00000000
7C00000000
7C00000000
7C00000000
7C00000000
7C00000000
7C00000000
7C00000000
7C00001F00
7C0007FF00
7C01FFFE00
7FFFFFF800
FFFFFFC000
7FFFF00000
7F80000000
7800000000
7800000000
7800000000
7800000000
7800000000
7800000000
7800000000
7800000000
7800000000
F800000000
F800000000
F800000000
F800000000
F800000000
F800000000
7800000000
7800000000
780007FFC0
7FFFFFFFE0
3FFFFFFFC0
1FFFFFFF80
0FFFFFFE00
01FFFF8000
ENDCHAR
STARTCHAR Igrave
ENCODING 204
SWIDTH 167 0
DWIDTH 13 0
BBX 12 58 -1 0
BITMAP
8000
F000
F800
7C00
3E00
1F80
0F80
07C0
03C0
0000
0000
0000
0000
0000
0000
0000
1000
3800
3800
3C00
3C00
1C00
1E00
1E00
1E00
0F00
0F00
0F00
0F00
0780
0780
0780
0780
0780
03C0
03C0
03C0
03C0
03C0
03C0
03E0
03E0
01E0
01E0
01E0
01E0
01E0
01F0
01F0
01F0
01F0
00F0
00F0
00F0
00F0
00F0
0070
0030
ENDCHAR
STARTCHAR Iacute
ENCODING 205
SWIDTH 167 0
DWIDTH 13 0
BBX 13 55 -2 0
BITMAP
0060
00F0
03E0
07E0
0FC0
1F80
3E00
7C00
F800
F000
E000
0000
0000
0800
1C00
1C00
1E00
1E00
0E00
0F00
0F00
0F00
0780
0780
0780
0780
03C0
03C0
03C0
03C0
03C0
01E0
01E0
01E0
01E0
01E0
01E0
01F0
01F0
00F0
00F0
00F0
00F0
00F0
00F8
00F8
00F8
00F8
0078
0078
0078
0078
0078
0038
0018
ENDCHAR
STARTCHAR Icircumflex
ENCODING 206
SWIDTH 167 0
DWIDTH 13 0
BBX 21 66 -4 0
BITMAP
007000
007800
007C00
007C00
00FE00
00FF00
01FF80
03FFC0
03FFE0
0FCFE0
1F87F0
3F03F0
7E01F8
FC00F8
780078
000010
000000
000000
000000
000000
000000
000000
000000
000000
020000
070000
070000
078000
078000
038000
03C000
03C000
03C000
01E000
01E000
01E000
01E000
00F000
00F000
00F000
00F000
00F000
007800
007800
007800
007800
007800
007800
007C00
007C00
003C00
003C00
003C00
003C00
003C00
003E00
003E00
003E00
003E00
001E00
001E00
001E00
001E00
001E00
000E00
000600
ENDCHAR
STARTCHAR Idieresis
ENCODING 207
SWIDTH 167 0
DWIDTH 13 0
BBX 19 51 -8 0
BITMAP
3C03C0
7E07E0
FE0FE0
FF0FE0
FE0FE0
7E07C0
380380
000000
000000
002000
007000
007000
007800
007800
003800
003C00
003C00
003C00
001E00
001E00
001E00
001E00
000F00
000F00
000F00
000F00
000F00
000780
000780
000780
000780
000780
000780
0007C0
0007C0
0003C0
0003C0
0003C0
0003C0
0003C0
0003E0
0003E0
0003E0
0003E0
0001E0
0001E0
0001E0
0001E0
0001E0
0000E0
000060
ENDCHAR
STARTCHAR Eth
ENCODING 208
SWIDTH 741 0
DWIDTH 56 0
BBX 52 48 1 -1
BITMAP
007FFC00000000
0FFFFFE0000000
3FFFFFFC000000
7FFFFFFF000000
FFC00FFFE00000
78000FBFF80000
60000F87FC0000
00000780FF0000
000007C03F8000
000007C00FE000
000007C007F000
000007C003F800
000003C000FC00
000003C0007E00
000003C0003F00
000003C0001F00
000003C0000F80
000003C00007C0
000001E00007C0
000001E00003E0
00000FFFFC03E0
00003FFFFE01F0
0000FFFFFF01F0
0000FFFFFF00F0
0000FFE00200F0
000100E00000F0
000000F00000F0
000000F00000F0
000000F00000F0
000000F00000F0
000000F80000F0
000000F80000F0
000000F80001F0
000000F80001F0
000000F80003E0
000000F80007E0
000000F80007E0
000000F8000FC0
000000F8003F80
00000070007F80
0000000000FF00
00007C0003FE00
00007F801FFC00
00007FFFFFF000
00003FFFFFE000
00001FFFFF8000
000003FFFC0000
0000007FC00000
ENDCHAR
STARTCHAR Ntilde
ENCODING 209
SWIDTH 609 0
DWIDTH 46 0
BBX 42 52 2 0
BITMAP
000300008000
001FC001C000
003FF003C000
007EFC0F8000
00783F3F0000
00F01FFE0000
00F007FC0000
00E003F80000
00E000400000
006000000000
002000000000
000000000000
780000000000
780000000000
780000000000
78000003C000
78000003E000
7C000003E000
3C000003F000
3C000001F800
3E000001F800
3E000001F800
3E000000FC00
3F000000FC00
3F0000007E00
7F0000007E00
7F8000003E00
7F8000001F00
7F8000001F00
7FC000000F00
7FC000000F80
7FE000000780
7FE000000780
79F000000780
78F000000780
7078000007C0
7078000007C0
703C000007C0
F03E000007C0
F01F000007C0
F00F00000780
F00F80000F80
F807C0000F80
F803F0001F00
F801F8003F00
F801FE007E00
F800FFFFFC00
F8003FFFFC00
F8001FFFF000
F8000FFFE000
780001FF0000
700000000000
ENDCHAR
STARTCHAR Ograve
ENCODING 210
SWIDTH 609 0
DWIDTH 46 0
BBX 43 53 1 0
BITMAP
000020000000
00003C000000
00003E000000
00001F800000
00000FC00000
000007E00000
000003F00000
000001F00000
000000F00000
000000000000
000000000000
000000000000
000000000000
000000000000
000000000000
000000000000
000000000000
003FE0000000
00FFFC000000
03FFFF800000
07FFFFE00000
0FE07FF80000
1F8007FE0000
1E0000FF0000
3C00003FC000
3C00000FE000
78000007F000
78000001F800
70000000FC00
700000007C00
F00000003E00
F00000001F00
F00000001F00
F00000000F80
F00000000780
7000000007C0
7000000007C0
7800000003C0
7800000003C0
7C00000003E0
3C00000003E0
3E00000003E0
1F00000003C0
1F80000007C0
0FC000000F80
07E000001F80
07F800007F00
03FE0003FE00
01FFC01FFC00
007FFFFFF000
003FFFFFC000
0007FFFE0000
0000FF800000
ENDCHAR
STARTCHAR Oacute
ENCODING 211
SWIDTH 609 0
DWIDTH 46 0
BBX 43 52 1 0
BITMAP
000000C00000
000003C00000
000007C00000
00001F800000
00003F000000
00007E000000
0000FC000000
0001F8000000
0001F0000000
0001C0000000
000180000000
000000000000
000000000000
000000000000
000000000000
000000000000
003FE0000000
00FFFC000000
03FFFF800000
07FFFFE00000
0FE07FF80000
1F8007FE0000
1E0000FF0000
3C00003FC000
3C00000FE000
78000007F000
78000001F800
70000000FC00
700000007C00
F00000003E00
F00000001F00
F00000001F00
F00000000F80
F00000000780
7000000007C0
7000000007C0
7800000003C0
7800000003C0
7C00000003E0
3C00000003E0
3E00000003E0
1F00000003C0
1F80000007C0
0FC000000F80
07E000001F80
07F800007F00
03FE0003FE00
01FFC01FFC00
007FFFFFF000
003FFFFFC000
0007FFFE0000
0000FF800000
ENDCHAR
STARTCHAR Ocircumflex
ENCODING 212
SWIDTH 609 0
DWIDTH 46 0
BBX 43 57 1 0
BITMAP
000380000000
0003C0000000
0003E0000000
0007E0000000
0007F0000000
0007F8000000
000FFC000000
001FFE000000
003FFF000000
007E7F000000
00FC3F800000
01F81F800000
03F00F800000
07E007C00000
03C003800000
000000800000
000000000000
000000000000
000000000000
000000000000
000000000000
003FE0000000
00FFFC000000
03FFFF800000
07FFFFE00000
0FE07FF80000
1F8007FE0000
1E0000FF0000
3C00003FC000
3C00000FE000
78000007F000
78000001F800
70000000FC00
700000007C00
F00000003E00
F00000001F00
F00000001F00
F00000000F80
F00000000780
7000000007C0
7000000007C0
7800000003C0
7800000003C0
7C00000003E0
3C00000003E0
3E00000003E0
1F00000003C0
1F80000007C0
0FC000000F80
07E000001F80
07F800007F00
03FE0003FE00
01FFC01FFC00
007FFFFFF000
003FFFFFC000
0007FFFE0000
0000FF800000
ENDCHAR
STARTCHAR Otilde
ENCODING 213
SWIDTH 609 0
DWIDTH 46 0
BBX 43 49 1 0
BITMAP
001800040000
00FE000E0000
01FF803E0000
03F7E07C0000
03C1F9F80000
0780FFF00000
07803FE00000
07001FC00000
070002000000
030000000000
010000000000
000000000000
000000000000
003FE0000000
00FFFC000000
03FFFF800000
07FFFFE00000
0FE07FF80000
1F8007FE0000
1E0000FF0000
3C00003FC000
3C00000FE000
78000007F000
78000001F800
70000000FC00
700000007C00
F00000003E00
F00000001F00
F00000001F00
F00000000F80
F00000000780
7000000007C0
7000000007C0
7800000003C0
7800000003C0
7C00000003E0
3C00000003E0
3E00000003E0
1F00000003C0
1F80000007C0
0FC000000F80
07E000001F80
07F800007F00
03FE0003FE00
01FFC01FFC00
007FFFFFF000
003FFFFFC000
0007FFFE0000
0000FF800000
ENDCHAR
STARTCHAR Odieresis
ENCODING 214
SWIDTH 609 0
DWIDTH 46 0
BBX 43 50 1 0
BITMAP
0003C03C0000
0007E07E0000
000FF0FE0000
000FF0FE0000
000FE0FE0000
0007E07C0000
000380380000
000000000000
000000000000
000000000000
000000000000
000000000000
000000000000
000000000000
003FE0000000
00FFFC000000
03FFFF800000
07FFFFE00000
0FE07FF80000
1F8007FE0000
1E0000FF0000
3C00003FC000
3C00000FE000
78000007F000
78000001F800
70000000FC00
700000007C00
F00000003E00
F00000001F00
F00000001F00
F00000000F80
F00000000780
7000000007C0
7000000007C0
7800000003C0
7800000003C0
7C00000003E0
3C00000003E0
3E00000003E0
1F00000003C0
1F80000007C0
0FC000000F80
07E000001F80
07F800007F00
03FE0003FE00
01FFC01FFC00
007FFFFFF000
003FFFFFC000
0007FFFE0000
0000FF800000
ENDCHAR
STARTCHAR multiply
ENCODING 215
SWIDTH 448 0
DWIDTH 34 0
BBX 22 20 4 4
BITMAP
700018
F8007C
FC00FC
7E01F8
3F03F0
1F8FC0
0FFF80
07FF00
03FE00
01FC00
01FC00
01FE00
03FF00
07CF80
0F87C0
1F07E0
3E03F0
3E01E0
3C0080
080000
ENDCHAR
STARTCHAR Oslash
ENCODING 216
SWIDTH 609 0
DWIDTH 46 0
BBX 43 57 1 -8
BITMAP
000000100000
000000180000
000000380000
000000380000
000000380000
000000780000
000000780000
000000780000
000000780000
000000700000
000000F00000
000000F00000
000000E00000
003FE1E00000
00FFFDE00000
03FFFFE00000
07FFFFE00000
0FE07FF80000
1F8007FE0000
1E0007FF0000
3C0007BFC000
3C000F8FE000
78000F07F000
78000F01F800
70001F00FC00
70001E007C00
F0001E003E00
F0003E001F00
F0003C001F00
F0007C000F80
F0007C000780
7000780007C0
7000F80007C0
7800F80003C0
7800F00003C0
7C01F00003E0
3C01F00003E0
3E01E00003E0
1F03E00003C0
1F83E00007C0
0FC7C0000F80
0FE7C0001F80
07FFC0007F00
03FF8003FE00
01FFC01FFC00
007FFFFFF000
003FFFFFC000
003FFFFE0000
003EFF800000
007E00000000
007C00000000
007C00000000
00F800000000
00F800000000
00F000000000
007000000000
002000000000
ENDCHAR
STARTCHAR Ugrave
ENCODING 217
SWIDTH 571 0
DWIDTH 43 0
BBX 40 53 2 0
BITMAP
0000800000
0001F00000
0000F80000
00007C0000
00007E0000
00003F0000
00000F8000
000007C000
0000038000
0000000000
0000000000
0000000000
0C00000000
3E00000600
3E00000700
7C00000700
7800000F00
7000000F80
F000000F80
F000000F80
F000000F80
F000000F80
F000000F80
F000000F80
F000000780
F000000780
F000000780
F000000780
F000000780
F0000003C0
F0000003C0
70000003C0
70000003C0
70000001E0
78000001E0
78000001E0
78000001F0
38000001F0
3C000001F0
3C000003F8
1E000003F8
1E000007FC
1F00000FFC
0F00001FFC
0F80003FFE
07C000FE7E
07E003F83E
03F80FF03F
01FFFFC01F
01FFFF800F
00FFFE0006
003FF80000
000FE00000
ENDCHAR
STARTCHAR Uacute
ENCODING 218
SWIDTH 571 0
DWIDTH 43 0
BBX 40 52 2 0
BITMAP
0000060000
00000F0000
00001E0000
00007E0000
0000FC0000
0001F80000
0003F00000
0007C00000
000F800000
000F000000
000E000000
0C00000000
3E00000600
3E00000700
7C00000700
7800000F00
7000000F80
F000000F80
F000000F80
F000000F80
F000000F80
F000000F80
F000000F80
F000000780
F000000780
F000000780
F000000780
F000000780
F0000003C0
F0000003C0
70000003C0
70000003C0
70000001E0
78000001E0
78000001E0
78000001F0
38000001F0
3C000001F0
3C000003F8
1E000003F8
1E000007FC
1F00000FFC
0F00001FFC
0F80003FFE
07C000FE7E
07E003F83E
03F80FF03F
01FFFFC01F
01FFFF800F
00FFFE0006
003FF80000
000FE00000
ENDCHAR
STARTCHAR Ucircumflex
ENCODING 219
SWIDTH 571 0
DWIDTH 43 0
BBX 40 66 2 0
BITMAP
0000380000
00003C0000
00003E0000
00007E0000
00007F0000
00007F8000
0000FFC000
0001FFE000
0003FFF000
0007E7F000
000FC3F800
001F81F800
003F00FC00
007E007C00
003C003C00
0000000800
0000000000
0000000000
0000000000
0000000000
0000000000
0000000000
0000000000
0000000000
0000000000
0C00000000
3E00000600
3E00000700
7C00000700
7800000F00
7000000F80
F000000F80
F000000F80
F000000F80
F000000F80
F000000F80
F000000F80
F000000780
F000000780
F000000780
F000000780
F000000780
F0000003C0
F0000003C0
70000003C0
70000003C0
70000001E0
78000001E0
78000001E0
78000001F0
38000001F0
3C000001F0
3C000003F8
1E000003F8
1E000007FC
1F00000FFC
0F00001FFC
0F80003FFE
07C000FE7E
07E003F83E
03F80FF03F
01FFFFC01F
01FFFF800F
00FFFE0006
003FF80000
000FE00000
ENDCHAR
STARTCHAR Udieresis
ENCODING 220
SWIDTH 571 0
DWIDTH 43 0
BBX 40 50 2 0
BITMAP
000F01E000
001F83F000
003F83F800
003F87F800
003F83F800
001F03F000
000E00C000
0000000000
0000000000
0C00000000
3E00000600
3E00000700
7C00000700
7800000F00
7000000F80
F000000F80
F000000F80
F000000F80
F000000F80
F000000F80
F000000F80
F000000780
F000000780
F000000780
F000000780
F000000780
F0000003C0
F0000003C0
70000003C0
70000003C0
70000001E0
78000001E0
78000001E0
78000001F0
38000001F0
3C000001F0
3C000003F8
1E000003F8
1E000007FC
1F00000FFC
0F00001FFC
0F80003FFE
07C000FE7E
07E003F83E
03F80FF03F
01FFFFC01F
01FFFF800F
00FFFE0006
003FF80000
000FE00000
ENDCHAR
STARTCHAR Yacute
ENCODING 221
SWIDTH 403 0
DWIDTH 30 0
BBX 28 63 1 -1
BITMAP
00000200
00000F00
00001E00
00007E00
0000FC00
0001F800
0003F000
0007C000
000F8000
000F0000
000E0000
00000000
00000000
00000000
E0000000
E0000000
F0000020
F00000F0
780000F0
780000F0
7C0000F0
3E0000F0
3E0001E0
1F0001E0
1F8001E0
0FC003E0
07E003E0
03F007C0
01F807C0
00FE0FC0
007F8F80
003FFF80
000FFF80
0003FF00
0001FF00
00007E00
00003E00
00003E00
00003C00
00007C00
00007800
00007800
0000F800
0000F000
0000F000
0001F000
0001E000
0001E000
0001E000
0001E000
0003C000
0003C000
0003C000
0003C000
0003C000
0003C000
0003C000
0003C000
0003C000
0003C000
0003C000
0003C000
0003C000
ENDCHAR
STARTCHAR Thorn
ENCODING 222
SWIDTH 497 0
DWIDTH 37 0
BBX 32 58 4 -12
BITMAP
80000000
F8000000
F8000000
F8000000
F8000000
F8000000
F8000000
F8000000
F0000000
F0000000
F0000000
F0000000
F0000000
F0000000
F0000000
F0000000
F0000000
F0000000
F0000000
F0000000
F0000000
F7FF8000
FFFFF000
FFFFFC00
FFFFFF00
FE01FFC0
FC001FE0
FC0007F0
F80001F8
780000FC
7800007C
7800003E
7800001E
7800001F
7800000F
7C00000F
7C00000F
7E00001F
7F00003F
7F80007E
7FE001FE
7FFC07FC
7FFFFFF8
79FFFFF0
783FFFC0
780FFC00
78000000
78000000
78000000
38000000
38000000
3C000000
3C000000
3C000000
3C000000
3C000000
1C000000
04000000
ENDCHAR
STARTCHAR germandbls
ENCODING 223
SWIDTH 590 0
DWIDTH 44 0
BBX 41 62 2 -10
BITMAP
1FF800000000
3FFF00000000
7FFFE0000000
7FFFF8000000
7FFFFC000000
7F007F000000
FC001F800000
F8000F800000
F80007C00000
F80003C00000
F80003C00000
780003C00000
780003C00000
7C0003C00000
7C0007800000
7C0007800000
7C001F000000
7C007E000000
7C03FC000000
7C1FFC000000
3C1FF8000000
3C1FFC000000
3C1FFF000000
3C07FFC00000
3C01FFE00000
3C007FF80000
1E000FFC0000
1E0001FF0000
1E00003F8000
1E00000FC000
1E000003E000
1E000001F000
0E000000F800
0E0000007C00
0E0000003E00
0E0000001E00
0E0000001F00
0E0000000F00
0E0000000F80
0F0000000F80
0F0000000F80
0F0000000F80
070000001F80
070000003F00
070000007F00
07000007FE00
0701FFFFFC00
0701FFFFF000
0703FFFF8000
0701FFE00000
0F0000000000
0F0000000000
0F8000000000
0F8000000000
0F8000000000
0F8000000000
0F8000000000
1F8000000000
1F8000000000
1F8000000000
1F8000000000
038000000000
ENDCHAR
STARTCHAR agrave
ENCODING 224
SWIDTH 505 0
DWIDTH 38 0
BBX 35 49 1 0
BITMAP
0008000000
000F000000
000F800000
0007C00000
0003F00000
0001F80000
0000F80000
00007C0000
00003C0000
0000000000
0000000000
0000000000
000FE00000
001FF80000
003FFE0000
003FFF0000
00383F8000
00200FC000
000007E000
000001F000
000000F800
000000F800
0000007C00
0000003E00
0000003E00
0000003F00
003FF83F00
01FFFF1F00
03FFFFFF80
0FFFFFFF80
1FF003FF80
3F8000FFC0
3E00007FC0
7C00001FC0
7800000FC0
70000007C0
F0000007C0
F0000003E0
70000001E0
70000001E0
78000000C0
7C00000000
3F00000000
1FF001FFE0
0FFFFFFFE0
07FFFFFF80
01FFFFFE00
007FFFE000
0007FE0000
ENDCHAR
STARTCHAR aacute
ENCODING 225
SWIDTH 505 0
DWIDTH 38 0
BBX 35 52 1 0
BITMAP
00000C0000
00001C0000
00007C0000
0000F80000
0003F00000
0007E00000
000FC00000
001F800000
001F000000
001E000000
001C000000
0000000000
0000000000
0000000000
0000000000
000FE00000
001FF80000
003FFE0000
003FFF0000
00383F8000
00200FC000
000007E000
000001F000
000000F800
000000F800
0000007C00
0000003E00
0000003E00
0000003F00
003FF83F00
01FFFF1F00
03FFFFFF80
0FFFFFFF80
1FF003FF80
3F8000FFC0
3E00007FC0
7C00001FC0
7800000FC0
70000007C0
F0000007C0
F0000003E0
70000001E0
70000001E0
78000000C0
7C00000000
3F00000000
1FF001FFE0
0FFFFFFFE0
07FFFFFF80
01FFFFFE00
007FFFE000
0007FE0000
ENDCHAR
STARTCHAR acircumflex
ENCODING 226
SWIDTH 505 0
DWIDTH 38 0
BBX 35 55 1 0
BITMAP
0000600000
0000780000
0000F80000
0000FC0000
0000FE0000
0001FF0000
0001FF0000
0003FF8000
0007FFC000
000F8FE000
001F87E000
003F03F000
00FE03F000
00FC01F000
00F800F000
0000002000
0000000000
0000000000
000FE00000
001FF80000
003FFE0000
003FFF0000
00383F8000
00200FC000
000007E000
000001F000
000000F800
000000F800
0000007C00
0000003E00
0000003E00
0000003F00
003FF83F00
01FFFF1F00
03FFFFFF80
0FFFFFFF80
1FF003FF80
3F8000FFC0
3E00007FC0
7C00001FC0
7800000FC0
70000007C0
F0000007C0
F0000003E0
70000001E0
70000001E0
78000000C0
7C00000000
3F00000000
1FF001FFE0
0FFFFFFFE0
07FFFFFF80
01FFFFFE00
007FFFE000
0007FE0000
ENDCHAR
STARTCHAR atilde
ENCODING 227
SWIDTH 505 0
DWIDTH 38 0
BBX 35 52 1 0
BITMAP
0030000800
01FC001C00
03FF003C00
07EFC0F800
0783F3F000
0F01FFE000
0F007FC000
0E003F8000
0E00040000
0600000000
0200000000
0000000000
0000000000
0000000000
0000000000
000FE00000
001FF80000
003FFE0000
003FFF0000
00383F8000
00200FC000
000007E000
000001F000
000000F800
000000F800
0000007C00
0000003E00
0000003E00
0000003F00
003FF83F00
01FFFF1F00
03FFFFFF80
0FFFFFFF80
1FF003FF80
3F8000FFC0
3E00007FC0
7C00001FC0
7800000FC0
70000007C0
F0000007C0
F0000003E0
70000001E0
70000001E0
78000000C0
7C00000000
3F00000000
1FF001FFE0
0FFFFFFFE0
07FFFFFF80
01FFFFFE00
007FFFE000
0007FE0000
ENDCHAR
STARTCHAR adieresis
ENCODING 228
SWIDTH 505 0
DWIDTH 38 0
BBX 35 48 1 0
BITMAP
003E03C000
003E07E000
007F07F000
007F0FF000
007F07F000
003E07E000
001C018000
0000000000
0000000000
0000000000
0000000000
000FE00000
001FF80000
003FFE0000
003FFF0000
00383F8000
00200FC000
000007E000
000001F000
000000F800
000000F800
0000007C00
0000003E00
0000003E00
0000003F00
003FF83F00
01FFFF1F00
03FFFFFF80
0FFFFFFF80
1FF003FF80
3F8000FFC0
3E00007FC0
7C00001FC0
7800000FC0
70000007C0
F0000007C0
F0000003E0
70000001E0
70000001E0
78000000C0
7C00000000
3F00000000
1FF001FFE0
0FFFFFFFE0
07FFFFFF80
01FFFFFE00
007FFFE000
0007FE0000
ENDCHAR
STARTCHAR aring
ENCODING 229
SWIDTH 505 0
DWIDTH 38 0
BBX 35 49 1 0
BITMAP
0000F80000
0003FC0000
0007FE0000
000E0F0000
001C070000
0018038000
0018038000
0018038000
001C070000
001C0F0000
000FFE0000
0007FC0000
000FE00000
001FF80000
003FFE0000
003FFF0000
00383F8000
00200FC000
000007E000
000001F000
000000F800
000000F800
0000007C00
0000003E00
0000003E00
0000003F00
003FF83F00
01FFFF1F00
03FFFFFF80
0FFFFFFF80
1FF003FF80
3F8000FFC0
3E00007FC0
7C00001FC0
7800000FC0
70000007C0
F0000007C0
F0000003E0
70000001E0
70000001E0
78000000C0
7C00000000
3F00000000
1FF001FFE0
0FFFFFFFE0
07FFFFFF80
01FFFFFE00
007FFFE000
0007FE0000
ENDCHAR
STARTCHAR ae
ENCODING 230
SWIDTH 881 0
DWIDTH 66 0
BBX 64 39 1 -2
BITMAP
000FE000003F8000
001FF80001FFE000
003FFE0007FFF000
003FFF000FFFF800
00383F801F80FC00
00200FC03E007C00
000007E07C003E00
000001F0F8001E00
000000F8F0001E00
000000F9E0001E00
0000007DE0000E00
0000003FC0000E00
0000003FC0001E00
0000003FC0001E00
003FF83FC0003E00
01FFFF1F8000FC00
03FFFFFF8001FC00
0FFFFFFF8007F800
1FF003FF803FF000
3F8000FFDFFFC000
3E00007FDFFF0000
7C00001FDFFC0000
7800000FC7C00000
70000007C0000000
F0000007C0000000
F0000003E0000000
70000003E0000000
70000001E0000000
78000001F0000000
7C000000F8000000
3F0000007C000000
1FF001FFFF000000
0FFFFFFFFFC00000
07FFFFFF9FFC000F
01FFFFFE07FFFFFE
007FFFE003FFFFFC
0007FE0000FFFFF0
00000000003FFFC0
000000000000F800
ENDCHAR
STARTCHAR ccedilla
ENCODING 231
SWIDTH 449 0
DWIDTH 34 0
BBX 31 55 1 -22
BITMAP
000FF000
003FFE00
00FFFF00
01FE7F80
03E00F80
07C003C0
0F8003C0
1F0001C0
1E000180
3C000180
3C000080
78000000
78000000
78000000
78000000
F8000000
F8000000
F8000000
F8000000
78000000
78000000
78000000
7C000000
7C000000
3E000000
3F000000
1FC00000
0FF00000
07FF0000
03FFFFFE
01FFFFFE
007FFFFC
003FFFE0
00380000
00380000
00380000
00380000
00380000
003C0000
001F0000
000FF800
0007FF00
0000FFC0
000007E0
000001E0
000000F0
000000F0
000000F0
00F800F0
007C00F0
003E00F0
001F81E0
000FFFC0
0007FF80
0003FE00
ENDCHAR
STARTCHAR egrave
ENCODING 232
SWIDTH 515 0
DWIDTH 39 0
BBX 36 50 1 0
BITMAP
0030000000
003C000000
001F000000
001F800000
000FC00000
0007E00000
0003F00000
0001F00000
0000700000
0000000000
0000000000
0003E00000
001FFC0000
007FFE0000
01FFFF0000
03F81F8000
07E00F8000
0F8007C000
0F0003C000
1E0003C000
1E0001C000
3C0001E000
3C0001E000
780001C000
780003C000
780007C000
78000FC000
78001F8000
F8007F0000
F803FE0000
FBFFFC0000
FBFFF00000
FBFFC00000
79FE000000
7800000000
7800000000
7800000000
3C00000000
3C00000000
3E00000000
1F00000000
0F80000000
0FC0000000
07F0000000
03FF000010
01FFFFFFE0
007FFFFFC0
001FFFFF00
0007FFFC00
0000FFC000
ENDCHAR
STARTCHAR eacute
ENCODING 233
SWIDTH 515 0
DWIDTH 39 0
BBX 36 53 1 0
BITMAP
0000180000
0000380000
0000F80000
0001F00000
0007E00000
000FC00000
001F800000
003F000000
003E000000
003C000000
0038000000
0000000000
0000000000
0000000000
0003E00000
001FFC0000
007FFE0000
01FFFF0000
03F81F8000
07E00F8000
0F8007C000
0F0003C000
1E0003C000
1E0001C000
3C0001E000
3C0001E000
780001C000
780003C000
780007C000
78000FC000
78001F8000
F8007F0000
F803FE0000
FBFFFC0000
FBFFF00000
FBFFC00000
79FE000000
7800000000
7800000000
7800000000
3C00000000
3C00000000
3E00000000
1F00000000
0F80000000
0FC0000000
07F0000000
03FF000010
01FFFFFFE0
007FFFFFC0
001FFFFF00
0007FFFC00
0000FFC000
ENDCHAR
STARTCHAR ecircumflex
ENCODING 234
SWIDTH 515 0
DWIDTH 39 0
BBX 36 55 1 0
BITMAP
0000700000
0000780000
00007C0000
0000FC0000
0000FE0000
0000FF0000
0001FF8000
0003FFC000
0007FFE000
000FCFE000
001F87F000
003F03F000
007E01F000
00FC00F800
0078007000
0000001000
0003E00000
001FFC0000
007FFE0000
01FFFF0000
03F81F8000
07E00F8000
0F8007C000
0F0003C000
1E0003C000
1E0001C000
3C0001E000
3C0001E000
780001C000
780003C000
780007C000
78000FC000
78001F8000
F8007F0000
F803FE0000
FBFFFC0000
FBFFF00000
FBFFC00000
79FE000000
7800000000
7800000000
7800000000
3C00000000
3C00000000
3E00000000
1F00000000
0F80000000
0FC0000000
07F0000000
03FF000010
01FFFFFFE0
007FFFFFC0
001FFFFF00
0007FFFC00
0000FFC000
ENDCHAR
STARTCHAR edieresis
ENCODING 235
SWIDTH 515 0
DWIDTH 39 0
BBX 36 47 1 0
BITMAP
0078078000
00FC0FC000
01FC1FC000
01FE1FC000
01FC1FC000
00FC0F8000
0070070000
0000000000
0003E00000
001FFC0000
007FFE0000
01FFFF0000
03F81F8000
07E00F8000
0F8007C000
0F0003C000
1E0003C000
1E0001C000
3C0001E000
3C0001E000
780001C000
780003C000
780007C000
78000FC000
78001F8000
F8007F0000
F803FE0000
FBFFFC0000
FBFFF00000
FBFFC00000
79FE000000
7800000000
7800000000
7800000000
3C00000000
3C00000000
3E00000000
1F00000000
0F80000000
0FC0000000
07F0000000
03FF000010
01FFFFFFE0
007FFFFFC0
001FFFFF00
0007FFFC00
0000FFC000
ENDCHAR
STARTCHAR igrave
ENCODING 236
SWIDTH 174 0
DWIDTH 13 0
BBX 11 45 1 0
BITMAP
C000
F800
7C00
7E00
3F00
1F80
0FC0
07C0
01C0
0000
0000
0000
0E00
0E00
0E00
0E00
0E00
0E00
0E00
0E00
0F00
0F00
0F00
0F00
0F00
0F00
0F80
0F80
0F80
0F80
0F80
0F80
0FC0
0FC0
07C0
07C0
07C0
07C0
07E0
07E0
03E0
03E0
03E0
01C0
01C0
ENDCHAR
STARTCHAR iacute
ENCODING 237
SWIDTH 174 0
DWIDTH 13 0
BBX 13 47 -1 0
BITMAP
0020
00F0
01F0
07E0
0FC0
1F80
3F00
7E00
F800
F000
E000
4000
0000
0000
0380
0380
0380
0380
0380
0380
0380
0380
03C0
03C0
03C0
03C0
03C0
03C0
03E0
03E0
03E0
03E0
03E0
03E0
03F0
03F0
01F0
01F0
01F0
01F0
01F8
01F8
00F8
00F8
00F8
0070
0070
ENDCHAR
STARTCHAR icircumflex
ENCODING 238
SWIDTH 174 0
DWIDTH 13 0
BBX 21 55 -4 0
BITMAP
003000
007800
007C00
007E00
00FE00
00FF00
01FF80
01FFC0
03FFE0
07CFF0
1F87F0
3F03F8
7E01F8
FC00F8
780078
000010
000000
000000
000000
000000
000000
000000
007000
007000
007000
007000
007000
007000
007000
007000
007800
007800
007800
007800
007800
007800
007C00
007C00
007C00
007C00
007C00
007C00
007E00
007E00
003E00
003E00
003E00
003E00
003F00
003F00
001F00
001F00
001F00
000E00
000E00
ENDCHAR
STARTCHAR idieresis
ENCODING 239
SWIDTH 174 0
DWIDTH 13 0
BBX 20 44 -4 0
BITMAP
180180
3E07C0
7E07E0
FF0FF0
FF0FF0
7E07E0
3C07C0
000000
000000
000000
000000
007000
007000
007000
007000
007000
007000
007000
007000
007800
007800
007800
007800
007800
007800
007C00
007C00
007C00
007C00
007C00
007C00
007E00
007E00
003E00
003E00
003E00
003E00
003F00
003F00
001F00
001F00
001F00
000E00
000E00
ENDCHAR
STARTCHAR eth
ENCODING 240
SWIDTH 407 0
DWIDTH 31 0
BBX 28 41 2 -1
BITMAP
1C000000
7FE00000
FFF80000
FFFC0000
F3FF0040
E07F81E0
001FC3F0
000FFFF0
0003FFF0
0007FFC0
003FFF80
01FFFE00
01FFBE00
00FE1F00
00F80F00
00600F80
00000780
000007C0
007FC7C0
03FFFFC0
0FFFFFC0
1FC0FFE0
3F000FE0
3E0003E0
7C0001E0
780000E0
F00000F0
F00000F0
F00000E0
F00000E0
F00001E0
F00001E0
F80003E0
F80003C0
7C0007C0
3F001F80
3FFDFF80
0FFFFF00
07FFFE00
01FFFC00
001FE000
ENDCHAR
STARTCHAR ntilde
ENCODING 241
SWIDTH 459 0
DWIDTH 35 0
BBX 31 47 2 0
BITMAP
03000080
1FC001C0
3FF003C0
7EFC0F80
783F3F00
F01FFE00
F007FC00
E003F800
E0004000
60000000
20000000
00000000
00000000
00000000
0007E000
001FF800
007FFE00
01FFFF00
E7FC7F80
FFE01F80
FF800FC0
FF0007E0
FE0003E0
FC0001F0
FC0001F0
FC0000F0
F80000F8
F8000078
F800007C
F800007C
F800007C
7800003C
7800003E
7C00003E
7C00003E
7C00003E
7C00003E
7C00003E
3E00003E
3E00001E
3E00003E
3E00003E
1F00003E
1F00003C
0F00003C
07000038
03000000
ENDCHAR
STARTCHAR ograve
ENCODING 242
SWIDTH 487 0
DWIDTH 37 0
BBX 33 42 1 0
BITMAP
0006000000
0007800000
0003E00000
0003F00000
0001F80000
0000FC0000
00007E0000
00003E0000
00000E0000
0000000000
0000000000
0001FE0000
000FFF8000
007FFFE000
00FFFFF000
03FF1FF800
07F007FC00
0FC001FC00
1F00007E00
3E00003F00
3C00001F00
7800000F80
7800000780
7000000780
7000000780
F000000780
F000000780
F000000780
F000000780
7000000F80
7800000F80
7800001F80
7C00003F00
3C00007F00
3E0000FE00
1F0003FC00
1FC00FFC00
0FF87FF000
07FFFFE000
01FFFFC000
007FFF0000
000FF00000
ENDCHAR
STARTCHAR oacute
ENCODING 243
SWIDTH 487 0
DWIDTH 37 0
BBX 33 45 1 0
BITMAP
00000C0000
00003C0000
00007C0000
0001F80000
0003F00000
0007E00000
000FC00000
001F800000
001E000000
003C000000
0018000000
0000000000
0000000000
0000000000
0001FE0000
000FFF8000
007FFFE000
00FFFFF000
03FF1FF800
07F007FC00
0FC001FC00
1F00007E00
3E00003F00
3C00001F00
7800000F80
7800000780
7000000780
7000000780
F000000780
F000000780
F000000780
F000000780
7000000F80
7800000F80
7800001F80
7C00003F00
3C00007F00
3E0000FE00
1F0003FC00
1FC00FFC00
0FF87FF000
07FFFFE000
01FFFFC000
007FFF0000
000FF00000
ENDCHAR
STARTCHAR ocircumflex
ENCODING 244
SWIDTH 487 0
DWIDTH 37 0
BBX 33 50 1 0
BITMAP
0000C00000
0001E00000
0001F00000
0001F80000
0003F80000
0003FC0000
0007FE0000
0007FF0000
000FFF8000
001F3FC000
007E1FC000
00FC0FE000
01F807E000
03F003E000
01E001E000
0000004000
0000000000
0000000000
0000000000
0001FE0000
000FFF8000
007FFFE000
00FFFFF000
03FF1FF800
07F007FC00
0FC001FC00
1F00007E00
3E00003F00
3C00001F00
7800000F80
7800000780
7000000780
7000000780
F000000780
F000000780
F000000780
F000000780
7000000F80
7800000F80
7800001F80
7C00003F00
3C00007F00
3E0000FE00
1F0003FC00
1FC00FFC00
0FF87FF000
07FFFFE000
01FFFFC000
007FFF0000
000FF00000
ENDCHAR
STARTCHAR otilde
ENCODING 245
SWIDTH 487 0
DWIDTH 37 0
BBX 33 41 1 0
BITMAP
0030000800
00FE001E00
03FF803E00
03F7C07C00
0783F1F000
0700FFE000
07007FC000
07001F8000
0700060000
0700000000
0301FE0000
000FFF8000
007FFFE000
00FFFFF000
03FF1FF800
07F007FC00
0FC001FC00
1F00007E00
3E00003F00
3C00001F00
7800000F80
7800000780
7000000780
7000000780
F000000780
F000000780
F000000780
F000000780
7000000F80
7800000F80
7800001F80
7C00003F00
3C00007F00
3E0000FE00
1F0003FC00
1FC00FFC00
0FF87FF000
07FFFFE000
01FFFFC000
007FFF0000
000FF00000
ENDCHAR
STARTCHAR odieresis
ENCODING 246
SWIDTH 487 0
DWIDTH 37 0
BBX 33 39 1 0
BITMAP
007C078000
007E0FC000
00FE0FE000
00FE1FE000
00FE0FE000
007C0FC000
0038030000
0000000000
0001FE0000
000FFF8000
007FFFE000
00FFFFF000
03FF1FF800
07F007FC00
0FC001FC00
1F00007E00
3E00003F00
3C00001F00
7800000F80
7800000780
7000000780
7000000780
F000000780
F000000780
F000000780
F000000780
7000000F80
7800000F80
7800001F80
7C00003F00
3C00007F00
3E0000FE00
1F0003FC00
1FC00FFC00
0FF87FF000
07FFFFE000
01FFFFC000
007FFF0000
000FF00000
ENDCHAR
STARTCHAR divide
ENCODING 247
SWIDTH 335 0
DWIDTH 25 0
BBX 19 19 3 6
BITMAP
00E000
00E000
00F000
00F000
007000
000000
000000
1FFF80
7FFFE0
FFFFE0
FFFFE0
F00000
000000
000000
000000
000000
00E000
00E000
00E000
ENDCHAR
STARTCHAR oslash
ENCODING 248
SWIDTH 487 0
DWIDTH 37 0
BBX 33 35 1 0
BITMAP
0000004000
000000F000
000001F000
000001E000
0001FFE000
001FFFE000
007FFFE000
01FFFFF000
03FF1FF800
07F00FFC00
0FC01FFC00
1F003E7E00
3E003E3F00
3C007C1F00
7800FC0F80
7800F80780
7001F00780
7003F00780
F003E00780
F007C00780
F00FC00780
F00F800780
701F000F80
783F000F80
783E001F80
7C7C003F00
3CFC007F00
3FF800FE00
1FF003FC00
1FE00FFC00
0FF83FF800
0FFFFFE000
1FFFFFC000
1FFFFF0000
0E0FF80000
ENDCHAR
STARTCHAR ugrave
ENCODING 249
SWIDTH 501 0
DWIDTH 38 0
BBX 35 50 1 1
BITMAP
0040000000
0078000000
007C000000
003F000000
001F800000
000FC00000
0007E00000
0003E00000
0001E00000
0000000000
0000000000
0000000000
0000000000
0000000000
0000000000
1000000000
7800000000
7800000000
F800000000
F000003800
F000003800
F000003C00
F000003C00
F000003C00
F000003C00
F000003E00
F000003E00
F000003E00
7800003E00
7800003E00
7800003E00
7800003E00
7C00003E00
3C00007E00
3C00007E00
3E00007E00
1E0000FE00
1F0001FF00
1F0001FF00
0F8003FF00
0FC007EF80
07E00F8780
03F01F0780
03FC7E03C0
01FFFC03C0
00FFF803C0
003FF003E0
000FC001E0
00000001E0
00000001E0
ENDCHAR
STARTCHAR uacute
ENCODING 250
SWIDTH 501 0
DWIDTH 38 0
BBX 35 50 1 1
BITMAP
00000C0000
00001C0000
00007C0000
0000F80000
0003F00000
0007E00000
000FC00000
001F800000
001F000000
001E000000
001C000000
0000000000
0000000000
0000000000
0000000000
1000000000
7800000000
7800000000
F800000000
F000003800
F000003800
F000003C00
F000003C00
F000003C00
F000003C00
F000003E00
F000003E00
F000003E00
7800003E00
7800003E00
7800003E00
7800003E00
7C00003E00
3C00007E00
3C00007E00
3E00007E00
1E0000FE00
1F0001FF00
1F0001FF00
0F8003FF00
0FC007EF80
07E00F8780
03F01F0780
03FC7E03C0
01FFFC03C0
00FFF803C0
003FF003E0
000FC001E0
00000001E0
00000001E0
ENDCHAR
STARTCHAR ucircumflex
ENCODING 251
SWIDTH 501 0
DWIDTH 38 0
BBX 35 54 1 1
BITMAP
0000600000
0000F00000
0000F80000
0000FC0000
0001FE0000
0001FE0000
0003FF0000
0003FF8000
0007FFC000
000F9FE000
001F0FE000
007F07F000
00FE03F000
00FC01F000
00F000F000
0000002000
0000000000
0000000000
0000000000
1000000000
7800000000
7800000000
F800000000
F000003800
F000003800
F000003C00
F000003C00
F000003C00
F000003C00
F000003E00
F000003E00
F000003E00
7800003E00
7800003E00
7800003E00
7800003E00
7C00003E00
3C00007E00
3C00007E00
3E00007E00
1E0000FE00
1F0001FF00
1F0001FF00
0F8003FF00
0FC007EF80
07E00F8780
03F01F0780
03FC7E03C0
01FFFC03C0
00FFF803C0
003FF003E0
000FC001E0
00000001E0
00000001E0
ENDCHAR
STARTCHAR udieresis
ENCODING 252
SWIDTH 501 0
DWIDTH 38 0
BBX 35 44 1 1
BITMAP
00F00F0000
01F81F8000
01FC3F8000
03FC3FC000
01FC3F8000
01F81F8000
00600E0000
0000000000
0000000000
1000000000
7800000000
7800000000
F800000000
F000003800
F000003800
F000003C00
F000003C00
F000003C00
F000003C00
F000003E00
F000003E00
F000003E00
7800003E00
7800003E00
7800003E00
7800003E00
7C00003E00
3C00007E00
3C00007E00
3E00007E00
1E0000FE00
1F0001FF00
1F0001FF00
0F8003FF00
0FC007EF80
07E00F8780
03F01F0780
03FC7E03C0
01FFFC03C0
00FFF803C0
003FF003E0
000FC001E0
00000001E0
00000001E0
ENDCHAR
STARTCHAR yacute
ENCODING 253
SWIDTH 487 0
DWIDTH 37 0
BBX 34 87 1 -37
BITMAP
0000080000
00003C0000
00007C0000
0001F80000
0003F00000
0007E00000
000FC00000
001F000000
001E000000
003C000000
0038000000
0000000000
0000000000
0000000000
0000000000
0000000000
0000000000
0000000C00
6000000C00
6000000C00
E000000E00
E000000E00
F000000E00
F000000E00
F000000F00
F000000F00
F000000F00
7000000F00
7800000F00
7800000F80
7800000F80
7800000F80
7C00000F80
3C00000F80
3C00000F80
3E00000780
1E00000780
1E00000FC0
0F00001FC0
0F80003FC0
0780007FC0
03C000FFC0
03E001FFC0
01F807FFC0
00FFFFE3C0
007FFF83C0
001FFE01C0
000FF801C0
0000C001C0
00000001C0
00000001C0
00000001C0
00000001C0
00000001C0
00000001C0
00000001C0
00000001C0
00000001C0
00000003C0
00000003C0
00000003C0
00000003C0
00000003C0
00000003C0
00000003C0
00000003C0
00000003C0
0000000780
0000000780
0000000780
1000000780
3800000780
3C00000780
3E00000F00
1F00000F00
1F80000F00
0FC0001E00
0FE0001E00
07F0003E00
03FC007C00
01FE00FC00
00FF83F800
003FFFF000
001FFFF000
0007FFE000
0000FF8000
00000C0000
ENDCHAR
STARTCHAR thorn
ENCODING 254
SWIDTH 520 0
DWIDTH 39 0
BBX 36 52 2 -14
BITMAP
1C00000000
3C00000000
3800000000
3800000000
7800000000
7800000000
7800000000
7800000000
7800000000
7800000000
7001FE0000
703FFFE000
70FFFFF800
73FFFFFE00
7FFF83FF00
7FF0007F80
7FC0001F80
7F00000FC0
7E000007C0
7C000003E0
7C000001E0
7C000001E0
7C000001E0
7C000001E0
78000001F0
78000001E0
78000003E0
7C000007E0
FFF0001FE0
FFFFE3FFC0
FFFFFFFF80
FFFFFFFF00
F9FFFFFE00
F81FFFE000
F800000000
F800000000
F800000000
F800000000
F800000000
F800000000
F800000000
F800000000
F800000000
F800000000
F800000000
F800000000
F800000000
F800000000
F800000000
7800000000
7800000000
7800000000
ENDCHAR
STARTCHAR ydieresis
ENCODING 255
SWIDTH 487 0
DWIDTH 37 0
BBX 34 81 1 -37
BITMAP
00F80F0000
00F81F8000
01FC1FC000
01FC3FC000
01FC1FC000
00F81F8000
0070060000
0000000000
0000000000
0000000000
0000000000
0000000C00
6000000C00
6000000C00
E000000E00
E000000E00
F000000E00
F000000E00
F000000F00
F000000F00
F000000F00
7000000F00
7800000F00
7800000F80
7800000F80
7800000F80
7C00000F80
3C00000F80
3C00000F80
3E00000780
1E00000780
1E00000FC0
0F00001FC0
0F80003FC0
0780007FC0
03C000FFC0
03E001FFC0
01F807FFC0
00FFFFE3C0
007FFF83C0
001FFE01C0
000FF801C0
0000C001C0
00000001C0
00000001C0
00000001C0
00000001C0
00000001C0
00000001C0
00000001C0
00000001C0
00000001C0
00000003C0
00000003C0
00000003C0
00000003C0
00000003C0
00000003C0
00000003C0
00000003C0
00000003C0
0000000780
0000000780
0000000780
1000000780
3800000780
3C00000780
3E00000F00
1F00000F00
1F80000F00
0FC0001E00
0FE0001E00
07F0003E00
03FC007C00
01FE00FC00
00FF83F800
003FFFF000
001FFFF000
0007FFE000
0000FF8000
00000C0000
ENDCHAR
STARTCHAR Amacron
ENCODING 256
SWIDTH 562 0
DWIDTH 42 0
BBX 39 68 1 0
BITMAP
0000080000
003FFFC000
007FFFE000
00FFFFE000
00FFFFE000
00FC004000
0000000000
0000000000
0000000000
0000000000
0000000000
0001FE0000
000FFF8000
001FFFC000
007FFFF000
00FC03F800
00F000F800
01E0007C00
03C0003E00
03C0001F00
0380000F00
0780000F80
0700000780
0700000780
0F000003C0
0E000003C0
0E000001E0
0E000001E0
0E000001E0
1E000000F0
1C000000F0
1C000000F0
1C00000070
1C00000078
1C00000078
1C00000078
1C00000078
1C00000078
1C0000007C
1C0000003C
1C0000003C
1C0000007C
1C0000007C
3FFFF8007C
7FFFFFFFFC
FFFFFFFFFE
7F8007FFFE
3E0000003E
1E0000003E
1E0000003E
1E0000001E
1E0000001E
1E0000001E
1E0000001E
1E0000001E
1E0000001E
1E0000001E
1E0000001E
1F0000001E
1F0000003E
0F0000003E
0F0000003E
0F0000003E
0F8000003E
0F8000003E
078000007C
078000007C
0380000038
ENDCHAR
STARTCHAR amacron
ENCODING 257
SWIDTH 505 0
DWIDTH 38 0
BBX 35 49 1 0
BITMAP
0000100000
003FFF8000
00FFFFC000
00FFFFE000
00FFFFE000
01F8004000
0000000000
0000000000
0000000000
0000000000
0000000000
0000000000
000FE00000
001FF80000
003FFE0000
003FFF0000
00383F8000
00200FC000
000007E000
000001F000
000000F800
000000F800
0000007C00
0000003E00
0000003E00
0000003F00
003FF83F00
01FFFF1F00
03FFFFFF80
0FFFFFFF80
1FF003FF80
3F8000FFC0
3E00007FC0
7C00001FC0
7800000FC0
70000007C0
F0000007C0
F0000003E0
70000001E0
70000001E0
78000000C0
7C00000000
3F00000000
1FF001FFE0
0FFFFFFFE0
07FFFFFF80
01FFFFFE00
007FFFE000
0007FE0000
ENDCHAR
STARTCHAR Abreve
ENCODING 258
SWIDTH 562 0
DWIDTH 42 0
BBX 39 71 1 0
BITMAP
0000008000
000700E000
000700E000
000300E000
0003C7C000
0001FFC000
0000FF0000
00003C0000
0000000000
0000000000
0000000000
0000000000
0000000000
0000000000
0001FE0000
000FFF8000
001FFFC000
007FFFF000
00FC03F800
00F000F800
01E0007C00
03C0003E00
03C0001F00
0380000F00
0780000F80
0700000780
0700000780
0F000003C0
0E000003C0
0E000001E0
0E000001E0
0E000001E0
1E000000F0
1C000000F0
1C000000F0
1C00000070
1C00000078
1C00000078
1C00000078
1C00000078
1C00000078
1C0000007C
1C0000003C
1C0000003C
1C0000007C
1C0000007C
3FFFF8007C
7FFFFFFFFC
FFFFFFFFFE
7F8007FFFE
3E0000003E
1E0000003E
1E0000003E
1E0000001E
1E0000001E
1E0000001E
1E0000001E
1E0000001E
1E0000001E
1E0000001E
1E0000001E
1F0000001E
1F0000003E
0F0000003E
0F0000003E
0F0000003E
0F8000003E
0F8000003E
078000007C
078000007C
0380000038
ENDCHAR
STARTCHAR abreve
ENCODING 259
SWIDTH 505 0
DWIDTH 38 0
BBX 35 49 1 0
BITMAP
0000080000
0030070000
0030060000
00380E0000
003E3E0000
001FFC0000
000FF80000
0003C00000
0000000000
0000000000
0000000000
0000000000
000FE00000
001FF80000
003FFE0000
003FFF0000
00383F8000
00200FC000
000007E000
000001F000
000000F800
000000F800
0000007C00
0000003E00
0000003E00
0000003F00
003FF83F00
01FFFF1F00
03FFFFFF80
0FFFFFFF80
1FF003FF80
3F8000FFC0
3E00007FC0
7C00001FC0
7800000FC0
70000007C0
F0000007C0
F0000003E0
70000001E0
70000001E0
78000000C0
7C00000000
3F00000000
1FF001FFE0
0FFFFFFFE0
07FFFFFF80
01FFFFFE00
007FFFE000
0007FE0000
ENDCHAR
STARTCHAR Aogonek
ENCODING 260
SWIDTH 562 0
DWIDTH 42 0
BBX 41 68 1 -11
BITMAP
0001FE000000
000FFF800000
001FFFC00000
007FFFF00000
00FC03F80000
00F000F80000
01E0007C0000
03C0003E0000
03C0001F0000
0380000F0000
0780000F8000
070000078000
070000078000
0F000003C000
0E000003C000
0E000001E000
0E000001E000
0E000001E000
1E000000F000
1C000000F000
1C000000F000
1C0000007000
1C0000007800
1C0000007800
1C0000007800
1C0000007800
1C0000007800
1C0000007C00
1C0000003C00
1C0000003C00
1C0000007C00
1C0000007C00
3FFFF8007C00
7FFFFFFFFC00
FFFFFFFFFE00
7F8007FFFE00
3E0000003E00
1E0000003E00
1E0000003E00
1E0000001E00
1E0000001E00
1E0000001E00
1E0000001E00
1E0000001E00
1E0000001E00
1E0000001E00
1E0000001E00
1F0000001E00
1F0000003E00
0F0000003E00
0F0000003E00
0F0000003E00
0F8000003E00
0F8000007E00
07800000FC00
07800003FC00
0380000FF800
0000000F8000
0000001F0000
0000001E0000
0000003C0000
0000003C0000
0000003C0000
0000003E0000
0000001F8000
0000000FFF80
00000007FF00
000000001F00
ENDCHAR
STARTCHAR aogonek
ENCODING 261
SWIDTH 505 0
DWIDTH 38 0
BBX 35 46 1 -9
BITMAP
000FE00000
001FF80000
003FFE0000
003FFF0000
00383F8000
00200FC000
000007E000
000001F000
000000F800
000000F800
0000007C00
0000003E00
0000003E00
0000003F00
003FF83F00
01FFFF1F00
03FFFFFF80
0FFFFFFF80
1FF003FF80
3F8000FFC0
3E00007FC0
7C00001FC0
7800000FC0
70000007C0
F0000007C0
F0000003E0
70000001E0
70000001E0
78000000C0
7C00000000
3F00000000
1FF001FFE0
0FFFFFFFE0
07FFFFFF80
01FFFFFE00
007FFFE000
0007FF8000
00000F0000
00000F0000
00000E0000
00000E0000
00000F0000
00000FC000
000007FFC0
000003FFC0
0000003F80
ENDCHAR
STARTCHAR Cacute
ENCODING 262
SWIDTH 515 0
DWIDTH 39 0
BBX 36 61 1 0
BITMAP
000000C000
000001C000
000007C000
00000F8000
00003F0000
00007E0000
0000FC0000
0001F80000
0001F00000
0001E00000
0001C00000
0000000000
0000008000
00001FE000
00007FF000
0001FFF000
0003FFF800
0007F8F800
000FE07000
003F807000
007E007000
007C00E000
00F800C000
01F0008000
03C0010000
03C0000000
0780000000
0F00000000
0E00000000
1E00000000
1C00000000
3C00000000
3800000000
3800000000
7000000000
7000000000
7000000000
7000000000
F000000000
F000000000
F000000000
F000000000
F000000000
7000000000
7000000000
7000000000
7800000000
7800000000
7800000000
3C00000000
3C00000000
3E00000000
1E00000000
1F000001E0
0F80007FF0
0FE00FFFE0
07FFFFFFC0
03FFFFFF00
01FFFFE000
00FFFC0000
003FC00000
ENDCHAR
STARTCHAR cacute
ENCODING 263
SWIDTH 449 0
DWIDTH 34 0
BBX 31 49 1 0
BITMAP
00000600
00001E00
00003E00
0000FC00
0001F800
0003F000
0007E000
000FC000
000F8000
000E0000
000C0000
00000000
00000000
00000000
00000000
00000000
0007F000
003FFE00
00FFFF00
01FFFF80
03F00F80
07C007C0
0F8003C0
1F0001C0
1E000180
3C000180
3C000080
7C000100
78000000
78000000
78000000
F8000000
F8000000
F8000000
F8000000
78000000
78000000
78000000
7C000000
7C000000
3E000000
3F000000
1FC00000
0FF00000
07FF0000
03FFFFFE
01FFFFFE
007FFFF8
0007FFC0
ENDCHAR
STARTCHAR Ccircumflex
ENCODING 264
SWIDTH 515 0
DWIDTH 39 0
BBX 36 66 1 0
BITMAP
0000700000
0000780000
00007C0000
0000FC0000
0000FE0000
0000FF0000
0001FF8000
0003FFC000
0007FFE000
000FCFE000
001F87F000
003F03F000
007E01F000
00FC00F800
0078007000
0000001000
0000000000
0000008000
00001FE000
00007FF000
0001FFF000
0003FFF800
0007F8F800
000FE07000
003F807000
007E007000
007C00E000
00F800C000
01F0008000
03C0010000
03C0000000
0780000000
0F00000000
0E00000000
1E00000000
1C00000000
3C00000000
3800000000
3800000000
7000000000
7000000000
7000000000
7000000000
F000000000
F000000000
F000000000
F000000000
F000000000
7000000000
7000000000
7000000000
7800000000
7800000000
7800000000
3C00000000
3C00000000
3E00000000
1E00000000
1F000001E0
0F80007FF0
0FE00FFFE0
07FFFFFFC0
03FFFFFF00
01FFFFE000
00FFFC0000
003FC00000
ENDCHAR
STARTCHAR ccircumflex
ENCODING 265
SWIDTH 449 0
DWIDTH 34 0
BBX 31 55 1 0
BITMAP
00018000
0003C000
0003E000
0003F000
0007F800
0007FC00
000FFC00
000FFE00
001FFF00
003E7F80
007C3F80
01FC1FC0
03F80FC0
03F007C0
03C003C0
00000080
00000000
00000000
00000000
00000000
00000000
00000000
0007F000
003FFE00
00FFFF00
01FFFF80
03F00F80
07C007C0
0F8003C0
1F0001C0
1E000180
3C000180
3C000080
7C000100
78000000
78000000
78000000
F8000000
F8000000
F8000000
F8000000
78000000
78000000
78000000
7C000000
7C000000
3E000000
3F000000
1FC00000
0FF00000
07FF0000
03FFFFFE
01FFFFFE
007FFFF8
0007FFC0
ENDCHAR
STARTCHAR Cdotaccent
ENCODING 266
SWIDTH 515 0
DWIDTH 39 0
BBX 36 59 1 0
BITMAP
0000780000
0000780000
0000780000
00007C0000
00007C0000
0000380000
0000100000
0000000000
0000000000
0000000000
0000008000
00001FE000
00007FF000
0001FFF000
0003FFF800
0007F8F800
000FE07000
003F807000
007E007000
007C00E000
00F800C000
01F0008000
03C0010000
03C0000000
0780000000
0F00000000
0E00000000
1E00000000
1C00000000
3C00000000
3800000000
3800000000
7000000000
7000000000
7000000000
7000000000
F000000000
F000000000
F000000000
F000000000
F000000000
7000000000
7000000000
7000000000
7800000000
7800000000
7800000000
3C00000000
3C00000000
3E00000000
1E00000000
1F000001E0
0F80007FF0
0FE00FFFE0
07FFFFFFC0
03FFFFFF00
01FFFFE000
00FFFC0000
003FC00000
ENDCHAR
STARTCHAR cdotaccent
ENCODING 267
SWIDTH 449 0
DWIDTH 34 0
BBX 31 41 1 0
BITMAP
00078000
00078000
0007C000
0007C000
0007C000
0003C000
00010000
00000000
0007F000
003FFE00
00FFFF00
01FFFF80
03F00F80
07C007C0
0F8003C0
1F0001C0
1E000180
3C000180
3C000080
7C000100
78000000
78000000
78000000
F8000000
F8000000
F8000000
F8000000
78000000
78000000
78000000
7C000000
7C000000
3E000000
3F000000
1FC00000
0FF00000
07FF0000
03FFFFFE
01FFFFFE
007FFFF8
0007FFC0
ENDCHAR
STARTCHAR Ccaron
ENCODING 268
SWIDTH 515 0
DWIDTH 39 0
BBX 36 62 1 0
BITMAP
0000000400
000F801F00
001FE07E00
0003F0FE00
0000FFFC00
00003FF000
00001FE000
00000F8000
00000F0000
0000000000
0000000000
0000000000
0000000000
0000008000
00001FE000
00007FF000
0001FFF000
0003FFF800
0007F8F800
000FE07000
003F807000
007E007000
007C00E000
00F800C000
01F0008000
03C0010000
03C0000000
0780000000
0F00000000
0E00000000
1E00000000
1C00000000
3C00000000
3800000000
3800000000
7000000000
7000000000
7000000000
7000000000
F000000000
F000000000
F000000000
F000000000
F000000000
7000000000
7000000000
7000000000
7800000000
7800000000
7800000000
3C00000000
3C00000000
3E00000000
1E00000000
1F000001E0
0F80007FF0
0FE00FFFE0
07FFFFFFC0
03FFFFFF00
01FFFFE000
00FFFC0000
003FC00000
ENDCHAR
STARTCHAR ccaron
ENCODING 269
SWIDTH 449 0
DWIDTH 34 0
BBX 31 46 1 0
BITMAP
00000080
03E007C0
01F80FC0
007E3F80
001FFF00
000FFE00
0007F800
0003F000
0003C000
00000000
00000000
00000000
00000000
0007F000
003FFE00
00FFFF00
01FFFF80
03F00F80
07C007C0
0F8003C0
1F0001C0
1E000180
3C000180
3C000080
7C000100
78000000
78000000
78000000
F8000000
F8000000
F8000000
F8000000
78000000
78000000
78000000
7C000000
7C000000
3E000000
3F000000
1FC00000
0FF00000
07FF0000
03FFFFFE
01FFFFFE
007FFFF8
0007FFC0
ENDCHAR
STARTCHAR Dcaron
ENCODING 270
SWIDTH 741 0
DWIDTH 56 0
BBX 52 58 1 -1
BITMAP
00000000100000
00007C00F80000
00003F01F80000
00000FC7F00000
000003FFE00000
000001FFC00000
000000FF000000
0000007E000000
00000078000000
00000000000000
007FFC00000000
0FFFFFE0000000
3FFFFFFC000000
7FFFFFFF000000
FFC00FFFE00000
78000FBFF80000
60000787FC0000
00000780FF0000
000007803F8000
000007C00FE000
000003C007F000
000003C003F800
000003C000FC00
000003C0007E00
000003C0003F00
000001C0001F00
000001C0000F80
000001E00007C0
000001E00007C0
000001E00003E0
000001E00003E0
000001E00001F0
000001F00001F0
000001F00000F0
000000F00000F0
000000F00000F0
000000F00000F0
000000F00000F0
000000F00000F0
000000F80000F0
000000F80000F0
000000F80000F0
000000F80001F0
000000F80001F0
000000F80003E0
000000F80007E0
000000F80007E0
000000F8000FC0
00000078003F80
00000070007F80
0000000000FF00
00007C0003FE00
00007F801FFC00
00007FFFFFF000
00003FFFFFE000
00001FFFFF8000
000003FFFC0000
0000007FC00000
ENDCHAR
STARTCHAR dcaron
ENCODING 271
SWIDTH 582 0
DWIDTH 44 0
BBX 41 57 1 0
BITMAP
000000000400
000000000600
000000C00F00
000000E00F00
000001F00F00
000001F00F00
000000F80F80
000000F80F80
000000FC0780
000000FC0780
000000FE0780
0000007E0780
0000007E0780
0000007F0780
0000003F0780
0000003F0380
0000003F0380
0000003F0380
0000001F8000
0000001F8000
0000001F8000
0000001F8000
0000000F8000
007F000F8000
01FFE00FC000
03FFF80FC000
07FFFE0FC000
0FFFFF0FC000
0FFFFFCFC000
1FE01FEFC000
3F8007FFC000
3F0001FFC000
3E0000FFC000
7E00007FC000
7C00001FE000
7C00000FE000
7C00000FE000
7800000FE000
F800000FE000
F800000FE000
F800001FE000
F800001FE000
7800003FE000
7800003FE000
7C00007FE000
7C0000FFE000
7C0001FFF000
3E0003F3F000
3E0007F1F000
1F000FE1F000
1F003FC1F000
0FC0FF80F000
0FFFFE00F800
07FFFC007000
03FFF0000000
01FFC0000000
007E00000000
ENDCHAR
STARTCHAR Dcroat
ENCODING 272
SWIDTH 741 0
DWIDTH 56 0
BBX 52 48 1 -1
BITMAP
007FFC00000000
0FFFFFE0000000
3FFFFFFC000000
7FFFFFFF000000
FFC00FFFE00000
78000FBFF80000
60000787FC0000
00000780FF0000
000007803F8000
000007C00FE000
000003C007F000
000003C003F800
000003C000FC00
000003C0007E00
000003C0003F00
000001C0001F00
000001C0000F80
000001E00007C0
000001E00007C0
000001E00003E0
000001E00003E0
000001FC0001F0
00007FFF8001F0
0001FFFFC000F0
0001FFFFC000F0
0001FFFFC000F0
0001F0F00000F0
000000F00000F0
000000F00000F0
000000F80000F0
000000F80000F0
000000F80000F0
000000F80001F0
000000F80001F0
000000F80003E0
000000F80007E0
000000F80007E0
000000F8000FC0
00000078003F80
00000070007F80
0000000000FF00
00007C0003FE00
00007F801FFC00
00007FFFFFF000
00003FFFFFE000
00001FFFFF8000
000003FFFC0000
0000007FC00000
ENDCHAR
STARTCHAR dcroat
ENCODING 273
SWIDTH 524 0
DWIDTH 39 0
BBX 39 55 1 0
BITMAP
0000004000
000000E000
000000E000
000001F000
000000F800
000000F800
000000FC00
000000FC00
000000FE00
0000007E00
0000007E00
00001FFFF8
0000FFFFFC
0001FFFFFE
0001FFFFFE
0003FF3F0C
0000001F80
0000001F80
0000001F80
0000001F80
0000000F80
001E000F80
00FFC00FC0
03FFF00FC0
07FFFC0FC0
0FFFFF0FC0
0FFFFF8FC0
1FE03FEFC0
1FC007FFC0
3F0003FFC0
3F0000FFC0
7E00007FC0
7C00003FE0
7C00001FE0
7C00000FE0
7800000FE0
F800000FE0
F800000FE0
F800001FE0
F800001FE0
7800003FE0
7800003FE0
7C00007FE0
7C0000FFE0
7C0001FFF0
3E0003F3F0
3E0007F1F0
1F000FE1F0
1F003FC1F0
0FC0FF80F0
0FFFFE00F8
07FFFC0070
03FFF00000
01FFC00000
007E000000
ENDCHAR
STARTCHAR Emacron
ENCODING 274
SWIDTH 524 0
DWIDTH 39 0
BBX 35 57 1 0
BITMAP
0000080000
001FFFC000
007FFFE000
007FFFF000
00FFFFF000
00FC004000
0000000000
0000000000
0000000000
0000000000
0000000000
3FFFFFFC00
3FFFFFFF00
7FFFFFFF80
7FFFFFFFC0
78000000C0
7C00000000
7C00000000
7C00000000
7C00000000
7C00000000
7C00000000
7C00000000
7C00000000
7C00000000
7C00000000
7C00000000
7C00001F00
7C0007FF00
7C01FFFE00
7FFFFFF800
FFFFFFC000
7FFFF00000
7F80000000
7800000000
7800000000
7800000000
7800000000
7800000000
7800000000
7800000000
7800000000
7800000000
F800000000
F800000000
F800000000
F800000000
F800000000
F800000000
7800000000
7800000000
780007FFC0
7FFFFFFFE0
3FFFFFFFC0
1FFFFFFF80
0FFFFFFE00
01FFFF8000
ENDCHAR
STARTCHAR emacron
ENCODING 275
SWIDTH 515 0
DWIDTH 39 0
BBX 36 50 1 0
BITMAP
0000080000
001FFFC000
007FFFE000
007FFFF000
00FFFFF000
00FC004000
0000000000
0000000000
0000000000
0000000000
0000000000
0003E00000
001FFC0000
007FFE0000
01FFFF0000
03F81F8000
07E00F8000
0F8007C000
0F0003C000
1E0003C000
1E0001C000
3C0001E000
3C0001E000
780001C000
780003C000
780007C000
78000FC000
78001F8000
F8007F0000
F803FE0000
FBFFFC0000
FBFFF00000
FBFFC00000
79FE000000
7800000000
7800000000
7800000000
3C00000000
3C00000000
3E00000000
1F00000000
0F80000000
0FC0000000
07F0000000
03FF000010
01FFFFFFE0
007FFFFFC0
001FFFFF00
0007FFFC00
0000FFC000
ENDCHAR
STARTCHAR Ebreve
ENCODING 276
SWIDTH 524 0
DWIDTH 39 0
BBX 35 59 1 0
BITMAP
0000040000
0018038000
0018038000
001C070000
001F1F0000
000FFE0000
0007FC0000
0001E00000
0000000000
0000000000
0000000000
0000000000
0000000000
3FFFFFFC00
3FFFFFFF00
7FFFFFFF80
7FFFFFFFC0
78000000C0
7C00000000
7C00000000
7C00000000
7C00000000
7C00000000
7C00000000
7C00000000
7C00000000
7C00000000
7C00000000
7C00000000
7C00001F00
7C0007FF00
7C01FFFE00
7FFFFFF800
FFFFFFC000
7FFFF00000
7F80000000
7800000000
7800000000
7800000000
7800000000
7800000000
7800000000
7800000000
7800000000
7800000000
F800000000
F800000000
F800000000
F800000000
F800000000
F800000000
7800000000
7800000000
780007FFC0
7FFFFFFFE0
3FFFFFFFC0
1FFFFFFF80
0FFFFFFE00
01FFFF8000
ENDCHAR
STARTCHAR ebreve
ENCODING 277
SWIDTH 515 0
DWIDTH 39 0
BBX 36 51 1 0
BITMAP
0000010000
000600E000
000600E000
000701C000
0003C7C000
0003FF8000
0001FF0000
00007C0000
0000000000
0000000000
0000000000
0000000000
0003E00000
001FFC0000
007FFE0000
01FFFF0000
03F81F8000
07E00F8000
0F8007C000
0F0003C000
1E0003C000
1E0001C000
3C0001E000
3C0001E000
780001C000
780003C000
780007C000
78000FC000
78001F8000
F8007F0000
F803FE0000
FBFFFC0000
FBFFF00000
FBFFC00000
79FE000000
7800000000
7800000000
7800000000
3C00000000
3C00000000
3E00000000
1F00000000
0F80000000
0FC0000000
07F0000000
03FF000010
01FFFFFFE0
007FFFFFC0
001FFFFF00
0007FFFC00
0000FFC000
ENDCHAR
STARTCHAR Edotaccent
ENCODING 278
SWIDTH 524 0
DWIDTH 39 0
BBX 35 57 1 0
BITMAP
0001E00000
0001E00000
0001F00000
0001F00000
0001F00000
0000F00000
0000400000
0000000000
0000000000
0000000000
0000000000
3FFFFFFC00
3FFFFFFF00
7FFFFFFF80
7FFFFFFFC0
78000000C0
7C00000000
7C00000000
7C00000000
7C00000000
7C00000000
7C00000000
7C00000000
7C00000000
7C00000000
7C00000000
7C00000000
7C00001F00
7C0007FF00
7C01FFFE00
7FFFFFF800
FFFFFFC000
7FFFF00000
7F80000000
7800000000
7800000000
7800000000
7800000000
7800000000
7800000000
7800000000
7800000000
7800000000
F800000000
F800000000
F800000000
F800000000
F800000000
F800000000
7800000000
7800000000
780007FFC0
7FFFFFFFE0
3FFFFFFFC0
1FFFFFFF80
0FFFFFFE00
01FFFF8000
ENDCHAR
STARTCHAR edotaccent
ENCODING 279
SWIDTH 515 0
DWIDTH 39 0
BBX 36 50 1 0
BITMAP
0007800000
0007800000
0007C00000
0007C00000
0007C00000
0003C00000
0001000000
0000000000
0000000000
0000000000
0000000000
0003E00000
001FFC0000
007FFE0000
01FFFF0000
03F81F8000
07E00F8000
0F8007C000
0F0003C000
1E0003C000
1E0001C000
3C0001E000
3C0001E000
780001C000
780003C000
780007C000
78000FC000
78001F8000
F8007F0000
F803FE0000
FBFFFC0000
FBFFF00000
FBFFC00000
79FE000000
7800000000
7800000000
7800000000
3C00000000
3C00000000
3E00000000
1F00000000
0F80000000
0FC0000000
07F0000000
03FF000010
01FFFFFFE0
007FFFFFC0
001FFFFF00
0007FFFC00
0000FFC000
ENDCHAR
STARTCHAR Eogonek
ENCODING 280
SWIDTH 524 0
DWIDTH 39 0
BBX 35 57 1 -11
BITMAP
3FFFFFFC00
3FFFFFFF00
7FFFFFFF80
7FFFFFFFC0
78000000C0
7C00000000
7C00000000
7C00000000
7C00000000
7C00000000
7C00000000
7C00000000
7C00000000
7C00000000
7C00000000
7C00000000
7C00001F00
7C0007FF00
7C01FFFE00
7FFFFFF800
FFFFFFC000
7FFFF00000
7F80000000
7800000000
7800000000
7800000000
7800000000
7800000000
7800000000
7800000000
7800000000
7800000000
F800000000
F800000000
F800000000
F800000000
F800000000
F800000000
7800000000
7800000000
780007FFC0
7FFFFFFFE0
3FFFFFFFC0
1FFFFFFF80
0FFFFFFE00
01FFFFF000
00000FC000
00001F0000
00001E0000
00001C0000
00001C0000
00003E0000
00001F0000
00001FC000
00000FFF80
000003FF80
0000001F00
ENDCHAR
STARTCHAR eogonek
ENCODING 281
SWIDTH 515 0
DWIDTH 39 0
BBX 36 49 1 -10
BITMAP
0003E00000
001FFC0000
007FFE0000
01FFFF0000
03F81F8000
07E00F8000
0F8007C000
0F0003C000
1E0003C000
1E0001C000
3C0001E000
3C0001E000
780001C000
780003C000
780007C000
78000FC000
78001F8000
F8007F0000
F803FE0000
FBFFFC0000
FBFFF00000
FBFFC00000
79FE000000
7800000000
7800000000
7800000000
3C00000000
3C00000000
3E00000000
1F00000000
0F80000000
0FC0000000
07F0000000
03FF000010
01FFFFFFE0
007FFFFFC0
001FFFFF00
0007FFFC00
0000FFC000
00001F0000
00003E0000
00003C0000
0000380000
0000380000
00003C0000
00003E0000
00003FC000
00001FFF80
000007FF00
ENDCHAR
STARTCHAR Ecaron
ENCODING 282
SWIDTH 524 0
DWIDTH 39 0
BBX 35 57 1 0
BITMAP
0000002000
007C00F800
003F01F800
000F87F000
0003FFE000
0001FF8000
0000FF0000
00007C0000
0000780000
0000000000
0000000000
3FFFFFFC00
3FFFFFFF00
7FFFFFFF80
7FFFFFFFC0
78000000C0
7C00000000
7C00000000
7C00000000
7C00000000
7C00000000
7C00000000
7C00000000
7C00000000
7C00000000
7C00000000
7C00000000
7C00001F00
7C0007FF00
7C01FFFE00
7FFFFFF800
FFFFFFC000
7FFFF00000
7F80000000
7800000000
7800000000
7800000000
7800000000
7800000000
7800000000
7800000000
7800000000
7800000000
F800000000
F800000000
F800000000
F800000000
F800000000
F800000000
7800000000
7800000000
780007FFC0
7FFFFFFFE0
3FFFFFFFC0
1FFFFFFF80
0FFFFFFE00
01FFFF8000
ENDCHAR
STARTCHAR ecaron
ENCODING 283
SWIDTH 515 0
DWIDTH 39 0
BBX 36 52 1 0
BITMAP
0000002000
00FC00F000
007F03F000
001F87F000
0007FFE000
0001FF8000
0000FF0000
0000FC0000
0000780000
0000000000
0000000000
0000000000
0000000000
0003E00000
001FFC0000
007FFE0000
01FFFF0000
03F81F8000
07E00F8000
0F8007C000
0F0003C000
1E0003C000
1E0001C000
3C0001E000
3C0001E000
780001C000
780003C000
780007C000
78000FC000
78001F8000
F8007F0000
F803FE0000
FBFFFC0000
FBFFF00000
FBFFC00000
79FE000000
7800000000
7800000000
7800000000
3C00000000
3C00000000
3E00000000
1F00000000
0F80000000
0FC0000000
07F0000000
03FF000010
01FFFFFFE0
007FFFFFC0
001FFFFF00
0007FFFC00
0000FFC000
ENDCHAR
STARTCHAR Gcircumflex
ENCODING 284
SWIDTH 571 0
DWIDTH 43 0
BBX 40 65 2 -5
BITMAP
000000E000
000000F000
000000F800
000000F800
000001FC00
000001FE00
000003FF00
000007FF80
000007FFC0
00000F9FC0
00003F0FE0
00007E07E0
0000FC03F0
0001F801F0
0000F000F0
0000000020
0000000000
0000000000
0000000000
0000000000
0000000000
0000003FC0
000003FFF0
00000FFFF0
00003FFFF8
0000FF8078
0003F80008
000FE00000
001F800000
003E000000
007C000000
01F8000000
03E0000000
07C0000000
0780000000
0F80000000
1F00000000
1E00000000
3C007800C0
3C007FFFF0
78007FFFF8
78007FFFF8
78001FFFF8
7000000078
F000000038
F000000038
F000000038
7000000078
7000000078
7800000078
78000000F8
3C000000F8
3E000003F8
1F000007F8
1FC0003FF8
0FFFFFFFF8
07FFFFFFF8
03FFFF8078
00FFF80078
0004000078
000000007C
000000007E
000000003F
000000003F
000000001E
ENDCHAR
STARTCHAR gcircumflex
ENCODING 285
SWIDTH 366 0
DWIDTH 27 0
BBX 37 92 -10 -37
BITMAP
0000018000
000003C000
000003E000
000003F000
000007F800
000007FC00
00000FFC00
00000FFE00
00001FFF00
00003E7F80
00007C3F80
0001FC1FC0
0003F80FC0
0003F007C0
0003C003C0
0000000080
0000000000
0000000000
0000000000
0000000000
0000000000
0000000000
0000000000
0000000000
0000007800
000003FE00
00000FFE00
00001FFF00
00003FCF80
00007C0780
0000F803C0
0001F003C0
0001E003C0
0003C003E0
0003C003E0
00078003E0
00078001E0
000F0001E0
000F0001F0
000F0001F0
000F0001F0
001F0003F0
001F0003F0
001F0003F0
001F0007F0
000F0007F0
000F800FF0
000FC01FF0
0007F1FFF0
0003FFFFF8
0001FFFFF8
0000FFF1F8
00003FC1F8
00000401F8
00000000F8
00000000F8
00000000F8
00000000F8
00000000F8
00000000F8
00000000F8
0000000078
0000000078
0000000078
0000000078
0000000078
0000000078
0000000078
0000000078
0000000078
0000000078
0000000078
7000000078
F000000078
F000000078
F000000078
F000000078
F000000078
78000000F8
7C000000F0
3E000000F0
3F800001F0
1FE00001F0
0FF80003E0
03FF0003E0
01FFE007E0
007FFE1FC0
003FFFFF80
0007FFFF80
0001FFFF00
00003FFC00
0000006000
ENDCHAR
STARTCHAR Gbreve
ENCODING 286
SWIDTH 571 0
DWIDTH 43 0
BBX 40 54 2 -5
BITMAP
0000010000
000601C000
000601C000
000701C000
0007C7C000
0003FF8000
0001FF0000
0000780000
0000000000
0000000000
0000003FC0
000003FFF0
00000FFFF0
00003FFFF8
0000FF8078
0003F80008
000FE00000
001F800000
003E000000
007C000000
01F8000000
03E0000000
07C0000000
0780000000
0F80000000
1F00000000
1E00000000
3C007800C0
3C007FFFF0
78007FFFF8
78007FFFF8
78001FFFF8
7000000078
F000000038
F000000038
F000000038
7000000078
7000000078
7800000078
78000000F8
3C000000F8
3E000003F8
1F000007F8
1FC0003FF8
0FFFFFFFF8
07FFFFFFF8
03FFFF8078
00FFF80078
0004000078
000000007C
000000007E
000000003F
000000003F
000000001E
ENDCHAR
STARTCHAR gbreve
ENCODING 287
SWIDTH 366 0
DWIDTH 27 0
BBX 37 79 -10 -37
BITMAP
0000001000
0000601C00
0000601C00
0000701C00
00007C7C00
00003FF800
00001FF000
0000078000
0000000000
0000000000
0000000000
0000007800
000003FE00
00000FFE00
00001FFF00
00003FCF80
00007C0780
0000F803C0
0001F003C0
0001E003C0
0003C003E0
0003C003E0
00078003E0
00078001E0
000F0001E0
000F0001F0
000F0001F0
000F0001F0
001F0003F0
001F0003F0
001F0003F0
001F0007F0
000F0007F0
000F800FF0
000FC01FF0
0007F1FFF0
0003FFFFF8
0001FFFFF8
0000FFF1F8
00003FC1F8
00000401F8
00000000F8
00000000F8
00000000F8
00000000F8
00000000F8
00000000F8
00000000F8
0000000078
0000000078
0000000078
0000000078
0000000078
0000000078
0000000078
0000000078
0000000078
0000000078
0000000078
7000000078
F000000078
F000000078
F000000078
F000000078
F000000078
78000000F8
7C000000F0
3E000000F0
3F800001F0
1FE00001F0
0FF80003E0
03FF0003E0
01FFE007E0
007FFE1FC0
003FFFFF80
0007FFFF80
0001FFFF00
00003FFC00
0000006000
ENDCHAR
STARTCHAR Gdotaccent
ENCODING 288
SWIDTH 571 0
DWIDTH 43 0
BBX 40 53 2 -5
BITMAP
000003C000
000003C000
000003C000
000003E000
000003E000
000001C000
0000008000
0000000000
0000000000
0000003FC0
000003FFF0
00000FFFF0
00003FFFF8
0000FF8078
0003F80008
000FE00000
001F800000
003E000000
007C000000
01F8000000
03E0000000
07C0000000
0780000000
0F80000000
1F00000000
1E00000000
3C007800C0
3C007FFFF0
78007FFFF8
78007FFFF8
78001FFFF8
7000000078
F000000038
F000000038
F000000038
7000000078
7000000078
7800000078
78000000F8
3C000000F8
3E000003F8
1F000007F8
1FC0003FF8
0FFFFFFFF8
07FFFFFFF8
03FFFF8078
00FFF80078
0004000078
000000007C
000000007E
000000003F
000000003F
000000001E
ENDCHAR
STARTCHAR gdotaccent
ENCODING 289
SWIDTH 366 0
DWIDTH 27 0
BBX 37 78 -10 -37
BITMAP
0000078000
0000078000
000007C000
000007C000
000007C000
0000038000
0000010000
0000000000
0000000000
0000000000
0000007800
000003FE00
00000FFE00
00001FFF00
00003FCF80
00007C0780
0000F803C0
0001F003C0
0001E003C0
0003C003E0
0003C003E0
00078003E0
00078001E0
000F0001E0
000F0001F0
000F0001F0
000F0001F0
001F0003F0
001F0003F0
001F0003F0
001F0007F0
000F0007F0
000F800FF0
000FC01FF0
0007F1FFF0
0003FFFFF8
0001FFFFF8
0000FFF1F8
00003FC1F8
00000401F8
00000000F8
00000000F8
00000000F8
00000000F8
00000000F8
00000000F8
00000000F8
0000000078
0000000078
0000000078
0000000078
0000000078
0000000078
0000000078
0000000078
0000000078
0000000078
0000000078
7000000078
F000000078
F000000078
F000000078
F000000078
F000000078
78000000F8
7C000000F0
3E000000F0
3F800001F0
1FE00001F0
0FF80003E0
03FF0003E0
01FFE007E0
007FFE1FC0
003FFFFF80
0007FFFF80
0001FFFF00
00003FFC00
0000006000
ENDCHAR
STARTCHAR Gcommaaccent
ENCODING 290
SWIDTH 571 0
DWIDTH 43 0
BBX 40 63 2 -24
BITMAP
0000003FC0
000003FFF0
00000FFFF0
00003FFFF8
0000FF8078
0003F80008
000FE00000
001F800000
003E000000
007C000000
01F8000000
03E0000000
07C0000000
0780000000
0F80000000
1F00000000
1E00000000
3C007800C0
3C007FFFF0
78007FFFF8
78007FFFF8
78001FFFF8
7000000078
F000000038
F000000038
F000000038
7000000078
7000000078
7800000078
78000000F8
3C000000F8
3E000003F8
1F000007F8
1FC0003FF8
0FFFFFFFF8
07FFFFFFF8
03FFFF8078
00FFF80078
0004000078
000000007C
000000007E
000000003F
000000003F
000000001E
0000000000
0000000000
0000000000
0000780000
0000780000
0000FC0000
0000FC0000
00007C0000
00003C0000
00003C0000
00003C0000
00003C0000
00003C0000
00007C0000
0000FC0000
0000F80000
0000F80000
0000F00000
0000600000
ENDCHAR
STARTCHAR gcommaaccent
ENCODING 291
SWIDTH 366 0
DWIDTH 27 0
BBX 37 103 -10 -37
BITMAP
0000020000
0000070000
0000070000
0000078000
0000078000
0000078000
000007C000
000007C000
000007C000
000003C000
000003C000
000003C000
000003C000
000003C000
000003C000
000003C000
000001C000
000001C000
0000000000
0000000000
0000000000
0000000000
0000000000
0000000000
0000000000
0000000000
0000000000
0000000000
0000000000
0000000000
0000000000
0000000000
0000000000
0000000000
0000000000
0000007800
000003FE00
00000FFE00
00001FFF00
00003FCF80
00007C0780
0000F803C0
0001F003C0
0001E003C0
0003C003E0
0003C003E0
00078003E0
00078001E0
000F0001E0
000F0001F0
000F0001F0
000F0001F0
001F0003F0
001F0003F0
001F0003F0
001F0007F0
000F0007F0
000F800FF0
000FC01FF0
0007F1FFF0
0003FFFFF8
0001FFFFF8
0000FFF1F8
00003FC1F8
00000401F8
00000000F8
00000000F8
00000000F8
00000000F8
00000000F8
00000000F8
00000000F8
0000000078
0000000078
0000000078
0000000078
0000000078
0000000078
0000000078
0000000078
0000000078
0000000078
0000000078
7000000078
F000000078
F000000078
F000000078
F000000078
F000000078
78000000F8
7C000000F0
3E000000F0
3F800001F0
1FE00001F0
0FF80003E0
03FF0003E0
01FFE007E0
007FFE1FC0
003FFFFF80
0007FFFF80
0001FFFF00
00003FFC00
0000006000
ENDCHAR
STARTCHAR Hcircumflex
ENCODING 292
SWIDTH 524 0
DWIDTH 39 0
BBX 36 72 1 0
BITMAP
0000700000
0000780000
00007C0000
0000FC0000
0000FE0000
0000FF0000
0001FF8000
0003FFC000
0007FFE000
000FCFE000
001F87F000
003F03F000
007E01F800
00FC00F800
0078007800
0000001000
0000000000
0000000000
0000000000
0000000000
0000000000
00000000C0
00000001C0
30000003C0
38000003C0
3800000380
3800000380
3800000380
3800000380
3800000380
3800000380
3800000380
3C00000380
3C00000380
3C00000380
3C00000380
3C00000380
3C00000380
3C00000380
1C00000380
1E000003C0
1E00000FC0
1E00003FC0
1E0000FFC0
1E0003FFC0
1E000FFFC0
1E003FE3C0
1E00FF83C0
1E03FE03C0
1F1FF803C0
1FFFE003C0
1FFF8003C0
1FFE0003C0
7FF00003C0
FFC00003C0
FF800003C0
1F800003C0
0F800003C0
0F800003E0
07800001E0
07800001E0
07800001E0
07800001E0
07800001E0
07800001E0
07800001E0
07800001E0
07800001F0
07800001F0
03800000F0
03800000F0
0000000060
ENDCHAR
STARTCHAR hcircumflex
ENCODING 293
SWIDTH 427 0
DWIDTH 32 0
BBX 30 60 -1 0
BITMAP
00006000
0000F000
0000F800
0000FC00
0000FE00
0001FF00
0001FF00
2003FF80
E007FFC0
F00F9FE0
F01F87E0
F03F07F0
78FE03F0
78FC01F0
78F000F0
7C000020
3C000000
3C000000
3E000000
3E000000
1E000000
1E000000
1E000000
1F000000
1F000000
0F000000
0F07E000
0F3FF800
0FFFFE00
0FFFFF00
0FFFFF80
0FFEFF80
07F00FC0
07C003E0
078001E0
078000F0
078000F0
07800070
07800078
07800078
07800038
07800038
0780003C
0780003C
03C0003C
03C0003C
03C0003C
03C0003C
03C0003C
03C0003C
03C0003C
03E0003C
03E0007C
03E0007C
03E0007C
03E0007C
03E0007C
01E00078
01E00078
01C00030
ENDCHAR
STARTCHAR hbar
ENCODING 295
SWIDTH 427 0
DWIDTH 32 0
BBX 35 53 -6 0
BITMAP
0100000000
0700000000
0780000000
0780000000
0780000000
03C0000000
03C0000000
03C0000000
03E0000000
01E0000000
01E0000000
03FF800000
3FFFE00000
7FFFE00000
FFFFE00000
FFF7E00000
F0F8000000
00F8000000
00F8000000
00783F0000
0079FFC000
007FFFF000
007FFFF800
007FFFFC00
007FF7FC00
003F807E00
003E001F00
003C000F00
003C000780
003C000780
003C000380
003C0003C0
003C0003C0
003C0001C0
003C0001C0
003C0001E0
003C0001E0
001E0001E0
001E0001E0
001E0001E0
001E0001E0
001E0001E0
001E0001E0
001E0001E0
001F0001E0
001F0003E0
001F0003E0
001F0003E0
001F0003E0
001F0003E0
000F0003C0
000F0003C0
000E000180
ENDCHAR
STARTCHAR Itilde
ENCODING 296
SWIDTH 167 0
DWIDTH 13 0
BBX 26 52 -6 0
BITMAP
02000080
1FC003C0
3FF007C0
7EF80F80
F07E3F00
F01FFE00
E00FFC00
E003F800
E000C000
60000000
60800000
01C00000
01C00000
01E00000
01E00000
00E00000
00F00000
00F00000
00F00000
00780000
00780000
00780000
00780000
003C0000
003C0000
003C0000
003C0000
003C0000
001E0000
001E0000
001E0000
001E0000
001E0000
001E0000
001F0000
001F0000
000F0000
000F0000
000F0000
000F0000
000F0000
000F8000
000F8000
000F8000
000F8000
00078000
00078000
00078000
00078000
00078000
00038000
00018000
ENDCHAR
STARTCHAR itilde
ENCODING 297
SWIDTH 174 0
DWIDTH 13 0
BBX 26 49 -4 0
BITMAP
0F8001C0
3FE003C0
7FF807C0
787E1F00
F01FFE00
F00FFC00
F007F800
E001F000
60000000
60000000
20000000
00000000
00000000
00000000
00000000
00000000
00700000
00700000
00700000
00700000
00700000
00700000
00700000
00700000
00780000
00780000
00780000
00780000
00780000
00780000
007C0000
007C0000
007C0000
007C0000
007C0000
007C0000
007E0000
007E0000
003E0000
003E0000
003E0000
003E0000
003F0000
003F0000
001F0000
001F0000
001F0000
000E0000
000E0000
ENDCHAR
STARTCHAR imacron
ENCODING 299
SWIDTH 174 0
DWIDTH 13 0
BBX 19 45 -3 0
BITMAP
1FFF80
7FFFE0
FFFFE0
FFFFE0
FE01E0
800000
000000
000000
000000
000000
000000
000000
00E000
00E000
00E000
00E000
00E000
00E000
00E000
00E000
00F000
00F000
00F000
00F000
00F000
00F000
00F800
00F800
00F800
00F800
00F800
00F800
00FC00
00FC00
007C00
007C00
007C00
007C00
007E00
007E00
003E00
003E00
003E00
001C00
001C00
ENDCHAR
STARTCHAR Ibreve
ENCODING 300
SWIDTH 167 0
DWIDTH 13 0
BBX 14 58 0 0
BITMAP
0010
C01C
E01C
E03C
78F8
7FF0
3FE0
0780
0000
0000
0000
0000
0000
0000
0000
0000
2000
7000
7000
7800
7800
3800
3C00
3C00
3C00
1E00
1E00
1E00
1E00
0F00
0F00
0F00
0F00
0F00
0780
0780
0780
0780
0780
0780
07C0
07C0
03C0
03C0
03C0
03C0
03C0
03E0
03E0
03E0
03E0
01E0
01E0
01E0
01E0
01E0
00E0
0060
ENDCHAR
STARTCHAR ibreve
ENCODING 301
SWIDTH 174 0
DWIDTH 13 0
BBX 14 45 -1 0
BITMAP
803C
C01C
E038
F0F8
7FF0
3FE0
0F80
0000
0000
0000
0000
0000
0380
0380
0380
0380
0380
0380
0380
0380
03C0
03C0
03C0
03C0
03C0
03C0
03E0
03E0
03E0
03E0
03E0
03E0
03F0
03F0
01F0
01F0
01F0
01F0
01F8
01F8
00F8
00F8
00F8
0070
0070
ENDCHAR
STARTCHAR Iogonek
ENCODING 302
SWIDTH 167 0
DWIDTH 13 0
BBX 15 53 0 -11
BITMAP
2000
7000
7000
7800
7800
3800
3C00
3C00
3C00
1E00
1E00
1E00
1E00
0F00
0F00
0F00
0F00
0F00
0780
0780
0780
0780
0780
0780
07C0
07C0
03C0
03C0
03C0
03C0
03C0
03E0
03E0
03E0
03E0
01E0
01E0
01E0
01E0
03E0
1FE0
3FE0
7E00
7C00
F800
F000
F000
F000
F800
7E00
7FFE
1FFC
007C
ENDCHAR
STARTCHAR iogonek
ENCODING 303
SWIDTH 174 0
DWIDTH 13 0
BBX 15 56 -1 -11
BITMAP
3800
3C00
3E00
3E00
0E00
0000
0000
0000
0000
0000
0000
0000
0380
0380
0380
0380
0380
0380
0380
0380
03C0
03C0
03C0
03C0
03C0
03C0
03E0
03E0
03E0
03E0
03E0
03E0
03F0
03F0
01F0
01F0
01F0
01F0
01F8
01F8
00F8
00F8
03F8
0FF0
3FF0
7F00
7C00
F800
F000
F000
F000
F800
FE00
7FFE
1FFC
03FC
ENDCHAR
STARTCHAR Idotaccent
ENCODING 304
SWIDTH 167 0
DWIDTH 13 0
BBX 12 55 -1 0
BITMAP
F000
F800
F800
F800
7800
7800
1000
0000
0000
0000
0000
0000
0000
1000
3800
3800
3C00
3C00
1C00
1E00
1E00
1E00
0F00
0F00
0F00
0F00
0780
0780
0780
0780
0780
03C0
03C0
03C0
03C0
03C0
03C0
03E0
03E0
01E0
01E0
01E0
01E0
01E0
01F0
01F0
01F0
01F0
00F0
00F0
00F0
00F0
00F0
0070
0030
ENDCHAR
STARTCHAR dotlessi
ENCODING 305
SWIDTH 174 0
DWIDTH 13 0
BBX 7 33 5 0
BITMAP
E0
E0
E0
E0
E0
E0
E0
E0
F0
F0
F0
F0
F0
F0
F8
F8
F8
F8
F8
F8
FC
FC
7C
7C
7C
7C
7E
7E
3E
3E
3E
1C
1C
ENDCHAR
STARTCHAR Jcircumflex
ENCODING 308
SWIDTH 439 0
DWIDTH 33 0
BBX 33 73 2 0
BITMAP
0000030000
0000078000
000007C000
000007E000
00000FE000
00000FF000
00001FF800
00001FFC00
00003FFE00
00007CFF00
0001F87F00
0003F03F80
0007E01F80
000FC00F80
0007800780
0000000100
0000000000
0000000000
0000000000
0000000000
0000010000
0000030000
0000038000
0000038000
000003C000
000003C000
000003C000
000003C000
000003C000
000001E000
000001E000
000001E000
000001E000
000001E000
000001F000
000001F000
000000F000
000000F000
000000F000
000000F000
000000F000
000000F800
000000F800
000000F800
0000007800
0000007800
2000007800
7000007800
E000007800
E000007800
E000007800
F000007C00
F000007C00
F000007C00
7800007C00
7800007C00
3C00007C00
1E00007C00
0E00007C00
0700007800
0780007800
03C0007800
01E0007800
00F0007800
0078007800
003E007800
001F00F000
000FC0F000
0007F1F000
0003FFE000
0000FFC000
00007FC000
00000F0000
ENDCHAR
STARTCHAR jcircumflex
ENCODING 309
SWIDTH 200 0
DWIDTH 15 0
BBX 26 89 -8 -34
BITMAP
00038000
0003C000
0003E000
0007E000
0007F000
0007F800
000FFC00
001FFE00
001FFF00
003E7F00
00FC3F80
01F81F80
03F00FC0
07E007C0
03C003C0
00000080
00000000
00000000
00000000
00000000
00000000
00000000
00000000
00000000
00000000
00010000
00038000
00038000
0003C000
0003C000
0003C000
0003E000
0003E000
0001E000
0001F000
0001F000
0001F000
0001F000
0001F800
0000F800
0000F800
0000F800
0000F800
0000FC00
00007C00
00007C00
00007C00
00007C00
00007C00
00007E00
00003E00
00003E00
00003E00
00003E00
00003E00
00001F00
00001F00
00001F00
00001F00
00001F00
00001F00
00000F00
00000F00
C0000F00
E0000F00
E0000F00
F0000F80
F0000F80
F8000F80
F8000F80
7C000780
7C000780
7E000780
3E000780
3F000780
1F000780
1F800780
0F800780
07C00780
03E00F00
03F00F00
01FC0F00
00FFBF00
007FFF00
001FFE00
000FFE00
0003FE00
0000FC00
00003800
ENDCHAR
STARTCHAR Kcommaaccent
ENCODING 310
SWIDTH 468 0
DWIDTH 35 0
BBX 32 68 1 -24
BITMAP
60000380
60000F80
F0001F00
F0007E00
F000FC00
7001F800
7003F000
7003E000
7807E000
780FC000
781F8000
783F0000
783E0000
387C0000
38F80000
39F00000
3BE00000
3BC00000
3FC00000
3F800000
3F000000
1E000000
1F000000
1F800000
1FC00000
1FE00000
1FF00000
1FF80000
1CFC0000
1C7E0000
1C3F0000
1E1FC000
1E0FE000
1E03F000
1E01FC00
1E00FE00
1E003F80
1E001FE0
1E0007F0
1F0003FC
1F0000FE
0F00007F
0F00001F
0600000F
00000000
00000000
00000000
00000000
00000000
00000000
00000000
00000000
0003C000
0003E000
0007E000
0007E000
0003E000
0001E000
0001E000
0001E000
0001E000
0001E000
0003E000
0007E000
0007C000
0007C000
00078000
00030000
ENDCHAR
STARTCHAR kcommaaccent
ENCODING 311
SWIDTH 403 0
DWIDTH 30 0
BBX 30 70 0 -24
BITMAP
C0000000
C0000000
E0000000
E0000000
E0000000
F0000000
70000000
70000000
78000000
78000000
78000000
78000000
3C000600
3C001F00
3C003F00
3C007E00
3C007C00
3E00F800
1E01F000
1E01E000
1E03C000
1E078000
1E0F0000
0F1E0000
0FFC0000
0FF80000
0FF80000
0FF00000
0FE00000
0FE00000
0FE00000
0FC00000
0FE00000
0FE00000
0FF00000
0FF80000
0FFC0000
0FFF0000
0FFFC000
0F8FF800
0F87FF80
0F01FFF8
0F00FFFC
0F003FFC
0F000FF8
0E000000
00000000
00000000
00000000
00000000
00000000
00000000
00000000
00000000
00078000
000F8000
000F8000
000FC000
000FC000
0007C000
0007C000
0007C000
0007C000
0007C000
000F8000
000F8000
000F8000
000F0000
000F0000
000C0000
ENDCHAR
STARTCHAR Lacute
ENCODING 313
SWIDTH 346 0
DWIDTH 26 0
BBX 24 55 1 0
BITMAP
000018
000038
0000F8
0001F0
0007E0
000FC0
001F80
001F00
003E00
003C00
003800
000000
000000
000000
000000
0C0000
1E0000
1E0000
1E0000
1E0000
3E0000
3E0000
3E0000
3E0000
3C0000
3C0000
3C0000
7C0000
7C0000
7C0000
7C0000
780000
780000
780000
780000
780000
780000
780000
780000
780000
780000
F80000
F80000
F80000
F80000
780000
780000
780000
7C0000
3F8000
3FFFF0
1FFFFF
0FFFFF
03FFFF
007FFC
ENDCHAR
STARTCHAR lacute
ENCODING 314
SWIDTH 120 0
DWIDTH 9 0
BBX 11 56 -1 1
BITMAP
0060
00E0
03E0
07C0
1F80
3F00
7E00
FC00
F800
F000
E000
0000
0000
0000
1C00
1E00
1E00
1E00
1E00
1E00
1E00
1E00
1F00
1F00
1F00
1F00
1F00
1F00
1F00
1F00
1F00
1F00
1F00
1F00
1F00
1F00
1F00
1F00
1F00
1F00
1F00
1F00
1F00
1F00
1F00
1F00
1F00
1F00
1F00
1F00
1F00
1F00
0F00
0E00
0E00
0E00
ENDCHAR
STARTCHAR Lcommaaccent
ENCODING 315
SWIDTH 346 0
DWIDTH 26 0
BBX 24 64 1 -24
BITMAP
0C0000
1E0000
1E0000
1E0000
1E0000
3E0000
3E0000
3E0000
3E0000
3C0000
3C0000
3C0000
7C0000
7C0000
7C0000
7C0000
780000
780000
780000
780000
780000
780000
780000
780000
780000
780000
F80000
F80000
F80000
F80000
780000
780000
780000
7C0000
3F8000
3FFFF0
1FFFFF
0FFFFF
03FFFF
007FFC
000000
000000
000000
000000
000000
000000
000000
000000
003C00
007C00
007C00
007E00
007E00
003E00
003E00
003E00
003E00
003E00
007C00
007C00
007C00
007800
007800
006000
ENDCHAR
STARTCHAR lcommaaccent
ENCODING 316
SWIDTH 120 0
DWIDTH 9 0
BBX 6 67 1 -24
BITMAP
70
78
78
78
78
78
78
78
7C
7C
7C
7C
7C
7C
7C
7C
7C
7C
7C
7C
7C
7C
7C
7C
7C
7C
7C
7C
7C
7C
7C
7C
7C
7C
7C
7C
7C
7C
3C
38
38
38
00
00
00
00
00
00
00
00
00
78
7C
FC
FC
7C
3C
3C
3C
3C
3C
7C
FC
F8
F8
F0
60
ENDCHAR
STARTCHAR Lcaron
ENCODING 317
SWIDTH 346 0
DWIDTH 26 0
BBX 24 54 1 0
BITMAP
000400
000C00
000E00
000E00
000F00
000F00
000F00
000F00
000F00
000F00
000F80
000F80
000F80
000780
0C0780
1E0780
1E0780
1E0380
1E0000
3E0000
3E0000
3E0000
3E0000
3C0000
3C0000
3C0000
7C0000
7C0000
7C0000
7C0000
780000
780000
780000
780000
780000
780000
780000
780000
780000
780000
F80000
F80000
F80000
F80000
780000
780000
780000
7C0000
3F8000
3FFFF0
1FFFFF
0FFFFF
03FFFF
007FFC
ENDCHAR
STARTCHAR lcaron
ENCODING 318
SWIDTH 222 0
DWIDTH 17 0
BBX 13 54 2 1
BITMAP
0040
0060
00F0
00F0
00F0
00F8
0078
0078
0078
0078
0078
0078
E078
F078
F078
F038
F038
F018
F000
F000
F800
F800
F800
F800
F800
F800
F800
F800
F800
F800
F800
F800
F800
F800
F800
F800
F800
F800
F800
F800
F800
F800
F800
F800
F800
F800
F800
F800
F800
F800
7800
7000
7000
7000
ENDCHAR
STARTCHAR Ldot
ENCODING 319
SWIDTH 346 0
DWIDTH 26 0
BBX 24 40 1 0
BITMAP
0C0000
1E0000
1E0000
1E0000
1E0000
3E0000
3E0000
3E0000
3E0000
3C0000
3C0000
3C0000
7C0000
7C0000
7C0000
7C0000
780000
780000
783800
787E00
78FF00
78FF00
79FF80
78FF80
78FF00
787E00
F83800
F80000
F80000
F80000
780000
780000
780000
7C0000
3F8000
3FFFF0
1FFFFF
0FFFFF
03FFFF
007FFC
ENDCHAR
STARTCHAR ldot
ENCODING 320
SWIDTH 333 0
DWIDTH 25 0
BBX 20 42 2 1
BITMAP
E00000
F00000
F00000
F00000
F00000
F00000
F00000
F00000
F80000
F80000
F80000
F80000
F80000
F80000
F80000
F80000
F80000
F80000
F80000
F80000
F80000
F80300
F807C0
F80FE0
F81FF0
F81FF0
F81FF0
F81FE0
F80FC0
F80700
F80000
F80000
F80000
F80000
F80000
F80000
F80000
F80000
780000
700000
700000
700000
ENDCHAR
STARTCHAR Lslash
ENCODING 321
SWIDTH 346 0
DWIDTH 26 0
BBX 27 40 1 1
BITMAP
00800000
01C00000
01C00000
03C00000
03C00000
03C00000
03C00000
07C00000
07C00000
07C00000
07C00000
07C00000
07800000
07800000
07800000
07800000
0F800000
0F800000
0F900000
0FB00000
0F780000
0FFC0000
0FFC0000
0FF00000
3FE00000
7FC00000
FF800000
FF000000
FF000000
6F000000
0F000000
0F000000
0F800000
0F800000
07E00000
07FFF000
03FFFFE0
01FFFFE0
00FFFFE0
001FFFC0
ENDCHAR
STARTCHAR lslash
ENCODING 322
SWIDTH 120 0
DWIDTH 9 0
BBX 18 43 -5 1
BITMAP
00C000
00E000
00F000
00F000
00F000
00F000
00F000
00F000
00F000
00F000
00F000
00F000
00F000
00F000
00F100
00F100
00F780
00FF80
00FFC0
00FFC0
00FE00
03F800
07F800
1FF800
3FF800
FCF800
F8F800
F0F800
40F800
00F800
00F800
00F800
00F800
00F800
00F800
00F800
00F000
00F000
00F000
00F000
00F000
007000
006000
ENDCHAR
STARTCHAR Nacute
ENCODING 323
SWIDTH 609 0
DWIDTH 46 0
BBX 42 52 2 0
BITMAP
000001800000
000007800000
00000F800000
00003F000000
00007E000000
0000FC000000
0001F8000000
0003F0000000
0003E0000000
000380000000
000300000000
000000000000
780000000000
780000000000
780000000000
78000003C000
78000003E000
7C000003E000
3C000003F000
3C000001F800
3E000001F800
3E000001F800
3E000000FC00
3F000000FC00
3F0000007E00
7F0000007E00
7F8000003E00
7F8000001F00
7F8000001F00
7FC000000F00
7FC000000F80
7FE000000780
7FE000000780
79F000000780
78F000000780
7078000007C0
7078000007C0
703C000007C0
F03E000007C0
F01F000007C0
F00F00000780
F00F80000F80
F807C0000F80
F803F0001F00
F801F8003F00
F801FE007E00
F800FFFFFC00
F8003FFFFC00
F8001FFFF000
F8000FFFE000
780001FF0000
700000000000
ENDCHAR
STARTCHAR nacute
ENCODING 324
SWIDTH 459 0
DWIDTH 35 0
BBX 31 50 2 0
BITMAP
0000C000
0001E000
0007C000
000FC000
001F8000
003F0000
007C0000
00F80000
01F00000
01E00000
01C00000
00000000
00000000
00000000
00000000
00000000
00000000
0007E000
001FF800
007FFE00
01FFFF00
E7FC7F80
FFE01F80
FF800FC0
FF0007E0
FE0003E0
FC0001F0
FC0001F0
FC0000F0
F80000F8
F8000078
F800007C
F800007C
F800007C
7800003C
7800003E
7C00003E
7C00003E
7C00003E
7C00003E
7C00003E
3E00003E
3E00001E
3E00003E
3E00003E
1F00003E
1F00003C
0F00003C
07000038
03000000
ENDCHAR
STARTCHAR Ncommaaccent
ENCODING 325
SWIDTH 609 0
DWIDTH 46 0
BBX 42 64 2 -24
BITMAP
780000000000
780000000000
780000000000
78000003C000
78000003E000
7C000003E000
3C000003F000
3C000001F800
3E000001F800
3E000001F800
3E000000FC00
3F000000FC00
3F0000007E00
7F0000007E00
7F8000003E00
7F8000001F00
7F8000001F00
7FC000000F00
7FC000000F80
7FE000000780
7FE000000780
79F000000780
78F000000780
7078000007C0
7078000007C0
703C000007C0
F03E000007C0
F01F000007C0
F00F00000780
F00F80000F80
F807C0000F80
F803F0001F00
F801F8003F00
F801FE007E00
F800FFFFFC00
F8003FFFFC00
F8001FFFF000
F8000FFFE000
780001FF0000
700000000000
000000000000
000000000000
000000000000
000000000000
000000000000
000000000000
000000000000
000000000000
00003C000000
00003E000000
00003E000000
00003E000000
00003F000000
00001F000000
00001F000000
00001F000000
00001F000000
00001E000000
00003E000000
00003E000000
00003E000000
00003C000000
000038000000
000030000000
ENDCHAR
STARTCHAR ncommaaccent
ENCODING 326
SWIDTH 459 0
DWIDTH 35 0
BBX 31 57 2 -24
BITMAP
0007E000
001FF800
007FFE00
01FFFF00
E7FC7F80
FFE01F80
FF800FC0
FF0007E0
FE0003E0
FC0001F0
FC0001F0
FC0000F0
F80000F8
F8000078
F800007C
F800007C
F800007C
7800003C
7800003E
7C00003E
7C00003E
7C00003E
7C00003E
7C00003E
3E00003E
3E00001E
3E00003E
3E00003E
1F00003E
1F00003C
0F00003C
07000038
03000000
00000000
00000000
00000000
00000000
00000000
00000000
00000000
00000000
00078000
000F8000
000FC000
000FC000
0007C000
0003C000
0003C000
0003C000
0003C000
0007C000
0007C000
000F8000
000F8000
000F0000
000F0000
00060000
ENDCHAR
STARTCHAR Ncaron
ENCODING 327
SWIDTH 609 0
DWIDTH 46 0
BBX 42 57 2 0
BITMAP
000000040000
001F003E0000
000FC07E0000
0003F1FC0000
0000FFF80000
00007FF00000
00003FC00000
00001F800000
00001E000000
000000000000
000000000000
000000000000
000000000000
000000000000
000000000000
000000000000
000000000000
780000000000
780000000000
780000000000
78000003C000
78000003E000
7C000003E000
3C000003F000
3C000001F800
3E000001F800
3E000001F800
3E000000FC00
3F000000FC00
3F0000007E00
7F0000007E00
7F8000003E00
7F8000001F00
7F8000001F00
7FC000000F00
7FC000000F80
7FE000000780
7FE000000780
79F000000780
78F000000780
7078000007C0
7078000007C0
703C000007C0
F03E000007C0
F01F000007C0
F00F00000780
F00F80000F80
F807C0000F80
F803F0001F00
F801F8003F00
F801FE007E00
F800FFFFFC00
F8003FFFFC00
F8001FFFF000
F8000FFFE000
780001FF0000
700000000000
ENDCHAR
STARTCHAR ncaron
ENCODING 328
SWIDTH 459 0
DWIDTH 35 0
BBX 31 46 2 0
BITMAP
00000100
07E00780
03F81F80
00FC3F00
003FFE00
000FFC00
0007F000
0007E000
0003C000
00000000
00000000
00000000
00000000
0007E000
001FF800
007FFE00
01FFFF00
E7FC7F80
FFE01F80
FF800FC0
FF0007E0
FE0003E0
FC0001F0
FC0001F0
FC0000F0
F80000F8
F8000078
F800007C
F800007C
F800007C
7800003C
7800003E
7C00003E
7C00003E
7C00003E
7C00003E
7C00003E
3E00003E
3E00001E
3E00003E
3E00003E
1F00003E
1F00003C
0F00003C
07000038
03000000
ENDCHAR
STARTCHAR napostrophe
ENCODING 329
SWIDTH 459 0
DWIDTH 35 0
BBX 31 50 2 0
BITMAP
07800000
07800000
0FC00000
0FC00000
07C00000
03C00000
03C00000
03C00000
03C00000
03C00000
07C00000
0FC00000
0F800000
0F800000
0F000000
06000000
00000000
0007E000
001FF800
007FFE00
01FFFF00
E7FC7F80
FFE01F80
FF800FC0
FF0007E0
FE0003E0
FC0001F0
FC0001F0
FC0000F0
F80000F8
F8000078
F800007C
F800007C
F800007C
7800003C
7800003E
7C00003E
7C00003E
7C00003E
7C00003E
7C00003E
3E00003E
3E00001E
3E00003E
3E00003E
1F00003E
1F00003C
0F00003C
07000038
03000000
ENDCHAR
STARTCHAR Omacron
ENCODING 332
SWIDTH 609 0
DWIDTH 46 0
BBX 43 52 1 0
BITMAP
000000800000
0001FFFC0000
0007FFFE0000
0007FFFE0000
000FFFFF0000
000FC0040000
000000000000
000000000000
000000000000
000000000000
000000000000
000000000000
000000000000
000000000000
000000000000
000000000000
003FE0000000
00FFFC000000
03FFFF800000
07FFFFE00000
0FE07FF80000
1F8007FE0000
1E0000FF0000
3C00003FC000
3C00000FE000
78000007F000
78000001F800
70000000FC00
700000007C00
F00000003E00
F00000001F00
F00000001F00
F00000000F80
F00000000780
7000000007C0
7000000007C0
7800000003C0
7800000003C0
7C00000003E0
3C00000003E0
3E00000003E0
1F00000003C0
1F80000007C0
0FC000000F80
07E000001F80
07F800007F00
03FE0003FE00
01FFC01FFC00
007FFFFFF000
003FFFFFC000
0007FFFE0000
0000FF800000
ENDCHAR
STARTCHAR omacron
ENCODING 333
SWIDTH 487 0
DWIDTH 37 0
BBX 33 41 1 0
BITMAP
0000100000
003FFFC000
007FFFE000
00FFFFE000
00FFFFE000
00FC004000
0000000000
0000000000
0000000000
0000000000
0001FE0000
000FFF8000
007FFFE000
00FFFFF000
03FF1FF800
07F007FC00
0FC001FC00
1F00007E00
3E00003F00
3C00001F00
7800000F80
7800000780
7000000780
7000000780
F000000780
F000000780
F000000780
F000000780
7000000F80
7800000F80
7800001F80
7C00003F00
3C00007F00
3E0000FE00
1F0003FC00
1FC00FFC00
0FF87FF000
07FFFFE000
01FFFFC000
007FFF0000
000FF00000
ENDCHAR
STARTCHAR Obreve
ENCODING 334
SWIDTH 609 0
DWIDTH 46 0
BBX 43 49 1 0
BITMAP
000000400000
000180380000
000180380000
0001C0700000
0000F1F00000
0000FFE00000
00007FC00000
00001E000000
000000000000
000000000000
000000000000
000000000000
000000000000
003FE0000000
00FFFC000000
03FFFF800000
07FFFFE00000
0FE07FF80000
1F8007FE0000
1E0000FF0000
3C00003FC000
3C00000FE000
78000007F000
78000001F800
70000000FC00
700000007C00
F00000003E00
F00000001F00
F00000001F00
F00000000F80
F00000000780
7000000007C0
7000000007C0
7800000003C0
7800000003C0
7C00000003E0
3C00000003E0
3E00000003E0
1F00000003C0
1F80000007C0
0FC000000F80
07E000001F80
07F800007F00
03FE0003FE00
01FFC01FFC00
007FFFFFF000
003FFFFFC000
0007FFFE0000
0000FF800000
ENDCHAR
STARTCHAR obreve
ENCODING 335
SWIDTH 487 0
DWIDTH 37 0
BBX 33 45 1 0
BITMAP
0000200000
00C01C0000
00C01C0000
00E0380000
00F8F80000
007FF00000
003FE00000
000F000000
0000000000
0000000000
0000000000
0000000000
0000000000
0000000000
0001FE0000
000FFF8000
007FFFE000
00FFFFF000
03FF1FF800
07F007FC00
0FC001FC00
1F00007E00
3E00003F00
3C00001F00
7800000F80
7800000780
7000000780
7000000780
F000000780
F000000780
F000000780
F000000780
7000000F80
7800000F80
7800001F80
7C00003F00
3C00007F00
3E0000FE00
1F0003FC00
1FC00FFC00
0FF87FF000
07FFFFE000
01FFFFC000
007FFF0000
000FF00000
ENDCHAR
STARTCHAR Ohungarumlaut
ENCODING 336
SWIDTH 609 0
DWIDTH 46 0
BBX 43 53 1 0
BITMAP
000030000000
0000F8380000
0001F8780000
0003F1F80000
0007E3F00000
000FC7E00000
000F87C00000
000F07800000
000E0F000000
000006000000
000000000000
000000000000
000000000000
000000000000
000000000000
000000000000
000000000000
003FE0000000
00FFFC000000
03FFFF800000
07FFFFE00000
0FE07FF80000
1F8007FE0000
1E0000FF0000
3C00003FC000
3C00000FE000
78000007F000
78000001F800
70000000FC00
700000007C00
F00000003E00
F00000001F00
F00000001F00
F00000000F80
F00000000780
7000000007C0
7000000007C0
7800000003C0
7800000003C0
7C00000003E0
3C00000003E0
3E00000003E0
1F00000003C0
1F80000007C0
0FC000000F80
07E000001F80
07F800007F00
03FE0003FE00
01FFC01FFC00
007FFFFFF000
003FFFFFC000
0007FFFE0000
0000FF800000
ENDCHAR
STARTCHAR ohungarumlaut
ENCODING 337
SWIDTH 487 0
DWIDTH 37 0
BBX 33 42 1 0
BITMAP
0007000000
000F030000
003F0F8000
007E1F8000
00FC3F0000
00F87E0000
00F0FC0000
00E0F80000
00C0F00000
0000E00000
0000000000
0001FE0000
000FFF8000
007FFFE000
00FFFFF000
03FF1FF800
07F007FC00
0FC001FC00
1F00007E00
3E00003F00
3C00001F00
7800000F80
7800000780
7000000780
7000000780
F000000780
F000000780
F000000780
F000000780
7000000F80
7800000F80
7800001F80
7C00003F00
3C00007F00
3E0000FE00
1F0003FC00
1FC00FFC00
0FF87FF000
07FFFFE000
01FFFFC000
007FFF0000
000FF00000
ENDCHAR
STARTCHAR OE
ENCODING 338
SWIDTH 848 0
DWIDTH 64 0
BBX 61 37 1 0
BITMAP
0006000000000000
003FE00000000000
00FFFC0FFFFFFFC0
03FFFE0FFFFFFFE0
07FFFF8FFFFFFFF0
0FC03FCF00000010
1F000FEF00000000
1E0007EF00000000
3C0003FF00000000
3C0001FF00000000
780000FF00000000
780000FF00000000
7000007F00000000
F000007F00000000
F000003F00000FE0
F000003F0007FFC0
F000003FFFFFFF00
F000003FFFFFF800
F000001FFFE00000
7000001F00000000
7000001E00000000
7800001E00000000
7800001E00000000
7C00001E00000000
3E00001E00000000
3E00001E00000000
1F00001E00000000
1F80003E00000000
0FC0003E00000000
07F0007E00000000
03F8007E00000000
01FF00FE00000000
00FFE3FE00007FF0
007FFFFFFFFFFFF8
001FFFF7FFFFFFF8
0007FFC3FFFFFFC0
00007E003FFFF000
ENDCHAR
STARTCHAR oe
ENCODING 339
SWIDTH 875 0
DWIDTH 66 0
BBX 64 39 1 -3
BITMAP
0000000000FF0000
0000000003FFC000
000000000FFFE000
000000001FF7F000
000000003F00F800
0001FE007C007C00
001FFF80F8003C00
007FFFE1F0003C00
01FFFFF1E0003C00
03FF1FFBE0001E00
07F003FFC0001E00
0FC000FFC0001E00
1F00007F80001E00
3E00003F80003C00
3C00001F80007C00
7800000F8000F800
7800000F8003F800
7000000F800FF000
7000000F807FE000
F000000FBFFF8000
F000000FBFFE0000
F000000F9FF80000
F000000786000000
7000000F80000000
7800000F80000000
7800001F80000000
7C00003FC0000000
3C00007FC0000000
3E0000FFE0000000
1F0003FDF0000000
1FC00FFCF8000000
0FF03FF07E000000
07FFFFE03F800000
01FFFFC01FFC003F
00FFFF000FFFFFFC
001FF80007FFFFF8
0000000001FFFFE0
00000000003FFF80
000000000001E000
ENDCHAR
STARTCHAR Racute
ENCODING 340
SWIDTH 579 0
DWIDTH 43 0
BBX 43 63 -1 -3
BITMAP
0000000C0000
0000001C0000
0000007C0000
000000F80000
000003F00000
000007E00000
00000FC00000
00000F800000
00001F000000
00001E000000
00001C000000
000000000000
000000000000
000FFF000000
03FFFFF80000
0FFFFFFE0000
3FFFFFFFC000
7FF03FFFE000
7E00001FF000
F8000003FC00
F0000000FC00
F00000007E00
600000003F00
601000001F00
203800000F00
003C00000F00
003C00000F00
003C00001F00
003C00003F00
003C0000FF00
003C0003FE00
003C001FFC00
003E03FFF800
003EFFFFE000
001FFFFF8000
001FFFF80000
001FFFC00000
001FF8000000
001F80000000
001F80000000
001FC0000000
000FE0000000
000FE0000000
000FF0000000
000FF8000000
000F7C000000
00073E000000
00071F000000
00070F800000
000787C00000
000783E00000
000381F00000
000380FC0000
0003C07E0000
0003C01F0000
0001C00FC000
0001C007E000
0001C003F800
0000C001FE00
000100007F00
000000003FC0
000000000FE0
0000000003C0
ENDCHAR
STARTCHAR racute
ENCODING 341
SWIDTH 346 0
DWIDTH 26 0
BBX 24 49 1 0
BITMAP
000060
0001E0
0003E0
000FC0
001F80
003F00
007E00
00FC00
00F000
01E000
01C000
000000
000000
000000
000000
000F80
007FF8
03FFFE
6FFFFF
FFC3FF
FF003F
FC0001
FC0000
F80000
F80000
780000
780000
780000
780000
780000
780000
7C0000
3C0000
3C0000
3C0000
3E0000
3E0000
1E0000
1F0000
1F0000
0F0000
0F8000
0F8000
078000
078000
07C000
03C000
038000
010000
ENDCHAR
STARTCHAR Rcommaaccent
ENCODING 342
SWIDTH 579 0
DWIDTH 43 0
BBX 43 72 -1 -25
BITMAP
000FFF000000
03FFFFF80000
0FFFFFFE0000
3FFFFFFFC000
7FF03FFFE000
7E00001FF000
F8000003FC00
F0000000FC00
F00000007E00
600000003F00
601000001F00
203800000F00
003C00000F00
003C00000F00
003C00001F00
003C00003F00
003C0000FF00
003C0003FE00
003C001FFC00
003E03FFF800
003EFFFFE000
001FFFFF8000
001FFFF80000
001FFFC00000
001FF8000000
001F80000000
001F80000000
001FC0000000
000FE0000000
000FE0000000
000FF0000000
000FF8000000
000F7C000000
00073E000000
00071F000000
00070F800000
000787C00000
000783E00000
000381F00000
000380FC0000
0003C07E0000
0003C01F0000
0001C00FC000
0001C007E000
0001C003F800
0000C001FE00
000100007F00
000000003FC0
000000000FE0
0000000003C0
000000000000
000000000000
000000000000
000000000000
000000000000
000000000000
000007800000
00000F800000
00000F800000
00000FC00000
000007C00000
000007C00000
000003C00000
000007C00000
000007C00000
000007C00000
00000F800000
00000F800000
00000F800000
00000F000000
00000F000000
000006000000
ENDCHAR
STARTCHAR rcommaaccent
ENCODING 343
SWIDTH 346 0
DWIDTH 26 0
BBX 24 58 1 -24
BITMAP
000F80
007FF8
03FFFE
6FFFFF
FFC3FF
FF003F
FC0001
FC0000
F80000
F80000
780000
780000
780000
780000
780000
780000
7C0000
3C0000
3C0000
3C0000
3E0000
3E0000
1E0000
1F0000
1F0000
0F0000
0F8000
0F8000
078000
078000
07C000
03C000
038000
018000
000000
000000
000000
000000
000000
000000
000000
000000
003C00
007C00
007C00
007E00
007E00
003E00
003E00
003E00
003E00
003E00
007C00
007C00
007C00
007800
007800
006000
ENDCHAR
STARTCHAR Rcaron
ENCODING 344
SWIDTH 579 0
DWIDTH 43 0
BBX 43 65 -1 -3
BITMAP
000000020000
0007C00F8000
000FF03F0000
0001F87F0000
00007FFE0000
00001FF80000
00000FF00000
000007C00000
000007800000
000000000000
000000000000
000000000000
000000000000
000000000000
000000000000
000FFF000000
03FFFFF80000
0FFFFFFE0000
3FFFFFFFC000
7FF03FFFE000
7E00001FF000
F8000003FC00
F0000000FC00
F00000007E00
600000003F00
601000001F00
203800000F00
003C00000F00
003C00000F00
003C00001F00
003C00003F00
003C0000FF00
003C0003FE00
003C001FFC00
003E03FFF800
003EFFFFE000
001FFFFF8000
001FFFF80000
001FFFC00000
001FF8000000
001F80000000
001F80000000
001FC0000000
000FE0000000
000FE0000000
000FF0000000
000FF8000000
000F7C000000
00073E000000
00071F000000
00070F800000
000787C00000
000783E00000
000381F00000
000380FC0000
0003C07E0000
0003C01F0000
0001C00FC000
0001C007E000
0001C003F800
0000C001FE00
000100007F00
000000003FC0
000000000FE0
0000000003C0
ENDCHAR
STARTCHAR rcaron
ENCODING 345
SWIDTH 346 0
DWIDTH 26 0
BBX 24 46 1 0
BITMAP
000008
3F003C
1F80FC
07E1F8
01FFF0
007FE0
003F80
003F00
001E00
000000
000000
000000
000F80
007FF8
03FFFE
6FFFFF
FFC3FF
FF003F
FC0001
FC0000
F80000
F80000
780000
780000
780000
780000
780000
780000
7C0000
3C0000
3C0000
3C0000
3E0000
3E0000
1E0000
1F0000
1F0000
0F0000
0F8000
0F8000
078000
078000
07C000
03C000
038000
010000
ENDCHAR
STARTCHAR Sacute
ENCODING 346
SWIDTH 627 0
DWIDTH 47 0
BBX 44 61 1 -1
BITMAP
000000300000
000000F00000
000001F00000
000007E00000
00000FC00000
00001F800000
00003F000000
00007E000000
000078000000
0000F0000000
000060000000
000000000000
000000000000
000000000000
000000000000
00003FF80000
0001FFFF8000
0007FFFFE000
000FFE1FF800
003F8003FC00
003C0000FE00
007800003F00
007800001F00
007000000400
007000000000
007800000000
007800000000
007C00000000
003C00000000
003F00000000
001F80000000
000FC0000000
0007F0000000
0001FC000000
00007F000000
00003FE00000
00000FF80000
000003FE0000
000000FF8000
0000003FE000
0000000FF800
00000007FC00
10000001FE00
300000007F80
700000001F80
7800000007C0
F800000003E0
7800000001F0
7800000001F0
7C00000001F0
3E00000001F0
1F00000001F0
0F80000001F0
07C0000001F0
03F8000007E0
01FF00001FC0
007FFFFFFF80
001FFFFFFF00
0003FFFFFC00
00007FFFE000
000000380000
ENDCHAR
STARTCHAR sacute
ENCODING 347
SWIDTH 514 0
DWIDTH 39 0
BBX 35 52 1 0
BITMAP
0000018000
000003C000
00000F8000
00001F0000
00003F0000
0000FC0000
0001F80000
0001F00000
0003E00000
0003C00000
0003800000
0000000000
0000000000
0000000000
0000000000
0000000000
0000000000
0000000000
007FE00000
03FFF80000
07FFFE0000
0FFFFF0000
1FC01F0000
3F00078000
3C00038000
3C00038000
3C00038000
3C00078000
3C00070000
1E00020000
1F00000000
0FC0000000
07FE000000
03FFFF0000
00FFFFF800
000FFFFE00
00000FFF80
0000003FC0
0000000FC0
00000007E0
00000003E0
00000003E0
40000003E0
F8000003E0
7C000003E0
7F000003E0
3FC0000FE0
1FF8003FC0
0FFFFFFF80
03FFFFFF00
00FFFFFC00
0007FFE000
ENDCHAR
STARTCHAR Scircumflex
ENCODING 348
SWIDTH 627 0
DWIDTH 47 0
BBX 44 67 1 -1
BITMAP
000007000000
000007800000
000007C00000
000007E00000
00000FE00000
00000FF00000
00001FF80000
00001FFC0000
00003FFE0000
00007CFF0000
0001F87F0000
0003F03F0000
0007E01F8000
000FC00F8000
000780078000
000000010000
000000000000
000000000000
000000000000
000000000000
000000000000
00003FF80000
0001FFFF8000
0007FFFFE000
000FFE1FF800
003F8003FC00
003C0000FE00
007800003F00
007800001F00
007000000400
007000000000
007800000000
007800000000
007C00000000
003C00000000
003F00000000
001F80000000
000FC0000000
0007F0000000
0001FC000000
00007F000000
00003FE00000
00000FF80000
000003FE0000
000000FF8000
0000003FE000
0000000FF800
00000007FC00
10000001FE00
300000007F80
700000001F80
7800000007C0
F800000003E0
7800000001F0
7800000001F0
7C00000001F0
3E00000001F0
1F00000001F0
0F80000001F0
07C0000001F0
03F8000007E0
01FF00001FC0
007FFFFFFF80
001FFFFFFF00
0003FFFFFC00
00007FFFE000
000000380000
ENDCHAR
STARTCHAR scircumflex
ENCODING 349
SWIDTH 514 0
DWIDTH 39 0
BBX 35 55 1 0
BITMAP
0000700000
0000780000
0000780000
0000FC0000
0000FE0000
0001FF0000
0001FF8000
0003FFC000
0007FFC000
000FCFE000
001F87F000
003F03F000
007E01F000
00FC00F000
0078007000
0000003000
0000000000
0000000000
0000000000
0000000000
0000000000
007FE00000
03FFF80000
07FFFE0000
0FFFFF0000
1FC01F0000
3F00078000
3C00038000
3C00038000
3C00038000
3C00078000
3C00070000
1E00020000
1F00000000
0FC0000000
07FE000000
03FFFF0000
00FFFFF800
000FFFFE00
00000FFF80
0000003FC0
0000000FC0
00000007E0
00000003E0
00000003E0
40000003E0
F8000003E0
7C000003E0
7F000003E0
3FC0000FE0
1FF8003FC0
0FFFFFFF80
03FFFFFF00
00FFFFFC00
0007FFE000
ENDCHAR
STARTCHAR Scedilla
ENCODING 350
SWIDTH 627 0
DWIDTH 47 0
BBX 44 68 1 -23
BITMAP
00003FF80000
0001FFFF8000
0007FFFFE000
000FFE1FF800
003F8003FC00
003C0000FE00
007800003F00
007800001F00
007000000400
007000000000
007800000000
007800000000
007C00000000
003C00000000
003F00000000
001F80000000
000FC0000000
0007F0000000
0001FC000000
00007F000000
00003FE00000
00000FF80000
000003FE0000
000000FF8000
0000003FE000
0000000FF800
00000007FC00
10000001FE00
300000007F80
700000001F80
7800000007C0
F800000003E0
7800000001F0
7800000001F0
7C00000001F0
3E00000001F0
1F00000001F0
0F80000001F0
07C0000001F0
03F8000007E0
01FF00001FC0
007FFFFFFF80
001FFFFFFF00
0003FFFFFC00
0003BFFFE000
000380380000
000380000000
000380000000
000380000000
000380000000
0003C0000000
0001E0000000
0001FC000000
00007FE00000
00003FF80000
000003FE0000
0000003E0000
0000001F0000
0000000F0000
0000000F0000
0007000F0000
0007C00F0000
0003E00F0000
0001F00F0000
0000FC3E0000
00007FFC0000
00003FF80000
00000FC00000
ENDCHAR
STARTCHAR scedilla
ENCODING 351
SWIDTH 514 0
DWIDTH 39 0
BBX 35 57 1 -23
BITMAP
007FE00000
03FFF80000
07FFFE0000
0FFFFF0000
1FC01F0000
3F00078000
3C00038000
3C00038000
3C00038000
3C00078000
3C00070000
1E00020000
1F00000000
0FC0000000
07FE000000
03FFFF0000
00FFFFF800
000FFFFE00
00000FFF80
0000003FC0
0000000FC0
00000007E0
00000003E0
00000003E0
40000003E0
F8000003E0
7C000003E0
7F000003E0
3FC0000FE0
1FF8003FC0
07FFFFFF80
03FFFFFF00
00FFFFFC00
003FFFE000
0038000000
0038000000
0038000000
0038000000
0038000000
003C000000
001E000000
001FC00000
000FFE0000
0003FF8000
00003FC000
000003E000
000001F000
000000F000
000000F000
007000F000
007800F000
003E00F000
001F00F000
001FC3E000
000FFFC000
0003FF8000
0000FC0000
ENDCHAR
STARTCHAR Scaron
ENCODING 352
SWIDTH 627 0
DWIDTH 47 0
BBX 44 58 1 -1
BITMAP
000000020000
0007C00F8000
000FF03F8000
0000F87F0000
00007FFE0000
00001FF80000
00000FF00000
000007C00000
000007800000
000000000000
000000000000
000000000000
00003FF80000
0001FFFF8000
0007FFFFE000
000FFE1FF800
003F8003FC00
003C0000FE00
007800003F00
007800001F00
007000000400
007000000000
007800000000
007800000000
007C00000000
003C00000000
003F00000000
001F80000000
000FC0000000
0007F0000000
0001FC000000
00007F000000
00003FE00000
00000FF80000
000003FE0000
000000FF8000
0000003FE000
0000000FF800
00000007FC00
10000001FE00
300000007F80
700000001F80
7800000007C0
F800000003E0
7800000001F0
7800000001F0
7C00000001F0
3E00000001F0
1F00000001F0
0F80000001F0
07C0000001F0
03F8000007E0
01FF00001FC0
007FFFFFFF80
001FFFFFFF00
0003FFFFFC00
00007FFFE000
000000380000
ENDCHAR
STARTCHAR scaron
ENCODING 353
SWIDTH 514 0
DWIDTH 39 0
BBX 35 46 1 0
BITMAP
0000002000
00FC00F000
007F03F000
001F87F000
0007FFE000
0001FF8000
0000FF0000
0000FC0000
0000780000
0000000000
0000000000
0000000000
007FE00000
03FFF80000
07FFFE0000
0FFFFF0000
1FC01F0000
3F00078000
3C00038000
3C00038000
3C00038000
3C00078000
3C00070000
1E00020000
1F00000000
0FC0000000
07FE000000
03FFFF0000
00FFFFF800
000FFFFE00
00000FFF80
0000003FC0
0000000FC0
00000007E0
00000003E0
00000003E0
40000003E0
F8000003E0
7C000003E0
7F000003E0
3FC0000FE0
1FF8003FC0
0FFFFFFF80
03FFFFFF00
00FFFFFC00
0007FFE000
ENDCHAR
STARTCHAR Tcommaaccent
ENCODING 354
SWIDTH 581 0
DWIDTH 44 0
BBX 50 68 0 -22
BITMAP
FFFFFE00000000
FFFFFFFFF80000
7FFFFFFFFFE000
03FFFFFFFFFE00
0007FFFFFFFF80
000001E007FFC0
000001E0007FC0
000001E00007C0
000001E0000000
000001E0000000
000001E0000000
000000E0000000
000000E0000000
000000E0000000
000000F0000000
000000F0000000
000000F0000000
000000F0000000
000000F0000000
000000F0000000
000000F0000000
000000F0000000
000000F8000000
00000078000000
00000078000000
00000078000000
00000078000000
00000078000000
00000078000000
0000007C000000
0000007C000000
0000007C000000
0000003C000000
0000003C000000
0000003C000000
0000003E000000
0000003E000000
0000003E000000
0000003E000000
0000003F000000
0000001F000000
0000001F800000
0000001F800000
0000001FC00000
0000000FC00000
00000007800000
00000000000000
00000000000000
00000000000000
00000000000000
00000000000000
00000000000000
0000001E000000
0000001F000000
0000001F000000
0000001F000000
0000001F000000
0000000F000000
0000000F000000
0000000F000000
0000000F000000
0000000F000000
0000001F000000
0000003F000000
0000003E000000
0000003E000000
0000003C000000
00000018000000
ENDCHAR
STARTCHAR tcommaaccent
ENCODING 355
SWIDTH 328 0
DWIDTH 25 0
BBX 23 71 1 -24
BITMAP
007000
00F000
00F800
00F800
00F800
00F800
00F800
00F800
007800
007800
007800
007800
00F800
00F800
00F800
00F800
00F800
3FFFFC
FFFFFE
FFFFFE
7FFFFE
0FFE00
007C00
007C00
007C00
007C00
007C00
007C00
007C00
007C00
007C00
007C00
007C00
007C00
007C00
007C00
007C00
007C00
007C00
007C00
007C00
007C00
003C00
003C00
003C00
001C00
001C00
000000
000000
000000
000000
000000
000000
000000
000000
007800
00F800
00FC00
00FC00
007C00
003C00
003C00
003C00
003C00
003C00
007C00
00F800
00F800
00F800
00F000
006000
ENDCHAR
STARTCHAR Tcaron
ENCODING 356
SWIDTH 581 0
DWIDTH 44 0
BBX 50 57 0 0
BITMAP
00000002000000
000F801F000000
0007E03F000000
0001F8FE000000
00007FFC000000
00003FF8000000
00001FE0000000
00000FC0000000
00000F00000000
00000000000000
00000000000000
FFFFFE00000000
FFFFFFFFF80000
7FFFFFFFFFE000
03FFFFFFFFFE00
0007FFFFFFFF80
000001E007FFC0
000001E0007FC0
000001E00007C0
000001E0000000
000001E0000000
000001E0000000
000000E0000000
000000E0000000
000000E0000000
000000F0000000
000000F0000000
000000F0000000
000000F0000000
000000F0000000
000000F0000000
000000F0000000
000000F0000000
000000F8000000
00000078000000
00000078000000
00000078000000
00000078000000
00000078000000
00000078000000
0000007C000000
0000007C000000
0000007C000000
0000003C000000
0000003C000000
0000003C000000
0000003E000000
0000003E000000
0000003E000000
0000003E000000
0000003F000000
0000001F000000
0000001F800000
0000001F800000
0000001FC00000
0000000FC00000
00000007800000
ENDCHAR
STARTCHAR tcaron
ENCODING 357
SWIDTH 431 0
DWIDTH 32 0
BBX 30 55 1 0
BITMAP
00000020
00000070
00000070
00000078
00000078
00000078
00000078
0000007C
0070007C
00F0007C
00F8007C
00F8003C
00F8003C
00F8003C
00F8003C
00F8003C
0078001C
0078001C
00780000
00780000
00F80000
00F80000
00F80000
00F80000
00F80000
3FFFFC00
FFFFFE00
FFFFFE00
7FFFFE00
0FFE0000
007C0000
007C0000
007C0000
007C0000
007C0000
007C0000
007C0000
007C0000
007C0000
007C0000
007C0000
007C0000
007C0000
007C0000
007C0000
007C0000
007C0000
007C0000
007C0000
007C0000
003C0000
003C0000
003C0000
001C0000
001C0000
ENDCHAR
STARTCHAR Utilde
ENCODING 360
SWIDTH 571 0
DWIDTH 43 0
BBX 40 52 2 0
BITMAP
0004000200
003F800780
007FE00F80
00FDF01F00
01E0FC7E00
01E03FFC00
01C01FF000
01C007F000
01C0018000
01C0000000
00C0000000
0C00000000
3E00000600
3E00000700
7C00000700
7800000F00
7000000F80
F000000F80
F000000F80
F000000F80
F000000F80
F000000F80
F000000F80
F000000780
F000000780
F000000780
F000000780
F000000780
F0000003C0
F0000003C0
70000003C0
70000003C0
70000001E0
78000001E0
78000001E0
78000001F0
38000001F0
3C000001F0
3C000003F8
1E000003F8
1E000007FC
1F00000FFC
0F00001FFC
0F80003FFE
07C000FE7E
07E003F83E
03F80FF03F
01FFFFC01F
01FFFF800F
00FFFE0006
003FF80000
000FE00000
ENDCHAR
STARTCHAR utilde
ENCODING 361
SWIDTH 501 0
DWIDTH 38 0
BBX 35 49 1 1
BITMAP
0008000200
007F000700
00FFC01F00
01FBF03E00
03E0FCFC00
03C07FF800
03803FF000
03800FE000
0380030000
0180000000
0080000000
0000000000
0000000000
0000000000
1000000000
7800000000
7800000000
F800000000
F000003800
F000003800
F000003C00
F000003C00
F000003C00
F000003C00
F000003E00
F000003E00
F000003E00
7800003E00
7800003E00
7800003E00
7800003E00
7C00003E00
3C00007E00
3C00007E00
3E00007E00
1E0000FE00
1F0001FF00
1F0001FF00
0F8003FF00
0FC007EF80
07E00F8780
03F01F0780
03FC7E03C0
01FFFC03C0
00FFF803C0
003FF003E0
000FC001E0
00000001E0
00000001E0
ENDCHAR
STARTCHAR Umacron
ENCODING 362
SWIDTH 571 0
DWIDTH 43 0
BBX 40 52 2 0
BITMAP
0000040000
000FFFF000
001FFFF800
003FFFF800
003FFFF800
003F001000
0000000000
0000000000
0000000000
0000000000
0000000000
0C00000000
3E00000600
3E00000700
7C00000700
7800000F00
7000000F80
F000000F80
F000000F80
F000000F80
F000000F80
F000000F80
F000000F80
F000000780
F000000780
F000000780
F000000780
F000000780
F0000003C0
F0000003C0
70000003C0
70000003C0
70000001E0
78000001E0
78000001E0
78000001F0
38000001F0
3C000001F0
3C000003F8
1E000003F8
1E000007FC
1F00000FFC
0F00001FFC
0F80003FFE
07C000FE7E
07E003F83E
03F80FF03F
01FFFFC01F
01FFFF800F
00FFFE0006
003FF80000
000FE00000
ENDCHAR
STARTCHAR umacron
ENCODING 363
SWIDTH 501 0
DWIDTH 38 0
BBX 35 44 1 1
BITMAP
0000200000
007FFF0000
01FFFF8000
01FFFFC000
03FFFFC000
03F0010000
0000000000
0000000000
0000000000
1000000000
7800000000
7800000000
F800000000
F000003800
F000003800
F000003C00
F000003C00
F000003C00
F000003C00
F000003E00
F000003E00
F000003E00
7800003E00
7800003E00
7800003E00
7800003E00
7C00003E00
3C00007E00
3C00007E00
3E00007E00
1E0000FE00
1F0001FF00
1F0001FF00
0F8003FF00
0FC007EF80
07E00F8780
03F01F0780
03FC7E03C0
01FFFC03C0
00FFF803C0
003FF003E0
000FC001E0
00000001E0
00000001E0
ENDCHAR
STARTCHAR Ubreve
ENCODING 364
SWIDTH 571 0
DWIDTH 43 0
BBX 40 49 2 0
BITMAP
0000010000
000601C000
000601C000
000701C000
0007C7C000
0003FF8000
0001FF0000
0000780000
0C00000000
3E00000600
3E00000700
7C00000700
7800000F00
7000000F80
F000000F80
F000000F80
F000000F80
F000000F80
F000000F80
F000000F80
F000000780
F000000780
F000000780
F000000780
F000000780
F0000003C0
F0000003C0
70000003C0
70000003C0
70000001E0
78000001E0
78000001E0
78000001F0
38000001F0
3C000001F0
3C000003F8
1E000003F8
1E000007FC
1F00000FFC
0F00001FFC
0F80003FFE
07C000FE7E
07E003F83E
03F80FF03F
01FFFFC01F
01FFFF800F
00FFFE0006
003FF80000
000FE00000
ENDCHAR
STARTCHAR ubreve
ENCODING 365
SWIDTH 501 0
DWIDTH 38 0
BBX 35 44 1 1
BITMAP
0000100000
00600E0000
00601C0000
00701C0000
007C7C0000
003FF80000
001FF00000
0007800000
0000000000
1000000000
7800000000
7800000000
F800000000
F000003800
F000003800
F000003C00
F000003C00
F000003C00
F000003C00
F000003E00
F000003E00
F000003E00
7800003E00
7800003E00
7800003E00
7800003E00
7C00003E00
3C00007E00
3C00007E00
3E00007E00
1E0000FE00
1F0001FF00
1F0001FF00
0F8003FF00
0FC007EF80
07E00F8780
03F01F0780
03FC7E03C0
01FFFC03C0
00FFF803C0
003FF003E0
000FC001E0
00000001E0
00000001E0
ENDCHAR
STARTCHAR Uring
ENCODING 366
SWIDTH 571 0
DWIDTH 43 0
BBX 40 54 2 0
BITMAP
0000380000
0001FE0000
0003FF0000
0007078000
000E038000
000C018000
000C018000
000C018000
000C038000
000E078000
0007FF0000
0003FE0000
0000F00000
0C00000000
3E00000600
3E00000700
7C00000700
7800000F00
7000000F80
F000000F80
F000000F80
F000000F80
F000000F80
F000000F80
F000000F80
F000000780
F000000780
F000000780
F000000780
F000000780
F0000003C0
F0000003C0
70000003C0
70000003C0
70000001E0
78000001E0
78000001E0
78000001F0
38000001F0
3C000001F0
3C000003F8
1E000003F8
1E000007FC
1F00000FFC
0F00001FFC
0F80003FFE
07C000FE7E
07E003F83E
03F80FF03F
01FFFFC01F
01FFFF800F
00FFFE0006
003FF80000
000FE00000
ENDCHAR
STARTCHAR uring
ENCODING 367
SWIDTH 501 0
DWIDTH 38 0
BBX 35 42 1 1
BITMAP
0000700000
0007F80000
000FFC0000
001E1E0000
00180E0000
0038070000
0030070000
1030070000
78380E0000
78181E0000
F81FFC0000
F00FF83800
F001E03800
F000003C00
F000003C00
F000003C00
F000003C00
F000003E00
F000003E00
F000003E00
7800003E00
7800003E00
7800003E00
7800003E00
7C00003E00
3C00007E00
3C00007E00
3E00007E00
1E0000FE00
1F0001FF00
1F0001FF00
0F8003FF00
0FC007EF80
07E00F8780
03F01F0780
03FC7E03C0
01FFFC03C0
00FFF803C0
003FF003E0
000FC001E0
00000001E0
00000001E0
ENDCHAR
STARTCHAR Uhungarumlaut
ENCODING 368
SWIDTH 571 0
DWIDTH 43 0
BBX 40 53 2 0
BITMAP
0001C00000
0003E0C000
0007C1E000
001F87E000
001F0FC000
003E1F8000
003C3F0000
00383E0000
00303C0000
0000380000
0000000000
0000000000
0C00000000
3E00000600
3E00000700
7C00000700
7800000F00
7000000F80
F000000F80
F000000F80
F000000F80
F000000F80
F000000F80
F000000F80
F000000780
F000000780
F000000780
F000000780
F000000780
F0000003C0
F0000003C0
70000003C0
70000003C0
70000001E0
78000001E0
78000001E0
78000001F0
38000001F0
3C000001F0
3C000003F8
1E000003F8
1E000007FC
1F00000FFC
0F00001FFC
0F80003FFE
07C000FE7E
07E003F83E
03F80FF03F
01FFFFC01F
01FFFF800F
00FFFE0006
003FF80000
000FE00000
ENDCHAR
STARTCHAR uhungarumlaut
ENCODING 369
SWIDTH 501 0
DWIDTH 38 0
BBX 35 50 1 1
BITMAP
0000E00000
0001F06000
0003E0F000
000FC3F000
000F87E000
001F0FC000
001E1F8000
001C1F0000
00181E0000
00001C0000
0000000000
0000000000
0000000000
0000000000
0000000000
1000000000
7800000000
7800000000
F800000000
F000003800
F000003800
F000003C00
F000003C00
F000003C00
F000003C00
F000003E00
F000003E00
F000003E00
7800003E00
7800003E00
7800003E00
7800003E00
7C00003E00
3C00007E00
3C00007E00
3E00007E00
1E0000FE00
1F0001FF00
1F0001FF00
0F8003FF00
0FC007EF80
07E00F8780
03F01F0780
03FC7E03C0
01FFFC03C0
00FFF803C0
003FF003E0
000FC001E0
00000001E0
00000001E0
ENDCHAR
STARTCHAR Uogonek
ENCODING 370
SWIDTH 571 0
DWIDTH 43 0
BBX 42 50 3 -12
BITMAP
080000000000
1E0000020000
3E0000060000
7C0000070000
7800000F0000
7000000F0000
F000000F8000
F000000F8000
F000000F8000
E000000F8000
E000000F8000
E000000F8000
E000000F8000
E00000078000
F00000078000
F00000078000
F00000078000
F00000078000
F0000003C000
F0000003C000
70000003C000
70000003C000
70000001E000
78000001E000
78000001E000
78000001F000
3C000001F000
3C000003F800
3C000003F800
1E000007F800
1E00000FFC00
1F00001FFC00
0F80003FFC00
0FC0007FFE00
07E001FC3E00
03F007F03E00
03FFFFE03F00
01FFFF80FF00
00FFFF03FE00
007FFC07E000
001FF00FC000
0000000F0000
0000000E0000
0000001E0000
0000001E0000
0000001F0000
0000000F8000
0000000FF800
00000007FFC0
00000000FF80
ENDCHAR
STARTCHAR uogonek
ENCODING 371
SWIDTH 501 0
DWIDTH 38 0
BBX 38 45 1 -10
BITMAP
3800000000
7800000000
7800000000
F000001800
F000003800
F000003C00
F000003C00
F000003C00
F000003C00
F000003E00
F000003E00
F000003E00
7000003E00
7800003E00
7800003E00
7800003E00
7800003E00
7C00003E00
3C00007E00
3E00007E00
3E0000FE00
1E0000FF00
1F0001FF00
0F8003FF00
0F8007FF80
07C00F8F80
07E01F0780
03F83F03C0
01FFFE03C0
00FFFC03C0
007FF003E0
001FE007E0
0000001FE0
0000007FE0
000000FCC0
000000F800
000000F000
000001E000
000001E000
000001E000
000001F000
000000FC00
000000FFFC
0000003FF8
00000001F8
ENDCHAR
STARTCHAR Wcircumflex
ENCODING 372
SWIDTH 703 0
DWIDTH 53 0
BBX 50 66 1 0
BITMAP
000000E0000000
000000F0000000
000000F8000000
000001F8000000
000001FC000000
000001FE000000
000003FF000000
000007FF800000
00000FFFC00000
00001F9FC00000
00003F0FE00000
00007E07E00000
0000FC03F00000
0001F801F00000
0000F000E00000
00000000200000
00000000000000
00000000000000
00000000000000
00000000000000
00000000000000
00000000000000
00000000000000
00000000000000
00000000000000
00000000000000
00000000000000
00000000000000
00000000000000
60000000000000
60000000007000
F000000000F000
F000000000F800
F0000000007C00
F0000000007C00
F0000000007E00
F0000000007E00
F0000000003E00
F0000000003F00
F0000000003F00
F0000000001F00
F0000000001F00
F0000400001F80
F8000E00000F80
F8000F00000F80
F8000F000007C0
F8000F000007C0
F8000F000007C0
78000F000003C0
78000F800003C0
78000F800003C0
7C000F800003C0
7C000FC00003C0
3C000FC00003C0
3C001FE00003C0
3E003FF00003C0
1E007FF0000780
1E00FFF8000F80
1F01FC7C001F00
0F83F83E003F00
0FFFF01F80FE00
07FFC00FFFFC00
03FF8007FFF800
01FF0003FFF000
00FC0001FFC000
000000007E0000
ENDCHAR
STARTCHAR wcircumflex
ENCODING 373
SWIDTH 656 0
DWIDTH 49 0
BBX 46 55 1 0
BITMAP
000001800000
000003C00000
000003E00000
000003F00000
000007F00000
000007F80000
00000FFC0000
00000FFE0000
00001FFF0000
00003E7F8000
0000FC3F8000
0001F81FC000
0003F00FC000
0007E007C000
0003C003C000
000000008000
000000000000
000000000000
000000000000
000000000000
000000000000
000000000000
000000000000
100000000000
180000000000
380000000000
380000000000
780000000000
780000000300
780000000380
F800000003C0
F000018001E0
F00003C001E0
F00003C000F0
F00003C000F0
F00003C00078
F00003C00078
F00003C00078
F00003E0007C
F00003E0003C
F00003E0003C
780003E0003C
780003E0003C
780007E0003C
3C0007F0007C
3C000FF0007C
3E001FF8007C
1E003FFC00FC
0F007F7E03F8
0F81FE3FFFF8
07FFFC1FFFF0
03FFF80FFFE0
01FFF007FFC0
007FC001FF80
001F00000000
ENDCHAR
STARTCHAR Ycircumflex
ENCODING 374
SWIDTH 403 0
DWIDTH 30 0
BBX 28 67 1 -1
BITMAP
00070000
00078000
000F8000
000FC000
000FE000
001FF000
001FF800
003FFC00
007FFC00
00FCFE00
01F87F00
03F03F00
07E01F00
0FC00F00
07800700
00000200
00000000
00000000
E0000000
E0000000
F0000020
F00000F0
780000F0
780000F0
7C0000F0
3E0000F0
3E0001E0
1F0001E0
1F8001E0
0FC003E0
07E003E0
03F007C0
01F807C0
00FE0FC0
007F8F80
003FFF80
000FFF80
0003FF00
0001FF00
00007E00
00003E00
00003E00
00003C00
00007C00
00007800
00007800
0000F800
0000F000
0000F000
0001F000
0001E000
0001E000
0001E000
0001E000
0003C000
0003C000
0003C000
0003C000
0003C000
0003C000
0003C000
0003C000
0003C000
0003C000
0003C000
0003C000
0003C000
ENDCHAR
STARTCHAR ycircumflex
ENCODING 375
SWIDTH 487 0
DWIDTH 37 0
BBX 34 92 1 -37
BITMAP
0000E00000
0000F00000
0000F80000
0001F80000
0001FC0000
0001FE0000
0003FF0000
0007FF8000
000FFFC000
001F9FC000
003F0FE000
007E07E000
00FC03E000
01F801F000
00F000E000
0000006000
0000000000
0000000000
0000000000
0000000000
0000000000
0000000000
0000000C00
6000000C00
6000000C00
E000000E00
E000000E00
F000000E00
F000000E00
F000000F00
F000000F00
F000000F00
7000000F00
7800000F00
7800000F80
7800000F80
7800000F80
7C00000F80
3C00000F80
3C00000F80
3E00000780
1E00000780
1E00000FC0
0F00001FC0
0F80003FC0
0780007FC0
03C000FFC0
03E001FFC0
01F807FFC0
00FFFFE3C0
007FFF83C0
001FFE01C0
000FF801C0
0000C001C0
00000001C0
00000001C0
00000001C0
00000001C0
00000001C0
00000001C0
00000001C0
00000001C0
00000001C0
00000003C0
00000003C0
00000003C0
00000003C0
00000003C0
00000003C0
00000003C0
00000003C0
00000003C0
0000000780
0000000780
0000000780
1000000780
3800000780
3C00000780
3E00000F00
1F00000F00
1F80000F00
0FC0001E00
0FE0001E00
07F0003E00
03FC007C00
01FE00FC00
00FF83F800
003FFFF000
001FFFF000
0007FFE000
0000FF8000
00000C0000
ENDCHAR
STARTCHAR Ydieresis
ENCODING 376
SWIDTH 403 0
DWIDTH 30 0
BBX 28 58 1 -1
BITMAP
01E03C00
03F07E00
07F07F00
07F07F00
07F07F00
03E03E00
01C01C00
00000000
00000000
E0000000
E0000000
F0000020
F00000F0
780000F0
780000F0
7C0000F0
3E0000F0
3E0001E0
1F0001E0
1F8001E0
0FC003E0
07E003E0
03F007C0
01F807C0
00FE0FC0
007F8F80
003FFF80
000FFF80
0003FF00
0001FF00
00007E00
00003E00
00003E00
00003C00
00007C00
00007800
00007800
0000F800
0000F000
0000F000
0001F000
0001E000
0001E000
0001E000
0001E000
0003C000
0003C000
0003C000
0003C000
0003C000
0003C000
0003C000
0003C000
0003C000
0003C000
0003C000
0003C000
0003C000
ENDCHAR
STARTCHAR Zacute
ENCODING 377
SWIDTH 571 0
DWIDTH 43 0
BBX 41 64 1 0
BITMAP
000000C00000
000001E00000
000007C00000
00000FC00000
00001F800000
00007F000000
0000FC000000
0000F8000000
0001F0000000
0001E0000000
0001C0000000
000000000000
000000000000
000000000000
000000000000
000000000000
000000000000
000000000000
0FFFE0000000
3FFFFC000000
7FFFFF000000
FF80FF800000
FC000FC00000
E00003E00000
000001F00000
000000F00000
000000700000
000000780000
000000780000
000000380000
000000380000
000000780000
000000780000
000000780000
000000780000
000000F00000
000000F00000
000001F00000
000003F80000
00001FFFF000
0007FFFFFC00
007FFFFFFC00
00FFFFFFF000
01FFFFE08000
01FC3FC00000
00001F000000
00001E000000
00003C000000
00003C000000
000078000000
0000F0000000
0000F0000000
0001E0000000
0003E0000000
0007C0000000
0007C0000000
000F80000F00
000F8001FF80
000F001FFF80
000F83FFFF00
000FFFFFFE00
000FFFFFF000
0007FFFF0000
0003FFE00000
ENDCHAR
STARTCHAR zacute
ENCODING 378
SWIDTH 459 0
DWIDTH 35 0
BBX 31 53 1 0
BITMAP
00003000
00007800
0001F000
0003F000
0007E000
000FC000
001F0000
003E0000
007C0000
00780000
00700000
00000000
00000000
00000000
001F8000
07FFF000
1FFFFC00
7FFFFE00
7F007E00
FC001F00
78000F00
70000F00
00000F00
00000F00
00000F00
00000F00
00000F00
00001E00
00001E00
00003E00
00003E00
00007C00
000FFFF0
1FFFFFF0
3FFFFFE0
3FFFFC00
3FFFC000
000F8000
001F8000
003F0000
007E0000
00FC0000
00F80000
01F00000
03F00004
03F0000E
03F0007E
07F807FE
07FFFFFE
03FFFFFC
03FFFFF0
00FFFF80
001FF000
ENDCHAR
STARTCHAR Zdotaccent
ENCODING 379
SWIDTH 571 0
DWIDTH 43 0
BBX 41 57 1 0
BITMAP
0003C0000000
0003E0000000
0003E0000000
0003E0000000
0003E0000000
0001E0000000
000080000000
000000000000
000000000000
000000000000
000000000000
0FFFE0000000
3FFFFC000000
7FFFFF000000
FF80FF800000
FC000FC00000
E00003E00000
000001F00000
000000F00000
000000700000
000000780000
000000780000
000000380000
000000380000
000000780000
000000780000
000000780000
000000780000
000000F00000
000000F00000
000001F00000
000003F80000
00001FFFF000
0007FFFFFC00
007FFFFFFC00
00FFFFFFF000
01FFFFE08000
01FC3FC00000
00001F000000
00001E000000
00003C000000
00003C000000
000078000000
0000F0000000
0000F0000000
0001E0000000
0003E0000000
0007C0000000
0007C0000000
000F80000F00
000F8001FF80
000F001FFF80
000F83FFFF00
000FFFFFFE00
000FFFFFF000
0007FFFF0000
0003FFE00000
ENDCHAR
STARTCHAR zdotaccent
ENCODING 380
SWIDTH 459 0
DWIDTH 35 0
BBX 31 50 1 0
BITMAP
0003C000
0003E000
0003E000
0003E000
0001E000
0001E000
00004000
00000000
00000000
00000000
00000000
001F8000
07FFF000
1FFFFC00
7FFFFE00
7F007E00
FC001F00
78000F00
70000F00
00000F00
00000F00
00000F00
00000F00
00000F00
00001E00
00001E00
00003E00
00003E00
00007C00
000FFFF0
1FFFFFF0
3FFFFFE0
3FFFFC00
3FFFC000
000F8000
001F8000
003F0000
007E0000
00FC0000
00F80000
01F00000
03F00004
03F0000E
03F0007E
07F807FE
07FFFFFE
03FFFFFC
03FFFFF0
00FFFF80
001FF000
ENDCHAR
STARTCHAR Zcaron
ENCODING 381
SWIDTH 571 0
DWIDTH 43 0
BBX 41 59 1 0
BITMAP
000000400000
00F801F00000
017E03F00000
001F0FE00000
0007FFC00000
0003FF000000
0001FE000000
0000F8000000
0000F0000000
000000000000
000000000000
000000000000
000000000000
0FFFE0000000
3FFFFC000000
7FFFFF000000
FF80FF800000
FC000FC00000
E00003E00000
000001F00000
000000F00000
000000700000
000000780000
000000780000
000000380000
000000380000
000000780000
000000780000
000000780000
000000780000
000000F00000
000000F00000
000001F00000
000003F80000
00001FFFF000
0007FFFFFC00
007FFFFFFC00
00FFFFFFF000
01FFFFE08000
01FC3FC00000
00001F000000
00001E000000
00003C000000
00003C000000
000078000000
0000F0000000
0000F0000000
0001E0000000
0003E0000000
0007C0000000
0007C0000000
000F80000F00
000F8001FF80
000F001FFF80
000F83FFFF00
000FFFFFFE00
000FFFFFF000
0007FFFF0000
0003FFE00000
ENDCHAR
STARTCHAR zcaron
ENCODING 382
SWIDTH 459 0
DWIDTH 35 0
BBX 31 52 1 0
BITMAP
00000400
1F801E00
0FC07E00
03F1FC00
00FFF800
003FF000
001FC000
001F8000
000F0000
00000000
00000000
00000000
00000000
001F8000
07FFF000
1FFFFC00
7FFFFE00
7F007E00
FC001F00
78000F00
70000F00
00000F00
00000F00
00000F00
00000F00
00000F00
00001E00
00001E00
00003E00
00003E00
00007C00
000FFFF0
1FFFFFF0
3FFFFFE0
3FFFFC00
3FFFC000
000F8000
001F8000
003F0000
007E0000
00FC0000
00F80000
01F00000
03F00004
03F0000E
03F0007E
07F807FE
07FFFFFE
03FFFFFC
03FFFFF0
00FFFF80
001FF000
ENDCHAR
STARTCHAR florin
ENCODING 402
SWIDTH 376 0
DWIDTH 28 0
BBX 41 73 -7 -20
BITMAP
0000007C0000
000003FF8000
000007FFE000
00000FFFF000
00001FF3F800
00003F00FC00
00007E007E00
00007C003F00
0000F8001F00
0000F8000F80
0000F0000780
0001F0000000
0001E0000000
0001E0000000
0001E0000000
0001E0000000
0003E0000000
0003E0000000
0003E0000000
0003E0000000
0003E0000000
0003E0000000
0003E0000000
0003E0000000
0003E0000000
0003E0000000
0003E0000000
0003E0000000
0003F0000000
001FFFF80000
01FFFFFF8000
01FFFFFF8000
03FFFFFF8000
01C0F0000000
0000F0000000
0000F0000000
0000F0000000
0000F0000000
0000F0000000
0000F0000000
0000F0000000
0000F0000000
0000F0000000
0000F0000000
0000F0000000
0001F0000000
0001F0000000
0001F0000000
0001F0000000
0001F0000000
0001F0000000
0001F0000000
0001F0000000
0001E0000000
0001E0000000
0001E0000000
0001E0000000
0001E0000000
0001E0000000
E001E0000000
F001E0000000
F801E0000000
7C01E0000000
3E01E0000000
3F01E0000000
1F81E0000000
0FC3E0000000
03F7E0000000
01FFE0000000
00FFE0000000
003FE0000000
000FC0000000
000180000000
ENDCHAR
STARTCHAR AEacute
ENCODING 508
SWIDTH 960 0
DWIDTH 72 0
BBX 69 65 1 0
BITMAP
000000000030000000
000000000070000000
0000000001F0000000
0000000003E0000000
000000000FC0000000
000000001F80000000
000000003F00000000
000000007E00000000
0001FE007C00000000
000FFF807800000000
001FFFC07000000000
007FFFF00000000000
00FC03F80000000000
00F000F80000000000
01E0007C0000000000
03C0003E0000000000
03C0001F0000000000
0380000F0000000000
0780000F83E0000000
070000078FFFFFFF80
070000078FFFFFFFE0
0F000003CFFFFFFFF0
0E000003CFFFFFFCF0
0E000001EF00000010
0E000001EF00000000
0E000001EF00000000
1E000000FF00000000
1C000000FF00000000
1C000000FF00000000
1C0000007F00000000
1C0000007F00000000
1C0000007F00000000
1C0000007F00000000
1C0000007F00000000
1C0000007F00000000
1C0000007F00000FE0
1C0000003F0003FFC0
1C0000003F80FFFF80
1C0000007FFFFFFE00
1C0000007FFFFFF000
3FFFF8007FFFF00000
7FFFFFFFFFC0000000
FFFFFFFFFF00000000
7F8007FFFF00000000
3E0000003E00000000
1E0000003E00000000
1E0000003E00000000
1E0000001E00000000
1E0000001E00000000
1E0000001E00000000
1E0000001E00000000
1E0000001E00000000
1E0000001E00000000
1E0000001E00000000
1E0000001E00000000
1F0000001E00000000
1F0000003E00000000
0F0000003E00000000
0F0000003E000000E0
0F0000003F0007FFF8
0F8000003FFFFFFFF8
0F8000003FFFFFFFF8
078000007FFFFFFFE0
078000007DFFFFFF00
03800000381FFFC000
ENDCHAR
STARTCHAR aeacute
ENCODING 509
SWIDTH 881 0
DWIDTH 66 0
BBX 64 55 1 -2
BITMAP
0000000006000000
000000000F000000
000000001E000000
000000007E000000
00000000FC000000
00000001F8000000
00000003F0000000
00000007C0000000
0000000F80000000
0000000F00000000
0000000E00000000
0000000000000000
0000000000000000
0000000000000000
0000000000000000
0000000000000000
000FE000003F8000
001FF80001FFE000
003FFE0007FFF000
003FFF000FFFF800
00383F801F80FC00
00200FC03E007C00
000007E07C003E00
000001F0F8001E00
000000F8F0001E00
000000F9E0001E00
0000007DE0000E00
0000003FC0000E00
0000003FC0001E00
0000003FC0001E00
003FF83FC0003E00
01FFFF1F8000FC00
03FFFFFF8001FC00
0FFFFFFF8007F800
1FF003FF803FF000
3F8000FFDFFFC000
3E00007FDFFF0000
7C00001FDFFC0000
7800000FC7C00000
70000007C0000000
F0000007C0000000
F0000003E0000000
70000003E0000000
70000001E0000000
78000001F0000000
7C000000F8000000
3F0000007C000000
1FF001FFFF000000
0FFFFFFFFFC00000
07FFFFFF9FFC000F
01FFFFFE07FFFFFE
007FFFE003FFFFFC
0007FE0000FFFFF0
00000000003FFFC0
000000000000F800
ENDCHAR
STARTCHAR Oslashacute
ENCODING 510
SWIDTH 609 0
DWIDTH 46 0
BBX 43 59 1 -7
BITMAP
000001C00000
000003C00000
000007C00000
00001F800000
00003F000000
00007E000000
0000FC000000
0001F0000000
0001E0000000
0001C0000000
000180000000
000000000000
000000000000
000000080000
0000001C0000
0000001C0000
003FE03C0000
00FFFC3C0000
03FFFFB80000
07FFFFF80000
0FE07FF80000
1F8007FE0000
1E0000FF0000
3C0000FFC000
3C0000FFE000
780000E7F000
780001E1F800
700001E0FC00
700001C07C00
F00003C03E00
F00003C01F00
F00007801F00
F00007800F80
F00007800780
70000F0007C0
70000F0007C0
78001E0003C0
78001E0003C0
7C001E0003E0
3C003C0003E0
3E003C0003E0
1F007C0003C0
1F80780007C0
0FC078000F80
07E0F0001F80
07F8F0007F00
03FFF003FE00
00FFE01FFC00
007FFFFFF000
001FFFFFC000
0007FFFE0000
0007FF800000
000F80000000
000F80000000
000F00000000
001F00000000
001E00000000
001C00000000
000800000000
ENDCHAR
STARTCHAR oslashacute
ENCODING 511
SWIDTH 487 0
DWIDTH 37 0
BBX 33 45 1 0
BITMAP
0000060000
00000F0000
00003E0000
00007C0000
0000F80000
0003F00000
0007E00000
0007C00000
000F800000
000F000000
000E000000
0000000000
0000000000
0000000800
0001FF1E00
001FFF9E00
007FFFFE00
01FFFFFC00
03FF1FFC00
07F003FC00
0FC000FC00
1F0001FE00
3E0001FF00
3C0003FF00
780007CF00
78000FC780
70000F8780
70001F0780
F0003F0780
F0007E0780
F0007C0780
F000F80780
7001F80F80
7803F00F80
7803E01F80
7C07C03F00
3C0FC07F00
3E1F80FE00
1F3F03FC00
1FFE0FFC00
0FFC3FF800
07FFFFE000
01FFFFC000
01FFFF0000
01DFF80000
ENDCHAR
STARTCHAR Scommaaccent
ENCODING 536
SWIDTH 627 0
DWIDTH 47 0
BBX 44 70 1 -25
BITMAP
00003FF80000
0001FFFF8000
0007FFFFE000
000FFE1FF800
003F8003FC00
003C0000FE00
007800003F00
007800001F00
007000000400
007000000000
007800000000
007800000000
007C00000000
003C00000000
003F00000000
001F80000000
000FC0000000
0007F0000000
0001FC000000
00007F000000
00003FE00000
00000FF80000
000003FE0000
000000FF8000
0000003FE000
0000000FF800
00000007FC00
10000001FE00
300000007F80
700000001F80
7800000007C0
F800000003E0
7800000001F0
7800000001F0
7C00000001F0
3E00000001F0
1F00000001F0
0F80000001F0
07C0000001F0
03F8000007E0
01FF00001FC0
007FFFFFFF80
001FFFFFFF00
0003FFFFFC00
00007FFFE000
000000700000
000000000000
000000000000
000000000000
000000000000
000000000000
000000000000
000000000000
000000000000
00001E000000
00003E000000
00003E000000
00003F000000
00001F000000
00001F000000
00000F000000
00001F000000
00001F000000
00001F000000
00003E000000
00003E000000
00003E000000
00003C000000
00003C000000
000018000000
ENDCHAR
STARTCHAR scommaaccent
ENCODING 537
SWIDTH 514 0
DWIDTH 39 0
BBX 35 58 1 -24
BITMAP
007FE00000
03FFF80000
07FFFE0000
0FFFFF0000
1FC01F0000
3F00078000
3C00038000
3C00038000
3C00038000
3C00078000
3C00070000
1E00020000
1F00000000
0FC0000000
07FE000000
03FFFF0000
00FFFFF800
000FFFFE00
00000FFF80
0000003FC0
0000000FC0
00000007E0
00000003E0
00000003E0
40000003E0
F8000003E0
7C000003E0
7F000003E0
3FC0000FE0
1FF8003FC0
0FFFFFFF80
03FFFFFF00
00FFFFFC00
0007FFE000
0000000000
0000000000
0000000000
0000000000
0000000000
0000000000
0000000000
0000000000
0000F00000
0001F00000
0001F80000
0001F80000
0000F80000
0000780000
0000780000
0000780000
0000780000
0000780000
0000F80000
0001F00000
0001F00000
0001F00000
0001E00000
0000C00000
ENDCHAR
STARTCHAR circumflex
ENCODING 710
SWIDTH 375 0
DWIDTH 28 0
BBX 20 16 4 39
BITMAP
006000
00F000
00F800
00FC00
01FE00
01FF00
03FF00
03FF80
07FFC0
0F9FE0
1F0FE0
7F07F0
FE03F0
FC01F0
F000F0
000020
ENDCHAR
STARTCHAR caron
ENCODING 711
SWIDTH 375 0
DWIDTH 28 0
BBX 20 9 4 37
BITMAP
000020
F801F0
7E03F0
1F8FE0
07FFC0
03FF80
01FE00
00FC00
007000
ENDCHAR
STARTCHAR breve
ENCODING 728
SWIDTH 224 0
DWIDTH 17 0
BBX 13 8 2 30
BITMAP
0020
C038
C038
E038
F8F8
7FF0
3FE0
0F00
ENDCHAR
STARTCHAR dotaccent
ENCODING 729
SWIDTH 152 0
DWIDTH 11 0
BBX 5 7 4 34
BITMAP
F0
F0
F0
F8
F8
70
20
ENDCHAR
STARTCHAR ring
ENCODING 730
SWIDTH 333 0
DWIDTH 25 0
BBX 14 13 7 30
BITMAP
0380
1FE0
3FF0
7078
E038
C018
C01C
C01C
C038
E078
7FF0
3FE0
0F00
ENDCHAR
STARTCHAR ogonek
ENCODING 731
SWIDTH 254 0
DWIDTH 19 0
BBX 15 14 2 -11
BITMAP
0180
0FC0
1FE0
3F00
7C00
7800
F000
F000
F000
F800
FC00
7FC0
3FFE
07FC
ENDCHAR
STARTCHAR tilde
ENCODING 732
SWIDTH 402 0
DWIDTH 30 0
BBX 26 11 2 30
BITMAP
06000100
1FC003C0
7FF007C0
7EF80F80
F07E3E00
E01FFC00
E00FF800
E007F000
E000C000
E0000000
60000000
ENDCHAR
STARTCHAR hungarumlaut
ENCODING 733
SWIDTH 264 0
DWIDTH 20 0
BBX 17 10 2 32
BITMAP
030000
0F8300
1F0780
3F1F80
7E3F00
FC7E00
F87C00
E0F800
E0F000
006000
ENDCHAR
STARTCHAR Wgrave
ENCODING 7808
SWIDTH 703 0
DWIDTH 53 0
BBX 50 53 1 0
BITMAP
00000200000000
00000780000000
000003E0000000
000003F0000000
000001F8000000
000000FC000000
0000007E000000
0000001E000000
0000000E000000
00000000000000
00000000000000
00000000000000
00000000000000
00000000000000
00000000000000
00000000000000
60000000000000
60000000007000
F000000000F000
F000000000F800
F0000000007C00
F0000000007C00
F0000000007E00
F0000000007E00
F0000000003E00
F0000000003F00
F0000000003F00
F0000000001F00
F0000000001F00
F0000400001F80
F8000E00000F80
F8000F00000F80
F8000F000007C0
F8000F000007C0
F8000F000007C0
78000F000003C0
78000F800003C0
78000F800003C0
7C000F800003C0
7C000FC00003C0
3C000FC00003C0
3C001FE00003C0
3E003FF00003C0
1E007FF0000780
1E00FFF8000F80
1F01FC7C001F00
0F83F83E003F00
0FFFF01F80FE00
07FFC00FFFFC00
03FF8007FFF800
01FF0003FFF000
00FC0001FFC000
000000007E0000
ENDCHAR
STARTCHAR wgrave
ENCODING 7809
SWIDTH 656 0
DWIDTH 49 0
BBX 46 42 1 0
BITMAP
000008000000
00000F000000
00000F800000
000007C00000
000007E00000
000001F80000
000000F80000
0000007C0000
0000003C0000
000000000000
100000000000
180000000000
380000000000
380000000000
780000000000
780000000300
780000000380
F800000003C0
F000018001E0
F00003C001E0
F00003C000F0
F00003C000F0
F00003C00078
F00003C00078
F00003C00078
F00003E0007C
F00003E0003C
F00003E0003C
780003E0003C
780003E0003C
780007E0003C
3C0007F0007C
3C000FF0007C
3E001FF8007C
1E003FFC00FC
0F007F7E03F8
0F81FE3FFFF8
07FFFC1FFFF0
03FFF80FFFE0
01FFF007FFC0
007FC001FF80
001F00000000
ENDCHAR
STARTCHAR Wacute
ENCODING 7810
SWIDTH 703 0
DWIDTH 53 0
BBX 50 52 1 0
BITMAP
00000018000000
0000003C000000
00000078000000
000001F8000000
000003F0000000
000007E0000000
00000FC0000000
00001F00000000
00003E00000000
00003C00000000
00003800000000
00000000000000
00000000000000
00000000000000
00000000000000
60000000000000
60000000007000
F000000000F000
F000000000F800
F0000000007C00
F0000000007C00
F0000000007E00
F0000000007E00
F0000000003E00
F0000000003F00
F0000000003F00
F0000000001F00
F0000000001F00
F0000400001F80
F8000E00000F80
F8000F00000F80
F8000F000007C0
F8000F000007C0
F8000F000007C0
78000F000003C0
78000F800003C0
78000F800003C0
7C000F800003C0
7C000FC00003C0
3C000FC00003C0
3C001FE00003C0
3E003FF00003C0
1E007FF0000780
1E00FFF8000F80
1F01FC7C001F00
0F83F83E003F00
0FFFF01F80FE00
07FFC00FFFFC00
03FF8007FFF800
01FF0003FFF000
00FC0001FFC000
000000007E0000
ENDCHAR
STARTCHAR wacute
ENCODING 7811
SWIDTH 656 0
DWIDTH 49 0
BBX 46 48 1 0
BITMAP
000000180000
0000003C0000
000000F80000
000001F00000
000007F00000
00000FC00000
00001F800000
00001F000000
00003E000000
00003C000000
000038000000
000000000000
000000000000
000000000000
000000000000
000000000000
100000000000
180000000000
380000000000
380000000000
780000000000
780000000300
780000000380
F800000003C0
F000018001E0
F00003C001E0
F00003C000F0
F00003C000F0
F00003C00078
F00003C00078
F00003C00078
F00003E0007C
F00003E0003C
F00003E0003C
780003E0003C
780003E0003C
780007E0003C
3C0007F0007C
3C000FF0007C
3E001FF8007C
1E003FFC00FC
0F007F7E03F8
0F81FE3FFFF8
07FFFC1FFFF0
03FFF80FFFE0
01FFF007FFC0
007FC001FF80
001F00000000
ENDCHAR
STARTCHAR Wdieresis
ENCODING 7812
SWIDTH 703 0
DWIDTH 53 0
BBX 50 50 1 0
BITMAP
00007C07800000
00007E0FC00000
0000FE0FE00000
0000FE1FE00000
0000FE0FE00000
00007C0FC00000
00003803000000
00000000000000
00000000000000
00000000000000
00000000000000
00000000000000
00000000000000
60000000000000
60000000007000
F000000000F000
F000000000F800
F0000000007C00
F0000000007C00
F0000000007E00
F0000000007E00
F0000000003E00
F0000000003F00
F0000000003F00
F0000000001F00
F0000000001F00
F0000400001F80
F8000E00000F80
F8000F00000F80
F8000F000007C0
F8000F000007C0
F8000F000007C0
78000F000003C0
78000F800003C0
78000F800003C0
7C000F800003C0
7C000FC00003C0
3C000FC00003C0
3C001FE00003C0
3E003FF00003C0
1E007FF0000780
1E00FFF8000F80
1F01FC7C001F00
0F83F83E003F00
0FFFF01F80FE00
07FFC00FFFFC00
03FF8007FFF800
01FF0003FFF000
00FC0001FFC000
000000007E0000
ENDCHAR
STARTCHAR wdieresis
ENCODING 7813
SWIDTH 656 0
DWIDTH 49 0
BBX 46 39 1 0
BITMAP
0000F01F0000
0001F81F8000
0003F83F8000
0003F83F8000
0003F83F8000
0001F01F0000
0000E00E0000
100000000000
180000000000
380000000000
380000000000
780000000000
780000000300
780000000380
F800000003C0
F000018001E0
F00003C001E0
F00003C000F0
F00003C000F0
F00003C00078
F00003C00078
F00003C00078
F00003E0007C
F00003E0003C
F00003E0003C
780003E0003C
780003E0003C
780007E0003C
3C0007F0007C
3C000FF0007C
3E001FF8007C
1E003FFC00FC
0F007F7E03F8
0F81FE3FFFF8
07FFFC1FFFF0
03FFF80FFFE0
01FFF007FFC0
007FC001FF80
001F00000000
ENDCHAR
STARTCHAR Ygrave
ENCODING 7922
SWIDTH 403 0
DWIDTH 30 0
BBX 28 62 1 -1
BITMAP
00600000
00780000
007E0000
003F0000
001F8000
000FC000
0007E000
0003E000
0000E000
00000000
00000000
00000000
00000000
E0000000
E0000000
F0000020
F00000F0
780000F0
780000F0
7C0000F0
3E0000F0
3E0001E0
1F0001E0
1F8001E0
0FC003E0
07E003E0
03F007C0
01F807C0
00FE0FC0
007F8F80
003FFF80
000FFF80
0003FF00
0001FF00
00007E00
00003E00
00003E00
00003C00
00007C00
00007800
00007800
0000F800
0000F000
0000F000
0001F000
0001E000
0001E000
0001E000
0001E000
0003C000
0003C000
0003C000
0003C000
0003C000
0003C000
0003C000
0003C000
0003C000
0003C000
0003C000
0003C000
0003C000
ENDCHAR
STARTCHAR ygrave
ENCODING 7923
SWIDTH 487 0
DWIDTH 37 0
BBX 34 79 1 -37
BITMAP
0006000000
0007800000
0003E00000
0003F00000
0001F80000
0000FC0000
00007E0000
00003E0000
00000E0000
0000000C00
6000000C00
6000000C00
E000000E00
E000000E00
F000000E00
F000000E00
F000000F00
F000000F00
F000000F00
7000000F00
7800000F00
7800000F80
7800000F80
7800000F80
7C00000F80
3C00000F80
3C00000F80
3E00000780
1E00000780
1E00000FC0
0F00001FC0
0F80003FC0
0780007FC0
03C000FFC0
03E001FFC0
01F807FFC0
00FFFFE3C0
007FFF83C0
001FFE01C0
000FF801C0
0000C001C0
00000001C0
00000001C0
00000001C0
00000001C0
00000001C0
00000001C0
00000001C0
00000001C0
00000001C0
00000003C0
00000003C0
00000003C0
00000003C0
00000003C0
00000003C0
00000003C0
00000003C0
00000003C0
0000000780
0000000780
0000000780
1000000780
3800000780
3C00000780
3E00000F00
1F00000F00
1F80000F00
0FC0001E00
0FE0001E00
07F0003E00
03FC007C00
01FE00FC00
00FF83F800
003FFFF000
001FFFF000
0007FFE000
0000FF8000
00000C0000
ENDCHAR
STARTCHAR endash
ENCODING 8211
SWIDTH 287 0
DWIDTH 22 0
BBX 20 6 1 18
BITMAP
03FF80
3FFFE0
7FFFE0
FFFFF0
FFC7E0
F00000
ENDCHAR
STARTCHAR emdash
ENCODING 8212
SWIDTH 512 0
DWIDTH 38 0
BBX 35 6 1 18
BITMAP
00007FFF00
03FFFFFFC0
1FFFFFFFE0
7FFFFFFFE0
FFFFFFCFE0
FF80000000
ENDCHAR
STARTCHAR quoteleft
ENCODING 8216
SWIDTH 102 0
DWIDTH 8 0
BBX 5 18 1 37
BITMAP
40
60
F0
F0
F0
F8
F8
78
78
78
78
78
78
78
78
38
38
18
ENDCHAR
STARTCHAR quoteright
ENCODING 8217
SWIDTH 102 0
DWIDTH 8 0
BBX 5 18 1 37
BITMAP
40
60
F0
F0
F0
F8
F8
78
78
78
78
78
78
78
78
38
38
18
ENDCHAR
STARTCHAR quotesinglbase
ENCODING 8218
SWIDTH 102 0
DWIDTH 8 0
BBX 5 18 2 -2
BITMAP
40
C0
E0
E0
F0
F0
F0
F0
F0
F0
F8
F8
F8
78
78
78
78
38
ENDCHAR
STARTCHAR quotedblleft
ENCODING 8220
SWIDTH 234 0
DWIDTH 18 0
BBX 15 23 1 37
BITMAP
0030
0030
C038
E038
E038
E038
F03C
F03C
F03C
F03C
F83C
783C
783C
783C
7C3C
7C3C
3C3C
3C3E
3E3E
1E3E
1E3E
0F1E
000C
ENDCHAR
STARTCHAR quotedblright
ENCODING 8221
SWIDTH 234 0
DWIDTH 18 0
BBX 15 23 1 37
BITMAP
0030
0030
C038
E038
E038
E038
F03C
F03C
F03C
F03C
F83C
783C
783C
783C
7C3C
7C3C
3C3C
3C3E
3E3E
1E3E
1E3E
0F1E
000C
ENDCHAR
STARTCHAR quotedblbase
ENCODING 8222
SWIDTH 341 0
DWIDTH 26 0
BBX 15 24 5 -10
BITMAP
0010
0038
4038
E03C
703C
703C
703C
783C
783E
783E
783E
7C1E
3C1E
3C1E
3C1E
3E1E
3E1E
1E1E
1E1E
1F1E
0F1E
070E
000E
0004
ENDCHAR
STARTCHAR dagger
ENCODING 8224
SWIDTH 375 0
DWIDTH 28 0
BBX 24 49 2 0
BITMAP
008000
00C000
00C000
00E000
00E000
00E000
00F000
00F000
007000
007000
007800
007800
003800
003800
003C00
003C00
003C00
0FFFFE
7FFFFF
FFFFFF
FFFFFF
FF9E02
001E00
001E00
001E00
001E00
001E00
001E00
001E00
001E00
001E00
001E00
001F00
001F00
001F00
001F00
001F00
001F00
001F00
001F00
000F00
000F00
000F00
000F00
000F00
000F00
000F00
000F00
000E00
ENDCHAR
STARTCHAR daggerdbl
ENCODING 8225
SWIDTH 375 0
DWIDTH 28 0
BBX 36 56 -4 0
BITMAP
0003800000
0007800000
0007C00000
0007C00000
0007C00000
0003C00000
0003C00000
0003E00000
0003E00000
0003E00000
0001E00000
0001E00000
0001E00000
0001E00000
0000E00000
0000F00000
0000F00000
0000F00000
0000F00000
0000700000
07FFFFFF00
7FFFFFFFC0
FFFFFFFFE0
FFFFFFFFF0
3FFFF801F0
0000780060
0000380000
0000380000
0000380000
0000380000
001FFFFC00
7FFFFFFF80
7FFFFFFFC0
7FFFFFFFC0
1FFFFFFF00
0000380000
0000380000
0000380000
0000380000
0000380000
0000380000
0000380000
0000380000
00003C0000
00003C0000
00003C0000
00003C0000
00003C0000
00003C0000
00003C0000
00003C0000
00003C0000
00003C0000
00003C0000
00003C0000
0000380000
ENDCHAR
ENDFONT
